<mxfile host="app.diagrams.net" agent="Mozilla/5.0 (Windows NT 10.0; Win64; x64) AppleWebKit/537.36 (KHTML, like Gecko) Chrome/130.0.0.0 Safari/537.36 Edg/130.0.0.0" version="24.8.4">
  <diagram name="Proyecto" id="aY31_ghhyRgOfDpZ_b9M">
    <mxGraphModel dx="1324" dy="471" grid="0" gridSize="10" guides="1" tooltips="1" connect="1" arrows="1" fold="1" page="1" pageScale="1" pageWidth="1600" pageHeight="900" math="0" shadow="0">
      <root>
        <mxCell id="0" />
        <mxCell id="1" parent="0" />
        <mxCell id="eZxm1p6L29dhZQKVZIDZ-1" value="&lt;font style=&quot;font-size: 24px;&quot;&gt;PROPUESTA DE NOMENCLATURA DE EQUIPOS&lt;/font&gt;" style="text;html=1;align=center;verticalAlign=middle;whiteSpace=wrap;rounded=0;" parent="1" vertex="1">
          <mxGeometry x="495" y="70" width="419" height="49" as="geometry" />
        </mxCell>
        <mxCell id="eZxm1p6L29dhZQKVZIDZ-16" value="POWER APPS&amp;nbsp;&lt;div&gt;(CREACION DE NUEVO PROYECTO)&lt;/div&gt;" style="html=1;whiteSpace=wrap;" parent="1" vertex="1">
          <mxGeometry x="134" y="155" width="220" height="81" as="geometry" />
        </mxCell>
        <mxCell id="eZxm1p6L29dhZQKVZIDZ-17" value="INVENTARIO WEB&lt;div&gt;(INTEGRACION DE MEJORA)&lt;/div&gt;" style="html=1;whiteSpace=wrap;" parent="1" vertex="1">
          <mxGeometry x="895" y="155" width="220" height="81" as="geometry" />
        </mxCell>
        <mxCell id="eZxm1p6L29dhZQKVZIDZ-22" value="" style="shape=image;verticalLabelPosition=bottom;labelBackgroundColor=default;verticalAlign=top;aspect=fixed;imageAspect=0;image=data:image/png,iVBORw0KGgoAAAANSUhEUgAAAqcAAALTCAYAAAArVqvTAAAAAXNSR0IArs4c6QAAAARnQU1BAACxjwv8YQUAAAAJcEhZcwAADsMAAA7DAcdvqGQAAOi6SURBVHhe7N17XFRl4sfxj+U6WAq4iVKieFfEC7q6yFqEbpgapkmxpksbXtIi00JdNS1NU8NLWGGWF0pDzcS8kJqYGuUKq5t4xay8u6HYL1BLptX8/TEzMHMYEPA26Pf9es1L53mec+bcZvjOc55zpsKFCxcuI2Jw+XLBYWH/f2fPRURERIyqVKlSwVhWEhUUTuVKFEZFRESktO666y6FUxERERFxDZUrVy5TOL3DWCAiIiIicrMonIqIiIiIy1A4FRERERGXoXAqIiIiIi5D4VREREREXIbCqYiIiIi4DIVTEREREXEZCqciIiIi4jIq/JDS6/J99ycay8WJvFOf88NXMfx4/BC2H02qWPFOmrR5FG1DuZLb+fi5ndcdrX+5p/3nSNvDOW2Xwsp6E/4KW96uermyVxBV76nP5Uu/OFRW/MNdVPPtStVanYEyzf+WsudjPzzd76Reg9r5ZRcu5PHN9n1oG8qV3M7Hz+287mj9yz3tP0faHs5puxRW1nB6x5131YXff+OOvG+5838nHB6Xzu5n5+pITv57nHE6p3r16sXSpUuNxbeM01nHqNfAx6GsUqVKXO02HD58OJUrVy70yM7ONjYFYOnSpeVuO2dnZ1O5cmX27dtnrCqz8na8Xa/jB+u2sD92evXqZWwCQFxcnEO7uLg4h/rrsZ+4jute2veOM0W9n+Li4hg+fLixuEyu1/rjZN9f633nCm72e/167j8bZ+toez/aHs6Ox82bN1O5cmVjcaH3unHeV+N6bo9evXoVev/GxcWxefNmh7KSGj58+A17T9zo7XIrq7Djk0cut2nbDio4H356Pjeb7anL+MuAI8YqB9nZ2bzxxhscOnSIFStWGKtvCSkz76JB8wccyn7KPsNdHvW4Fttw8+bN7Nq1i2HDhhmrHNg+ZHr37m2sEhd2PY+fXr168d577+Hl5QXWYyQqKopjx47ll/Xq1YuIiAiH4yYuLs7heNu8eTOfffYZPj4+VzwOS+N6rjuleO84cyPeT9dz/e33/b59+2jbti0XLlwwNpOrcD33H8X8/czOzmbQoEH5ZXFxcXh7exd6D584cYJHHnmEjh07OpS3atUqv6xy5crs2LEDf3///DZldT23h/GzDCfrUhrDhw8nKirqmqz3ldzo7VIelLnntE279kVuMIAqHl78cva0sbiQL774gkceeYT69evfsG8pN4XJ1+Hh6/8o12obym3gBh0/vXv3JiEhgcREyzinpUuXFgqmQKEw99lnn/HPf/6T0aNHO5RfEzdo3V3WDVh/f39/oqOjb+3P4JvlOu6/kv799Pb2NhaRmppKVFQUn332mbHKQUJCAnv27DEWl9113B7lmrbLNXEHWEftXqVly5bRvHlzHnnkEVJSUhzqbKcdKhtON9qfjrJ12S9dutTpKQz703f23fv2py3sT1Haz8d46vJq+DVt5PCofe9dXKttaLRv3z6H9SuKfRv7Dzb70zq2bWCcp/22HD58uMO+2rdvn8M87OdrP539c+M87Le9/TyMp6uys7MdprO9vo2zdbE/XVPcetmeO6szTmdzKxw/LVq04MSJE2B9f/71r381NnGQnZ3NoUOH8PLyYsqUKWU+jVaUG7nu9p8tts8R+31qexhPk9naZGdnF3m6v6xu5PrXqFGDffv2MXz4cIYPH57/uWs83u33sfF9a38asbL1tLBt29i/HyvbvW+M7/+iPkOKe6/b19mW23hq1n5a+/en8fXLy3u3uL+f9ozv482bNxMcHIy/vz+HDh0qdDwb1axZ01hUZtdzexSntMeOPfv3Qnn+jDce50W9z2yfYfafh7ZjxFZnv/6lyV/FfZYMHz48f15lVXSUL4V9+/ZRv359vLy86Nixo0Ovy+bNm3n77be5cOECFy5cyD890atXL4YMGZJf3rFjRzZv3kxWVlZ+Wdu2bdm8eTObN2/Gx8fHoa1tHmvXrs0vP3HiBEuXLiU7O5tly5bllxt7h8qD7Oxsxo0bl78OO3bscPoG6tWrF8eOHctvN26cZdyKra39NsjOzqZt27YO7bt16+bw5rbtq7Vr19K2bVtatWrFhQsXmDJlSon/UNvv79GjRxf6wMzOzqZOnToOy2E7duzXNyEhAYpYF+P8rrReu3btyp/v22+/nT+ds218Kxw/WAPKoUOH8p/bnw6yfaDYf4B/8cUXREREABAaGnrFnhhXtmLFivz9h/Uzqnfv3vllU6ZMYceOHQ7bZPPmzfn7vbydOrPZvHlz/hcMgPj4eKKiolixYkWx75Ps7Gy6deuWX9eqVSvWrVtnnH3+thk2bFj+PBISEhw+G0ryGVLUe72ovxf2ivrct7nS54+rKe7vJ8C6devy36/BwcEOx+Znn31GaGgoABEREXzxxRd2UxbIzs4mKiqK5s2bG6tcUp06dRyCj/02KeuxExcXh4+PT/57obx/xpfkfQYQFRXFe++9xwXre/WNN95wqLOtf2nyV3GfJTY7duzgwlUML7om4TQlJYVHHnkk/7l9r8uuXbsYMmSIXWvLGwXrQWZv165djB49Ov+AjIqKYteuXTRv3pzRo0c7bHBn84iKinL4g2Of/MubvXv3OnwotW3bltTUVIc22dnZrFu3zuGNvG7dOrKzs0lNTaVv374O7ffu3cuUKVMcPtyMp3omTpwIQPPmzenatWv+9m3VqhVZWVn57YpjmwdAdHQ0p087nq5wthw2tm94bdu2zS9zti72nM3PuF62Dx9/f//8P7pFbeNb4fgBOH36NPXr189/bv9H+sKFCxw7diz/OYZemZL2xLgq+16F+Pj4QnXe3t4OY9BsX1qMf9DKC9tnQLdu3RzWITo6On89i3ufGOs6duxI165d89thGJObbXfmIyoqyqFdST9DnL3Xnf29sFfc577NlT5/XE1xfz8Bunbtmh8AWrVqlf+5lG0902Hbv3/9619ZtmxZ/nQA3bp1o3LlytSpU6fQlzFXZh96bIHLXmmPHVuAtf0duBU+40v6PktISMhf3969ezt8Htq2C6XMX8bPC5z8zTV+LpTWNQmno0ePzn8TVLZ+yylrr4v9N2Jbovfy8spP4JUN3cdGPj6WK+VWrFhBVFQUla9xl/2NNGXKFIdt4ewPp/0Hl+1R2g+ga3mq52r06tWLiRMncsH6jfhqlWS9itrGt8Lxk5KSkv/hHRwcXGSvCtbeG2dfdIqbxlVttl7UZdun0dHR+XXZ2dl89tlnhcbeHjp0KP+LXXlk/8e8tGzvE2fjGZ3Jtp75sL2e/R+4krrW73Xb5355VJq/n82bN88/G/LFF184fLmuU6cO69atc+i9sv97eiMuCLoRynLsHDp0qFDnzq3wGV8Wxi+d9q42f5Xkb25JXXU43bx5M9HR0Q4rdOHCBeLj48nOzqZVq1b5p1FtbOHJuJLO2trr3bs3a9euZdeuXU7nkZCQQKtWrfKf+/v7c+zYsUIHZXlg+7ZS3B9LZ9vAJjg4OP9iGBtn8yzLqR5vb2927dqV/9x4GupKnC2HTY0aNcAarGycrYs9Z/MryXo5m85eeT5+4uLiSE1NzQ9hffv2JSoqyumxgnV7JyQkOLyHd+zYUagnprywhZXs7GyHnoJBgwYxffp0u5YWERER7Nixgzp16hirbhnOjnfb+6RGjRoOPR2bN292elrfxv4PXFmPEWfv9Sv9DXD2mWf83C9PrvT302jv3r35Z0OWLVuWf+rU9khISCh2zOqtorTHzsSJE4mIiCjUU1qeP+NLyv79GRcXR3BwsEO9TXHbD0P+Ku6z5Fq56nD62WefOZySsJkyZQpffPEFHTt2JCIiIv/bnW2M24oVKxy+LW7evJmOHTsSHBycX1bZOtDX/hRdt27d8rvmjfNo27Zt/ngI+2+T9qd5ygsvLy/Wrl3r0JPlbMzne++957ANbG++YcOGceLEifzyuLg4vLy88v8A28rLcqqnd+/eDt3/xlMuV+JsObKzs4mIiMgvs+dsXew5m19J1quobVxejx/79cD6/rCxffu1P1bq1KmTfxps9OjRhS6YsvW02PfElAe2cXuVK1dm0KBB+T2nw4cPd+hpqmy4mMLf35+1a9dS+Qq9A+VVce8Tf39/EhIS8st37dpVZA+Ll5cX9evXz29b1B+74hT1Xi/q74W9oj73y6Mr/f3EMOb07bffZvr06fnHrbE39K9//WupOwvKm7IeO71798bHx4fKlStz4MCB/Hbl6TO+LOwzVWpqapHja0uTv4r7LLlWKvx+5LXiLyO7/Dvrlr1OpxfOGmtuOylv3s0jvcdR4Y47jVXF0zaU2/z4uZ3XnXK6/pUrV84/nXe7K4/773rS9nDO1baLrUPLOIzpRirzfU6NBUbHfthJjTrtjMW3pRo+rfhu75f8fumisapY2obCbX783M7rTjlc/7i4OIexure78rb/rjdtD+e0Xa6dCqtfr1Bkz2mFOypwX4Ng6v9lCm73BBirbztnT6zl0NZX+enHTH7//XdjtVPahmJzOx8/t/O6U07W3/40adeuXZ1egHm7Kg/770bS9nDO1bZLee45rXDhwoUiw6mIiIiISFmUNZxe8bS+iIiIiMiNonAqIiIiIi5D4VREREREXIbCqYiIiIi4DIVTEREREXEZCqciIiIi4jIUTkVERETEZSicioiIiIjLqPDLL7/oJvwiIiIick3dfffdZboJf4Xs7GyFUxERERG5pry8vMoWTi9fvqxwKiIiIiLXVIUKFcoUTjXmVERERERchsKpiIiIiLgMhVMRERERcRkKpyIiIiLiMhRORURERMRlKJyKiIiIiMtQOBURERERl6FwKiIiIiIuQ+FURERERFyGfiFKRMql33//nf87c4aLZjOmu++m2h//aGwiIiI3UVl/IUrhVETKlYv/+x8H163n1Hvz+cOpbC5fvkyFO+7gfy39afj8YGq3bm2cREREbgKFUxG55eUeP8E3r0+FdRu44/fCH11mUyXufekFGkX2wa1qVWO1iIjcQAqnInJLyzl5kn0jX+Zi6lZjVSF/HPIsTV54jkpubsYqERG5QcoaTnVBlIiUC79eyAN3d8wVKxqrCjm1cDHZO74xFouISDmgnlMRKVd+Ovlfjrw/n7PrPqfCj6co6mv55Y7BPJDwPnfeeaexSkREboCy9pwqnIpIuXPx4kXOZOzi+/cX8L+UTdxx8aKxCf+7807qLpxHw+D7jVUiInIDKJyKyG0n79df2RM7k18SFlHh99+N1eQ29+PRdauNxSIicgOUNZxqzKmIlFtud91Fy9EjcH/hWS7eVdlYjed3hzi5d5+xWEREXJjCqYiUayaTiYAXX6DG84P5vVIlh7rf//c/fv76Xw5lIiLi2hROReSm+d///sfvTk7Hl9Ydd9xBw/5Pc3e3hx3KK/z+O3kZu7nw668O5SIi4ro05lREbppDJ47w8derGPLoAKrcdbexutT+7/hxdkcNosK33+WX3dGsKa3mvYt7bR+Htq5hJ/ER8VSbPI8+Da1FGfGEv38v02f3op6htU3Wp88TfSaapIF+sHc+4a/lMXZZNMX/NlYWK56L5nC/RGLaupGXsZj4lB+NjfLdGxpNnwA36zLO597Yd+hV19jK6sQKnn/pZ6KX9afeFeZrz++xGLrZ1hvgzCZef24FfsW91pFNxH+ykzxjOW7c27Yb3TrWw9O+OCOe8LeqMX1Bn8Lb82IOO9fMZ/6StWTmAHji174bvZ7pSyefktwjt/D+y1k3nP57w0kcEYTzOeSx882+JDWdz6SunmTODWfsxbEkPVv83rNs48P0XxhDa7c8di6KZ1OWsZHNvXQa0ofWbqXYXnk7Wfz2Jkq055r2Iqb7vSVfBjtZaYtJXJjE2u9zAPBsGES37v0J72rYb3JL0JhTESl36nj78NX+NN5IeoeLlwpfcV9af6xdm4D33iGvapX8sgsnTvDb//2fQzuXcSKTTZ/M5/CZgqKszE2seDecvm/utG/p4PDeeFZkWf64412Nap9MImlz4fjhICORSe/m4elpSQs71/Rl+OJv+NnYDgA3PG2b8EQmmz6JJ/zJGRS5RCcyif8kC+sSGfzMN4uHM3zzYUO5G8bfSNiZMJyxn8QT/f4mJ2HKImtbPM+P3IRxbmT/i0l96uPX6XW2nS8ozsrcxIqEwxTKUEfW8vwD1Wjz3Frymvai/4svE/3kX3A78Dp/rd2M8LedBToDJ/svc8cMVozsxfA1zrcG5JC5bQWZOZa531u9GiteS2LTFV5s55JJxJ/3xLL7drL2qeEk7nG+93DzzA96pd1e9n7ek8hwJ9O6ValcqmUA4PxO4iPqc2/QWJLy6tEttBvdQrvxlyqHmdGv+OWQ29BlEZGbKHb5O5frPd/+ctLXyZd///13Y3WZ7Hjzrctb6jS+vMWn4eUtPg0v71u+wtjENRxPvNwLLk/aVlD04+Jel4HLEHR50rYL9q3z/es1LvPav6zPLlz+YrT3ZbrOu3zI0K6AtU1U0uWfrSX/eo3LPJF4+UdDy0KsywhcDnrtX5edLtG2SZdh0mXbEjn68XLiE/bLW4QLX1x+2dv78stvvXO5G70uJx43NrCwbJ8iXuvnzy7HeHO524KCLeG0/YVvLk9qz2XvyHmX99s2iJ2fN7x8OQjvy9GrnVTac7L//vWaZVvh3edy4mH7xjaW7dFrsXXLX/ji8suGZS7E2qb/ivy9d3kSdvMohtP1t3GyvewVO20pluHy5R8vJ0V6F71Nft5/OSn2nctfZBsrpLwzZs6SUs+piNxU3QNC+eV/vzJt3Rz2HzpgrC6Thr16UMmvaf7zC3v3O9S7vpdJXFyPdx4bzlq7Xjnn3OgUMZzW6+JZkWGsszqxgvgp8HJktzKfOn15YSL1ZhfXI3h1ctYt5nXv4YQP6Uv/qBVMX1JkP23RPLsRPhDWbt5ZuKfUTs66eMam9WLG5P74OdkgnqFjmfHavcS/Mr/o3uLiPPEOic8dpm9xvc02bp0If6k1a99aUWTbrE/jeZ2X6dPVycJejRJur6uWkcikRRCzcD59nA3X8PSj14hoOlU3VsjtSuFURG6qJvUb0ax6Q344c4yB80aSk3v14ce9dm08H++Z//yXbw861Lu+ytR7Mp75jyXR/6XFhU6rFhLQi+iuO5m+zPnp8J1LprOi/XDCOzofBVkSlRv1If79cJKeiWbxEWPt1drJ/Nj5dHuhF63xpFvky/w488qnussmi7VL5sOz/elW5DBkN4K696V1xnTW7jDWlUQ1Oo2LZzrDiZ64zek+sdf6sWi6ZUwvYmjGThJjVxA0MpxOZd99N9W2NdPZGTCcvqHldAXkhlM4FZGbqkKFCoQ2Dwbg+5+PEfPBa1z4zdkf6ZKrUKECjZ6O5Lfq9wDwf/syjU3KAU+6xa7g+e/6Fjv+1KIefUe8DFMWF+5pzdtE0syd9B/Z/woXTF2ZZ/fprChpj2Ap5G1OYvqRl4l50nLJklvHcIZ7v87idaX8opKzlqS50K1ja7yNdfkOc/gT6NTar/he5Kat6UQW33xX1j7F1sQsKWFvc8O+xIyG1xetLTRuN29zEtMz+jM88mr3nhMl2l5XK4vDe7IgyK/wBWkiRVA4FZGb7qHWwbhXslyB88X3/+LDjR8bm5RaxYoVqT/pVS4D1f7vZ86dPWts4vqqBPHyu9PhpWheTys+sLt1DGd4wHzmr3HsZ81Zt7joU8Kf9OXeChWoUOjRlxVOM5kbQaXoESyZHNYuep17X7LvGWxNrxe6Mf+1ok6r/4vEaTOYYf8Y2Zdmfo+womsS70RdOQZ5Vin8ow0O3CpTzVhWWnVL2ttsHZqRMJ+k7+3LLduG0X3o5uSU94o+9zrZdxWo8NQKw2n6q99eRSnxMtxbrfgvAyJ2FE5F5Karc899NK3ZAIBf/3eBaZ+/z5b0r4zNSq1OpxDcAloCcOx7h7/65UdAjHX8aX9WnDBW2rMEOsexi4dJmjuf1g7Bz85j89j/88/8XOgxn15FdqUV9Aj2/8Rpgi2d75OYn9CN6Mccewbrde9P/yJPddv7mcNfzWf6tCx6LfyRQwuKvgVXaV0wFpRBQW/z6+wsblUCehHddS3xn9rF8e+TmJ/QmuERnZzelqrX+/ud7Luf+fn9XsX0hF7b7VXiZfif/ROR4imcishN5129Ju0ataICllvinTOfp8/CoWQe/tbYtFTuNJm4u0sol++4g0uHiu26cmmW8aebiB5T/PhTS6AbTvyn1pPDGSuIX9eL4U8WcUq4YmWqeXriWejhLArZsfYIbnoh5go9gleSx6YFY1l7f2sqH9/Eps12jz1u+D2R5fRUN/yFviNiiBkRQ8yISbyzej//WujJ609NKjysoRBvvENhRWZxWxL4fj/bAL/aRce8krH1No8lelpxvc31CB/Yn50j41lhXYedn8az9onh9A0wtrWqUs3JvrPdbsre1WyvK7jiMnjiXRdI21/ssStiT+FURFxC52bB/OHOivnPL166RMxHr3H89EmHdqVxxx138Me/tIeaNfjD0ePG6nLEbvzplJ1F9+hV70V0bGvmz03iMHlsWjadH0dH06vIC3/KzqFH8JyxtoTOrGXxFPD7wzbmT3md1x0eM1ibE0S9hOnML+ouBHbqPTGcSd7xjH23uAAIUI82XVvD3M+KveDq8Fcr2EQMndoaa8rCvre56Ijm+Vg0021DM/I2kTTzR15+trhe0LIr+fa6Wm60CeoPKSvYVE5PXsiNp3AqIi6hXdPWNLjLMUV9c3Ifg+JHOJSVVs3m/lSs78vJo0eNVeWLbfzpmGjGrjVWFmj9WDTd1sWz4tMVxE+5t8hTwlfPrkfwlc+MlSVyeM185gcMJ3HTF3yxwdljLdOjthV5FwIHbkFEvxbNj69Mv8LwB2j9xFj68Dpji+rJPLKYsWPWEjSzr/PhEGVh19v8TsEPmBkUDM1Y8Um85dZaV3GHhWKVYntdLc+u0Uxqv5axrxXd85+Vkemkh1xuVwqnIuISKlasyMvhL3CH9dQ+wO9cZsepfTw1/XnO5JbtV54q/uEP1Oj5KObcXGNV+WMdf3o4zVhhp2E4/aN2MrxXX1Z0jaZXUaeEAS5e4OecHHKcPPJK9INd1h7BI9uMFSWwkxVvrbXePqoolttKOb0LgROe3WOY1HUFMW9dIcz69CJ+8cvwyl/o1C+etQeyrOt9mG1LxvJIUF82hSaS+GLRS1YWlt5m2FZMT7BtaEb4UyuusG2A8z8X2m+WR7Frn6/E26s4JVkGt9bEJMyjU0pf/tJpAPGf7uRwTg45OVlkpq1gRkR97m3dn8S99jOW25nCqYi4jNDAjrSp5W8sJuWHrfxz4URO55QgoTjh9VAnzv32m7H45qviyb14Q8FoBtyq3AsBbkX2dtZ7Mp75zxZ3oteTbs9NIghvop8NL/JiF2+fbvDpAJpVq0Y1J4/+n1ovdqriyb20LvRTo/nq9iH+/ehiTz27uYF3RcMMdqxlelY00d2LWkILt47hDG8/n6TNluVxq3IveFPE9qlH39cmUW9aQZgtqr1nx0lsykzikbx4+vvda13v+vzllZ34Tf6GzIV9itx2+Zzuv9ZQ3bPQ61lYe5vbG8vtVO9G9OQg8C5u23jj3RVWPNOs0H6zPPrn322hqPW3KLy9HFR0K2baki8DgFvT/iTu+YZJbX8k/rk21K9WjWrV7qVZ0HA2VY/hix//RXRz+/nL7azC1fy8lIjItbbs69W8sOgVfq/g+NF0R4UKNK/WiLXjE6lUqZJDXUnsmx6H//BhxuKbLy/Pkt6KLzLII++iG252oaiQK8+k5Eowr2KbXMwjr2LhwF3sNPYM019xOkODK7Ynz9LTV9ETT8sdzUqu0MxLsG+K2B72Cs32KlxxXsU0KKbqquTl5JCH25UvvpNyrUKFCgWnwkpB4VREXMrx7JMMeG84O084/8nRBtVqExc5gT81aUVFuwuoruTogW/xbdrEWCwiItdJWcOpTuuLiEvxqX4fvdp0NRbnO5Rzguc+fJnYT+L5rRSn6hVMRUTKB4VTEXEpFSpUICq0N953/tFYBcDly5c5nvsjs7YkcP/Ynny5c6uxSSEXL17k9Q9mcO58We95JCIiN4pO64uIS/rPvgx6z32e3LziA+UfKlSkwR/rENmhF/Vr16OyyY0KFSpw8eJFLpgv8OWuf/Fpxuf8XuEyK5+fR9P6jY2zEBGR66Csp/UVTkXEJV2+fJnXP5nFO5s+5Hd+N1YXUgFwu9OEm5sbd9xxhyWc5uXx22XL7yZ6Vnbn48HxtG5i+TlTERG5vsoaTnVaX0RcUoUKFYh6MILm95asp/MycOGSmZ9/yeWncz+Te+FcfjB1aCQiIi5N4VREXFatmvfxSs9heFepbqwqNVPFStSqfq+xWEREXIzCqYi4tAdatmfGk+P4o5uHsapUWt/bDK97rj7kiojI9aVwKiIurUKFCjzU5kEm9hqOp5u7sbpEKt5RkRce7kcZhz+JiMgNpHAqIi6vQoUKPPaXbkyNGEWjP/oaq4tlurMSg+5/krb+xf5KuYiIuAhdrS8i5cbly5c5cOw7Zqyew2f7t3Dp8iVjEwd3VKhA37Y9GfvEMKq5exqrRUTkOirr1foKpyJS7ly6dImN//mSGcnvcfyXU1wwX+C3S//j8uXL3HnHnbhVMlG9cjWGdorib399jDvu0EkiEZEbTeFURG47v/3vNw4e/4GDJ37gVO4ZLv5+ibsrVabBfXVpVa8ZnuotFRG5aRRORURERMRllDWc6lyXiIiIiLgMhVMRERERcRkKpyIiIiLiMhRORURERMRlKJyKiIiIiMtQOBURERERl6FwKiIiIiIuQ+FURERERFxGBd8GTXQTfhGR29C/0/5lLBIRuWZqet1TppvwV6ircCoiclv6z45/G4tERK6Ze6p5lDGcNmyqcCoichvK+GaHsUhE5JrxdK+icCoiIiW3d3eGsUhE5Jqpcpdb2cJpvUZ+CqciIrehfXt2GYtERK6Zu9wqKZyKiEjJ7d+721gkInLNVDb9QeFURERKLnPfHmORiMg141apYpnCqe5zKiIiIiIuQ+FURERERFyGwqmIiIiIuAyFUxERERFxGQqnIiIiIuIyFE5FRERExGUonIqIiIiIy1A4FRERERGXoXAqIiIiIi5D4VREREREXIbCqYiIiIi4DIVTEREREXEZCqciIiIi4jIUTkVERETEZSicioiIiIjLUDgVEREREZehcCoiIiIiLqNCvUZ+l42F5Zl/pzAauBtLAXM2O9elc9xYfkV+RI7rQ42d7zEj+UShupCeDXD2ckU6+wOrN2UaS6kdNpTo1tksmriYfcbKsmgeTOTDofyppgmAvFMZrP98MVv2GhsWs83snP0+uWBa3zBiBvpxeu40Fh01NDSo3WcE0dXSGRWfepXby4egrgF4WVanCGayd6awzbpMtduH0tq7iAnKfDyI3Doy9+0xFomIXDNulSpWMJaVxK0VTnvOIT02GC9juZ2zWZlsmTuWYYsKB0RngmZuIDHMB7JTGdVhMMvsK6MSyBgdWLqw9WsGMwL6EO9QOIjlGUNpcxfsW9SZ7hONIbjkaoeNYGpMH4JqOQ9lZw+lsix2MJM3WQtKsM0AOLiY+mGTLP+flMyhiPqYDyXxbJdxbDG2tTN1/X4iqqczuW0U865me41O4lCUn7G2kOzUcQQOSALCWLA1lpDiVuzSOb7ftIAXo9+7Nl8IRMoZhVMRuZ4UTrELi0dTGBafkl/s0SCQP9X0wqdda9rUqmrpYdv0Fo8PTrhCz1k4C7ZOtAYcM9/Mas3jDqnSj8hxUfypqn0ZuLcMJaQ+fJ+awv7/c6zL3ZPAq4ZgXHtcEl9GWoPX0WT6ho5km0OLkqk9YA7LhwbjZQJzdibbNqeyeccP5OJOo7bBhAQH4u9tAnMm81qEM5mit5mRQ8/plGQOhdcH4PjKwTw4MtWhrT2HcHo128v6mmczEnhlcVFfLOx7TqNI3DGCIPcTfD7yLdY5tKvFnzo+SEinAGqb4GzaNLo/daVjQeTWo3AqIteTwil2QetQEvW7jDPWAlA7bCyzx/fB3x2OrxvMg0OLDla1RyexIcqP0ynJnO0Uhv/RJPp2GXfF4DhgYTpj2sO2KYH0TTDWGlkD8N0ZrN7pw6MdTCWczsB3BGuSo/A3mfl+5Tj6j0x2GrZCRs4hpvkJZjw1ydLjWYJtVohdOIVzbIsNp+885729juHUuRJtL1s4TZtGwFNFNbJnC6eHWNY4jFHGagDfoSxfNYg2d51gdVRnhm01NhC5tSmcisj1VNZwettdEHU8eRLdR6ZwHKjdeSgTfI0tbAKJ6eSH6VImW2JHsj7DDPUfZGC4sd1Vig4nyAuydyQxbF4ax6lKUM+x1Da2u4KIcd3xN4E544MigynAltjBdLcF06v0fUoS35urEjR4IgOK3I4u7Ogs1u8+B/jQrKuxUkRERG6G2y6cArBpGlsygTv9CBkaaKy1CI8iyBfMGRt49SjEL08nm+oEPT7I2PIq+DChcwAmTrAtIQm2vmVZLr9gYjoY2xYnih4B1YEzbPt4VpHB9Jo7O47JyYcwuwcS895EQoz15cmdxgIRERG5GW670/r5rBf1kJlA/R7TjLVEL9lJzJ/OsWV0MP2SAAKJS0ngUZ9MFnUJ59VirlIv0WlqgA6xfJkQRu3MxTzYY5IlVEYvJnNoAGfzL+wpAd9YvkwJo/avGcQH9GGGsb44pdlmNtZT7N8nNaPzaB8GLExiTPuqTsefuvRpfds+9T3HtomB9F1krBe5tV3Naf0z2dnkns0lL8/M5cu3zp8REbl22rYJKNNp/ds3nBbX1hYaDRcn2S5cKrgi3LkSha38AIzhQivrGNQ/XjkE57OtS3YqwzoMZrWxvjj502aweqvzcaOQzX/i7W4b5RBOAd8oEpeNIKha4fGn1zqcmg+l8vnus8Zai99+YOXY96xDFq4QTn3DGDNxJJHtq2M6mUK/jkOvyVAHkfKkLOH0t9/MHD9+nDvuuIN77qlOxYoVufNOnXoQkcI8qt5dpnB6e57Wv4KIqPbUBvalvuVw8dPxiRv45lfwahtOtF15mfiOpUuACbLTWeZwB4Ak5qafKH7IQVHOZZcumNrzCuDRnmFFPLrTMdg4gZ2jCfQdnczxS9d//KmpfrCT5bM+wrvT0TgB9emRsZNM+8ee/RxKiWVA++pwMpUZQxRMRUrq+PHjVHarzH331cJkMimYisg1p3BayCAi2laHXzNYX+h+o++xbMcZuCuALuN8DHWlEzQ0GP874Xh6guO9U4Fts1LZdwlqB0YRYagrVjUfIo1lJXUoifqNmxXxCKbflU55bxrJqyuv//jTs2nTnCyf9eEXxqvGCTBz9sRJjuc/sjFXtJR/v2wcfh0HE+/khwlEpLAz2dlcvnyZe6pXN1aJiFwzt204re1XC3fg7OlDjuXjOtPmLjBnm2kUG0uc4fEX81nOAv5dxpYuODoIZ2CgD3COs4QXeo24aHfMWYBXIJGjSxCCE05wGsDdvdRX+V9LW0YPZkbaOUz1w5kQW1xX6410ks1hYXTOf3QmoMs0tv1somHESBIHlGD7iggAuWdzueceBVMRub5u03AaSExrSyg5nmk/yDGcCV0sN8M3+QYWPm3cM4xHQ+tbfuHIK5CIMp7brz2uj/XG/lXxD3PyGj3DaFMLwIR/pxcIMs6gkGR+OAncWZ82Q411N9IJ5o2bw7afoXbPaa4b/I4m0HdhBmaqEhR1NV8yRG4veXlmKlWqZCwWEbmmbstwWnvoUB72Bc6ms2qKXYX1nqPmvYsZNnJk0Y9Z6WRjok3n0t+PFAKJCfYDTvD5RCfztnssOwj4ti/BvVXTWbjzBGCiTc9Z1+2UeokYxp/WdtXhaPGzWHWoFL3TIsLly5epWLGisVhE5Jq6zcKpH5GxyayJDsDEObbNGWd3BbntnqNn2JY4idUrk4t+xM+x/ESmXzBjOjm8wJVZ759KZiqTFzmZt91j1LoMzFQn6G9DrxiCt730HluygVqhxK0ay6POLkryDWPMwg1k7FjMGGPdtWQ3/jTI2XK4hHRGzU0lGxP+4RMZYKwWERGRm+LWDKfeD7IhOdnxsT6VjMwkJvSsj7v5DNvmjXD8yc3wsXTxA46mMbfou0RZpTMjNRPwIWRgaW7K78OYpwLxwsw3G6z3NS1OfBLbssEU8EgJbsqfRL9xCXyTDe5+fYhbn076+sUsiI0lLnYOy9enkrE+lgHtfXA3n7WMUbVXtUHhsa92jwkDSnfnANv402vNVCOw0LLZP2Ku2MtsJ2kSyzLM4B5I5MzSrZ+IiIhcH7dWOD2YTe4l4K7qNGxc3/HhWxXT2RN8k/Iew8KC6RvreLN42vrghZl9mxxvH1WU4xOT2fYzmOq3L3SFvPmS9T8XDRWE4l/L2e2jipLE3M2HMJf05zU3TePxPiOJTznE2YtV8aofQEjPMB7tGUyb+tVx/+UM+1ZOonuHwQU9xrZtVuytpMKI6GZ3gdNZs+Vf23o6VTD+9EqK3l52TmRz9kq3kuoZRkSnMOsE2Zz9Fbhkpoi7ogInmDErme/NULuZbToRERG5mW6tm/BfFT9COsGWTZnGiqI1D+bhKof4PM14y6mi51W7fTA+P6ZahgWUiA9BXetzdl0q+4xVV9I8mEcbugNmsnemlOI1r8SHoE61OLEp/cq9v76BhNx7ki2FtpG9orfXVSly/xg0DyaEVLbollJymyntTfj37t1Lo0aNjMUiIk6V9Sb8CqciIrcphVMRuZ7KGk5vrdP6IiIiIlKuKZyKiIiIiMtQOBURERERl6FwKiIiIiIuQ+FURERERFyGwqmIiIiIuAyFUxERERFxGQqnIiIiIuIyFE5FRERExGUonIqIiIiIy1A4FRERERGXoXAqIiIiIi5D4VREREREXIbCqYiIiIi4DIVTEREREXEZCqciIiIi4jIUTkVERETEZSicioiIiIjLUDgVEREREZehcCoiIiIiLkPhVERERERchsKpiIiIiLgMhVMRERERcRkKpyIiIiLiMirUa+R32VgoIiK3vsx9e4xFxdq7dy+NGjUyFpfeJTPmiyZMJmOF1SUz534zUbWyY7H53Hl+uwTwB6p6Wie+ZObcuf85NnRg15ai521jzjnPb3bPK1WtgulOuwJnzOc5d8Hy39K2B8BUpcjl4cJ5zpmNhcW8jrH9nX+galXDhja+fnHzw7CNK1fBODtKs90umTl30eR0HsXVFczfbn86WQ8HxnUv6X4qaTu5Io+qd1cwlpVEfjhtH/hnY52IiLiwtPR/G4tK5WaF03MpY3ngs/vZGNeF6sZKZ/UXvmVhzCDiD9ei3j3ApTMcPlWLnqMnMpAFPP/hgfxpzxz+lnPuTSztAGjKM3Hj6GR9oZOf9OORuKbM3TSSdsYQ9O0CHnlyIaZmtaiE9XW+PU/V4CeIef5ZujY0THDhCJ9Of5mp689Qr151S/tj1en2z9cZ9WhdjLO3OM+mMSGM3lmwjL/991sO0ZKuTz9HTN+2VM8PQ98y75F+LHWva1dmUa93LFPCajkW8i3zHunLh6Ym1LrLWvTrSQ7k1OdvoycyOrSW09e3LDe0G/QWM55qUrDcl35i+4KXeendA3g1q0UlzJzcf4amz05nSj+75SzFdjuzeigPHepPxrCW+WXF1Z3b8xGjR77LdupalvenIxymLdEzYmm1ox9TNthamjm5/wjUtVt3ujL6o7/TqsT7ycyBhUMZ+N5hatWzHDBnDp+kVtgrTB7ZiVoKqaV21eFURERuLzcrnJ5ZPZSHUjqx8e0eTsOpY/15No15mBXNEpnxd7sgcWoHC1ecpduznezm8ROfDnmYL0I/551H89NpgUvfMu/R+Zxs/y257RKZ2aWKY31GHAH94MNvhtEqfxozJ7e+S8zor/lzfCIvBdh6bE/yaUwEi+6L5f2YDgVB7dwOZv5jKJlPJjL3ibq2udgpYhlzvuXjKYOYaX6RFTN6WIPQbma2mU+9dbN4rKbdLIq0m5lt+sGCHbwUYFd8fBXP917FA0sX8LfaRby+dbnPDfmcVztWAczsiuvLM0ci+HBiBE2rWttZ13vmfbPYOLKtZX+UYrs5C6A2xjpzRhxPRu+mW/xbDAgo2Ffnvl3FOxuq8/yQDtgWq8h1L8V+OpcylodWN2VJ7N+pb+vJvvQT2xM/5tzDz9GpRPtA7JU1nGrMqYiIuLBDZKxvy19DDT2RNdvylEMwvbJzKfOZ+2AEo57uy09vL+PAJWMLJ+40USt4GO/8sxYL31zFSWuxeXsiU7/rz2T7wANQtS0vzRzKb1PmsemcXfmVeDbhb6+9xd++i2Xhdifn8a9G7R78I3w3X+36yVhToGpb/hbZgk93HbI8P76KmQvrM368XTAFuLMWj02JpduqiSz61q7cqIjtVnInWfnmR9Qd5xhMAao26cFoh2BatNLsp0P71tMutGtBMAW48x7aPaVgeqMpnIqIiAsz4X7vEQ4fu9rAdpK1S75lYFhbTLW70bv5fD4tRQis3rEHXfds4t8/Wp4f2LmK6o93oKmzU711/0y3ZutJ313y+QNgakm3x6vz8b9K16N9ZWbMZqha5CBfi3NnfqSWh7WHc9dWdnXpwv2exlZA5bY8EHaSjTuPGGsKMW63Ejuzh6/2dCGsg6F3u5RKs59MHrU4/P1hSrnX5DpQOBURERfWhMjXH+bfwx6mV0wsC1dvZdeRnzCXpNfT3v7PWUhfujYDqEKnx3qw8tPNlLhzs2p1vNjB4VMAP3Fov5l69xTVb1sdrzpw8qfzxoorqn5PXTh8kjP5JUf44sPZvPOu/eMjvj7lMFnRLpk5mTqLmcldCG1XEPTMv57hXM55y+PUEbZ/MpExH9Tl+W5NADj5/VaoUb2I3kkT1b1rcSDrrLGiMIftVgonDvA11bnH+QKUUOn2U9PeE+m6fSgP9RrJlIWr+DrjCGeKu+BKrhuFUxERcWmmgOdYuimJ6ZEtMZ3cyoej+xAc3JcJKSU9WWzm61XzafJkN2yXEJnaRfBS1jw+Lu7UdDHcnPXE5TNj/tVYVlZVqN/yzwS2tn+0o2lReQtY2K8tAW2sj+BHiVlViYEfjqOTXS/o7g9fY+Dzgxj4/CD+8eTjjN7TkunrZ9HVdvr6Cr2s5ryC+Hxd3FmpiAvKSqdU+6lyS57/aBOfzvw7AZVP8tWil+n9UAd6T9zEydJ+GZKronAqIiKuz3QP9QO68LdnRzJzyeekL+1B9j9j+bQkPXLHVzH3k+r8tnthQe/j+2s5dPc55q7aUbLTuDn/5QQd8PMBuId6rWqx/VBR4fgMJ78zUb+Ok4uyruDMqSOYmtWzG0tbnXqt29Kuvf2jSaGr9+09tWAHGd9YH1s/Z+mMYYXuNNDu2bdY+lEiSz9KZMVnC+i2dxFrjxRsifoNO8IPh+16cO2d56fjZu6vb7xbgBMO283qd/ubThU4++uZgkx8b33acZhDJdm/RSrDfrrTRPW6Len6xHOMnpHIxtRlPHZ6JFM+K2a8rlxzCqciIlL+1G5KfY7wU46xorAD6xMhaij/CHbsgXzoqf50WrWMTSWYx6H1y9gU2pX7ramxaWAPqn+ynq+dnPY1Z6zj05wePOBnrLmCC1v59AMY+GDhK9mvq8otGfhsUxZNX8Uhaw9h1Xb302nrKr5wNqz01BesWN+SB1pfOXwbt1v1Jq2o9cVuJxejnefbnd/SqWF9a8P7eSR0Kys3O1uAkrvq/XRnLZo2gMM/OY/pcn0onIqIiOs6soyBwxaw/bhd/+YlM4eSl/FF3R7c39C+sRPmHXz6QRN6R3Yy9D62pV37CP7x9LcsLWZ4gPnMEb6eO5h/vF+dKcO6FIzBbNaXyU/8m5jRyzhgF27P7V/G6JdW8udJzxW+j2pRLpk5mbGMCf1eZtffJxLZzNjg+qvaaQAvMYuP06zb2bMLMeOrMvOlWL7+sWDbm3/cysxhb3Jm2D/5W+2C6Y2K3G4NO/FU9dmMmbGVM7aAeuk8B5a+zPivI+gVbBsXW4Wuw8ZR9e3hTFj9Lefs2h5aH8c/XllfRK+uQYn30xE+fm4o89JOOoxnNh9Zz9KUujz2F8tYXLkxdJ9TEZHb1M26z6k5LZbg55YVPp3u+RwfbupH062xBH7Wlq8md6IqZk6mJjIjbiGbjtguMDJRPbg/U8b2o53D2EszX0/pwGdttzAl1BJyzqWM5aGdPUm13ZPT6Pgy/tH7DC9tfY5Wx5fxjx6x7LKrNtVsQoeHI3mmfxfHWyphDVWfzWZK3DJ2WYNP1RZdGPj8izzVrqheRTPbYzsxcKn92lehfvv76fnUizzV3n66k3z8jx5McbKbWo1exYdPGE+rH+Hjvw/l3LhVDCgySxXeRvk1e2bz5Du1ePu9Hvljc8+kLWD8hPl8fcp6RXvNDvxt6ItEd7G7tVdpt9u53Xw8LY53kndbL0gzUT34Ccb/cxj332toe2oH86a8zNzUn6zHSxXqd3yK0SP70c7h9k7FrHsJ95P5+FYWxb3Jh5uP5F8oZ6rZgYGvvcKAIvenFKes9zlVOBURuU3drHBaZtaf0XTJn5S8cB5zJRdcrmvFfJ5zOP/p0qthzjkPJdmfl8ycO4fjT9GWRQn3k/nceX6rdO3X93ZT1nCq0/oiIlI+3GmiqueVg8VNUdlFl+taMV2foGYq6f6803T1wZSS7ydT1euzvlIyCqciIiIi4jIUTkVERETEZSicioiIiIjLUDgVEREREZehcCoiIiIiLkPhVERERERchsKpiIiIiLgMhVMRERERcRkKpyIiIiLiMhRORURERMRlKJyKiIiIiMtQOBURERERl6FwKiIiIiIuQ+FURERERFyGwqmIiIiIuAyFUxERERFxGQqnIiIiIuIyFE5FRERExGUonIqIiIiIyyjn4dSHoK5hhDQ3ltvxDeThnsH4G8tFRERExOWU83A6iAmzYnnj+TBjRYGB43g3dhpjoowVIiIiIuJqynk4tTDd5WUsKnCnsUBEREREXNUtEU5FRERE5NZw24ZT//ChTJ23mA3Ji1kwaSgRxnGrnUbwbvwIQvAjctwsElcks3zeWCKt7fwjx/LuwiQ2LJnDhEg/w8SA3XRrFs4qoo2IiIiI2LsNw6kPAxJSWTNlED0auwPu+IcNYuqSVBYM8CloFvogD4eGMiZ5MWO6NMCrUiUadujDhA8WMyE2meVjutPsjyZM9YOJHLeYNaPtpu00guVbk5jQww/38yc4W8WPHmOSSE+IonZBKxERERExuCXCqXu7F8jM2On8EVbfsXF0LDEdqnN85WD8gsPoHBZGYI+RfH6mOiGDJzLAobEPtX/9gM4dwugc1pmA2HTOugcQ2fks87oE8mBYGA8GjmNLtgn/BwdZg2cgU0dG0ea3FIaFd6b7U4Pp26sz3WekY+oQxYRwhxcQERERETu3RDg1H03n8w0pzh+ZZxzaxjzoh+nXDFaPTC0oPJrMsxsywb0ZHR2u6j/HN+tmcdz2NOEEp4Gzu1OYcdRWmMS+k2ao7sPDAB36EFQf9m2axur8NnB8Xir7zlanQXBgQaGIiIiIOLg1wunpdIaNHOn88cNZh7Ze7ibI+oEZDqVA1lnOUhWvxsaKK8vN+63gSWN3PAD/iDWGXtwXaHM3eLg3sJ9UREREROzcEuG01EzuBBnLbC4ZC8riHNtmtcYvwPDwa0ZA1GJjYxERERGxuu3C6b+OnIFafvytg2N5SNsGuHOC/escy0stYT/HL1WlYXsNLhUREREprdsunK5e9CXfm314ePwsBrT3AXx4dPRi4kKrY85MYcZW4xSlNY1VaefwCh7J8nHh1p9N9SEoYiyJm9NZPtLYXkRERERsbolwmvvzfmNRgbNmy78Xrc+3jqP/lGSOu4cyZuEGDh3cQFxUAOxdzD9fmFZw8dMlgFzOHrQVAJzFfAnMv2bbF1pcAusrMS/qaWakZNOwz0TWHNzPoYMbSJwQjv8vX7LqY8N0IiIiIpKvQr1GfpeNheVJ7faBuKels89Ykc+HoPZV2ZaWaaygdvtQWnub+WFlqpPpnU/n9PV8Awmqms62vfaFFv6dwmhgymbnuvSC4Csi4gIy9+0xFhVr7969NGrUyFgsIuKUR9W7KxjLSqLch1MRESkbhVMRuZ4UTkVEpFTKEk5/+83u1nkiIsX4S/s/K5yKiEjJlSWcNm/e3FgsIuKUW6WKZQqnt8QFUSIiIiJya1A4FRERERGXoXAqIiIiIi5D4VREREREXIbCqYiIiIi4DIVTEREREXEZCqciIiIi4jIUTkVERETEZSicioiIiIjLUDgVEREREZehcCoiIiIiLkPhVERERERchsKpiIiIiLgMhVMRERERcRkKpyIiIiLiMhRORURERMRlKJyKiIiIiMtQOBURERERl6FwKiIiIiIuQ+FURERERFyGwqmIiIiIuAyFUxERERFxGQqnIiIiIuIyFE5FRERExGUonIqIiIiIy1A4FRERERGXoXAqIiIiIi7jzmr3eI03FoqIyK3v+ejnjEXFOn36NDVq1DAWX3Onti5g3uYc6jWtR5WKxto8Dqx6i4/SK1CvqQ9VKkLOt+tYOn8RSz/bxve/VKVhQ2/cblDXS97Rzcx771NOVPOjaQ03Y7VVHkc2LmTOuiyqN2tE9UrG+ltATiYr53/CgbsbOd0OeSfT+GjuMo7c05qm1Qvt1Gvn/GHWJ7zLxlPVad7Yi+v4SsW4Bvv7Yg4HUtex8ctt7Ni1k4xdOzmw7wAnTv/CxTurUN2z8Da+JnIyWPreAnZcakRAnSrG2lKbNPG1CcaykrhBb18REZESuJhD5sbZjBoYSsQb6ziVZ6g/f5i05SMZNWctR85D3sl1TP17dwZPWEvG17MZ9kQYoz7OxDjZ9ZKb8Slx40aydMePRb/mxRwyVr3C+HGLSTtZZKtyLe/UNlaOe4HeYUP4YFfhdcz7bi1zRo9kZXHb6Vr4KYP1019h1PIMsq7rCxXjGuzvvKPrmBrxBE8PfIbB1sfTUZH07HY/AY2a83R8GjkXjVNdvbyjm/hgxCvM2Zh5XeZfUgqnIiLiktJfH8mUzw47DzMX4QKQm7GO9ScfI27b16xP+Yql/SuzbuONDSYXjAVOuAHk3cCFullOLmHw+NmknzFWWORd58CTZ33cbFe9vy9egItQs/8nHP31Inm/XSTv7BkObHifwX/KYumL4/jgPznGqa6d67yfrkThVEREXFQmc158haW7nPwRrgiVbf/PyyHvfB55eXnk5JUkKt4YeVlZnDpjCShXEVPKD9tKfjaSkbMMvd7WsONmPM9+MY+ck4c5Yt1OherOWPd9Xg6nTmY5htu8HE6dzCm0be1PeOflZHEqy8nxczGPHPvXzMtznE9eDqeOHuZUjnHuRSvR/i7DfPO5eVI3pB+jJ44hgM1sSTtC3pXW47z19c7bFxo427Y2F3Mc52+VcyancHvbvswqvE9KS+FURERcUFdGvTmGkKwlDB6/oMieuJod+jH4kZ2M6lgdzxotGJzox7P/6Ejd6zQk78ryOLVlJk8HVcSzjg++91XBO3QIH2zJMja89bhB0/6xTP1HPdLfGMmUVUX0emM99f3eMwTcVQXveo1oel8V3IIiiduYZZ0mjwOJkXjf15wukd0JcK+Obz0fPO/rzvjEdSyd8ARN3avjW686nkHPMGeLZTrbbs/bsoBRjzbCs4YPvnWq49biCaauty1PHgfmR+J9Xwt6Rj5B+0oVcXO/n6kbc+BMBh+8GIq3e3V8GzXCt0YVHnxxCQeKDHcl3N+lnm/RTNZ/8/LOsqeo9TifydIX78ftj9bX+2NFAp58hZU/2O2RnEyWju6Or23b3tWC3pPWsaWgARnxkXjf9wRz9hVMl5M+mR73VefpROvwmYs5ZMy325d1quMZ1J8xQ7vlT1Na5Tyc+hDUNYyQ5sZyO76BPNwzGP/8Ah+COgVS26HRzVC25fDvdIX1LU6hbXGN+AbycNfSr0vJ+RHSyc9YKCK3sopu1A15jqlvP4mbs544G88ABr+9nfWfLOKDhE9Yv/MTRoV4G1vdMHn7FvPPp0ay9D8B9I55jamvPkfImU9Z/62x5a3JrXpreo56i2GBxfR6Aznpsxk1ZAEHmjzGsFdjGR/zJAH/WcKobgOZk26ZJu98HpDFlo+34d1/DFNffo6Qi+uYGtWdp1/fTN1BrzH15X6E7FrAsBdnsuWk3Quc3MzKn9szbGIs44c+RtNvP2X8oy9Y551HXl4OcJj1H38KfxvD1ISJ9G70Ix+MDmNw/GYChr7F0rUpLH3zOczxAxmfmIGzNSnR/j6fWer5FikrjaUfziYDPwJaefMHZ+sRABmJr/B0fBo1uzzHqCmxjPpHRw4kTab305Mt2+liFltmDeTpGesgv40361dtLniti2A+/7N1exW8+czn8jADeefNYNuXzy7gQId+TH33fea8/RpPV/yQj04HFcyrlMp5OB3EhFmxvPF8mLGiwMBxvBs7jTFR1ueT5pA4J4GPYgMMDW+wMi1HFGNiY4kbaVuZUho8jndjJxHT01hxNXwY89Yc3p01hzejjXXXRmTCByyY8wGJg4w1InJLq+hJQN8xzOlfj/Q3Xii6J86zHiE9nqR338cI8fc01t5AOexKXsLSrHoM/uQT5kwZw7CX32JpSgqjAo1tb12evl15ceJrhJxZwuBxC0g/Ywkz+c5nsvKdV9ji+SQfLF/E1JdfYtSURaz/KpYQ1jFn6WaHLyJdpm1k6buvMezl1xg1tH1+2cq3xzDs5VhGxQTAvp0csB9o3OA5li6fy9R/vsSoaZ/w+YYxBLKOpSt3csrudHTgyymsmvsaw/p2pdp3S5jzYRYhr6bw4ZTn6PlQR3r2f5Fh//Bk5dK1fFuo975k+/tUWmnnW+DU/CfwvasibpWsjzr3M+zjHJr2H8PT9xfcOcN+Per+spk5Uz+FR2JZtfAtxse8xPi5a8h490lIn8wHGzPJObmNpR+kOW9TGnb7cs6ctxjWvx9PDxrDnHUn2P72CGPrEivn4dTCdJeXsajAnYbnm9LYdjCdLeszDBVFe3ROKocykxhjrLgaZViOa8OEqZqx7Cp0eIGH/UyYfzXRpvPY69J7umVrGvv2prF5vbFGRG55VfzoOSqWYa0OM+fFV/hgR+5Nv1ijSHk/8+ORneDZnvbN7y0Y++hZl4DmN68392aoef9zTHjzMVhv6fU+Yp9Ozx/hwAGgfWua1ioYf+Hp25oAfzjyw2F+zM+ZfjRt4o0nlnHGnp6VgQAC/L0t27ciVPasBlwgz368ZdsAmtYsmHfNeq1p3QAyjhzmZ7t5d+zgh6VZHj+fzCQDyPxyNv981nqV/JBXWPp1FvxwhMO5hq9GJdrfZZivvSrt6dm3H0//w/qIfo24T3bw+ZtP0jT/Tk/26wF5WZlknoTAgNbUzW/jhndAa0KAA0eyyD15uNg2JWbbl21bE2C3vaniTc3qZR9bc0uE01LZNIm+YVG8uslYUbQad5ngThPuxoqrUYblcEURUe2p/WsG78zNwOwXzJhOxhZX7/i8oXTvNZR5R401InI7cPN9jBenjCHwzBKGvfg6S3cUXK3vetws4dk+QFfMv3Tr9lHRk8B/vMacvt6kvzGQke+tJQPb1fp2ocVhO1kfDl8+THYXUbkVTFvxCsGn0D4wtL+IZfSmfbk1Izr08lIZ7/v7MXhQRwLucfaaJdjfZZqvZbqaf4th1tz3mWN7vDmGwT0C8oOo0/VwuCTMiWv65e4Kr1VGt1849e3DmNgRRPralwUyYNwsElcks2HJHKbGhFvGZfr2YUxsLH+pUQlwp2FsLHGxsUyNDi6Ytnk4MZPmsDw5meXzJhITbhgb6duHuHmxRPr6EDRgLAuWJJM4OrDI5YiImci7C5PYkLyYBeOiCLKvLxU/ImJiSVyRzJqFsYWXy45/5FjLa65I4N1xfUo+JtV3LJEdqpO9I4n4+CS2ZfsQMrDoc+/+4UOZOm+xZd0mDSXCYeysZfsULIfduncaxNRJgwzf5oppbxUychbvjgwG3zDrPkoicdZYIp2N2c1vY92PYT7GFnbLb5nPgPaF24jI9VEz5CVip3SFfevYctRwtb6rqFiNe33qwvkMMg7bjSQ8k0lGxm1wQZRRFT96j32bwU1ySLeeJXSraOlVq9sQ2HOAI3a9hjk/7CRjF3jWupey3mM+f7IDBziSW1B+KnMbaT9AU597qeZ03m5U87mXukDAwzHEvWsXCOe+T9zLT9LUOGKkRPu7DPO9Sm7V78WvFqQfOGx3S7U8sjK2sQXw9qmGR817qVe96DZgeY+Z3CoDP5NzrqDNz0ctPcFg2ZdNmwI7dpJRxnu6OnP7hdNOoUT0fJwuth4+3ygSlyUwJrw1XpWAqvXpMmAiy5MnEtTajzbNmtGgmgmoSu1mzWjWrBltmlmCXu0BCaR/MpHosGa4A+6Nw4iespj0OVEFp7c7hRIS/CCR8YtJjAmnTa0ilqNDLF+uT2DqgM60qWECqtOmzwgSlyUwwDavkvKNYkHqYqYOCsO/Gpj+GEDk+MVsaG3s+w1mzJJU1ozpTrMqZzlx3p1mPcayZmsCA0oQioOGBuPPITYnJAFJzE0/gSmgMxMKTevDgIRU1kwZRI/G7oA7/l0GMXVJMlM7AAQzNXkNiSP7EFTbBJVqERRht+6h3YmI6E6X/Pk5ad9nBIlJSUyw67nt0imUh8NGsiE5lsgOPrhTFf/OfZiQ/7oWtfvM4svkWAZ09IGsE+DzIAOmrWHDlIIvISFTklk+ZRBdGrgDJrxahzNmYRKJZRz+KyKlVNGTwP4TiQu3JgtX7Dmt6EndDp0IJJO4t2azdGsGGf/ZzAdvjGDqf4yNbw9uDboybOpL2K6uyLsIVKlHSJcn4eQC3oxbzJb/ZJCxdQlxE0ayBW96PtQeb6cBshT2zSRuzhLSd2WQsXEBUyZMJoN6hNzflJrG21lZ1fzTY/TuAFtGP87g1xew3rb/JkTS89kFha+sL+H+LvV8r5JbrfZ0CasHSVOI+3AdGbsySF81k/GjP4Uqj9GzfVM8awYQ8rCn8zb5PPGs60dNMoibOZMPNqaRvn4BU6fbtalSj5DHn6NuzhIGDx7JnFWbLes27gl6v253cVUp3RLh1L3dC2Rm7HT+CKtvbO5ocDhB1Q6xrEcwncPC6BzWmYAuI3k1YTHbVo7j8bAwFn17DjjJ5rAwS5vo94BBvPl8IF4nkukXYJ02uDvDUrLx6jSYqQ6hpSoNvX5gxhOtCQgOo++UdPtKi60JxE8eR3e/QAK7WJdjbCrZ1QLoMtTYuHgRo6MI8f6NbbGdCehondeTizF7V3doFzRlJAP+lMfnI8J5sFcU/Z4K58HwaWwzBTJwdLhD28LCGRjogzljDaO2Wkq2zUplH36EDDWM/I+OJaZDdY6vHEnnYMs2DGzbmWGzFrN+KwTNHEtE49/4ZlZ4wfK2COfVuSl87jgnoKC9w/o9kcC+in5EjpyIw/WB3rUwL7Kbb3QK2ab6BEXYljGKqS+FUuO7BB7vEMbjAwbzeJdgnl2TTcOwoYzxtbQZGFofc9o063zC6Bzcmu6jY/m4nA/LEHFNbuDmJJ14BvD0+Lk83QCo4kblIkLGDWXtwXWz9tnVbB/F6Jc7wsbJPN2xLe2DQhmcBAHVLctc6D6ft4qKlQtOyztwo+7DLzH11Y6WsONmKWva9zVWvtyR9Phn6BLUlvYdI5m6sR6931zO1PB6lhP4tnnZn7KuaJne7Q8FRab8dta2FYGKAVxYGsmD7drSvtszzEmHgOjXGPzXepbjyzpPh6PMuyPD3lnE4D9lsfL1Z+hp238f5NC0fTOqFVq3Eu7vMsyXipWhirPtaa+I9XCrR5dR7zO1x4988GJ32rdry4NPvMJKujJ+WSy9W7lZxnI/H8vTTQ47tDnQxNL5ZtumdTs8xrOPuJG3fjKDu93Pg4++wFLbEDvrvqj7yIvEvdwR0mcz7IlQy7q9cQBPn7Jf4FKhXiO/y8bC8mMiGw6GU/tQKp/vPmustKjbnkcDTGybEkjfBCAqgYzRzdhnez4pmUMR7nz+Uh+eTT5hnBqAAQvTGdM+m2WNwxhlKxy6mMxoP/bFt+bxWfatR7AmM4ra26cR8FSC9fUCOZ3Umc6j7eZvXA6nLOtHUjM6jwaIInHHCPz3W+ftVCDvbk7gYVLo23Eo2+xqHp2TSlwn27awtju7mAd7TOK4XbsBC9MZUzut0PT2ao9OYkOUF9tGB9MvqaA8eslOYvwymRHQh3hrWcyynUQ3ziQ+oA8zCppaFb28+aYkcygc6/Yvur1l/c6yLDSMUUdh6vr9RFRL59XAKBbltzJsw6GLyYz2KbQelm0fxtn41jw+qw+J6WNpczKBx3tNY599M5FyLHPfHmNRsfbu3Uvz5s7GxVxbeT9sZv131QgKsRtbZyfn2zTSztQkpIMlxNxUOZls+fIInoEdCcjv7svj1H82s/lADm61/Ahq2xTTyW1sOVz0OpV7F3PI2LiZnEZdCWngZAXPZ5GRlgnNgwq208U8jqSvI+3Iz+RRjboBQbS3XegE5J1MY8uOCzT9a8f8i3aclh1NY30GBPy1PXXdcjiwZTNHvDoS0iSPI//ZScaRHNwatqfLn+rlB968k2ms33GBALv55Ms5TPqXaRzOuQCe9QjoEETTYi/uKeH+Ls18rdszq3ZHuhRzB4pi1+N8Fhlfb+bAqQtQ5V6atu9IgN0FaGA9fr/IIAtP6gUE0apWHge+2EZOU7v9eDGPUz9ksDPjMDkefnQM8CAz/QCV23Yk0Da/i3kc+c9m0r7/ESpaX8vXDbdKFSs4vF4J3RLhtEZaMWFtSjKHwr2KDqe+USz44AVCapkw/3qO04f2s3NrMnNnJOWHEKfh1CEw2bOEn6AzSdTvMq7w6+U3M5b78OjosQzs3JqG1SrlNzPdZeL7UoXTYto4bAvrct5txuw4ShvuNGH61Rjq7AUSl5LAo6ZUJs9M5rR9VYM+vDYogOOLOtN9oiWMT12/nwhT4TBpYVmONofewy/CIeUXcNjWJV0/6+ti3Q/5DNNPSeZQeH3Mvxo3gnXbL2tG57EQMi6JuD5+uGPmbPZJvj+Yxvp5HzAvzfkXGpHywFXDqYjcGsoaTm+J0/pX5WgC/Tq2pvvgScxLTuNEpQY8bBtzamxbSCU87MYuOijl1XBBk+bwRlQgpu0L+Of4oTwe0Bq/gGS+NzYsIZObcXypc2e3v4VfQGvHR4tm1C8ymALh1ouPqgUSM34ib9g/Iv0wXQL/4Bcct99d7jS0f25gustxyMGVFLt+pdz2cILPexi2QUBr6je2BFOALRPDCegSxbNxSWw5eBavFn005lREROQ6UDi12rdpMTPGDqVvWDCd15zA1Lg1Pax15kuGxgDpJ8jGh2bhhvGVnQJo6A7HDyY7ll+Bfx0vTGczWDbyPVavTLX02oZ74WFseKVgRgL7ToKpcSCO98T3YUwT29VY5LdzbxBIhF1pSUQ/HojXrxnMaFE40PkFtKbz4kzwDSXGugD/OnIGqtXiL05vM2VZDnwaEFPoQipnrrB+v/7Av4pM1U5Y92ODp0pw5f3RdD5/bxLDBvThwcBpbDtbFf+OSqciIiLX0m0fTqMXbmBDvN1tjXzDiGnpBb+ezR+HuWjHD5ipT1C8pcfQv30gtVcmsPmgmdqhE3l3gOWnO2uHjWD5lFC8zJl8PsvJRU/F2HcmF9yb0SXaesun5n14d3Agjj8vkMLxM2BqHMwEJ7c6slm0Jp2zdwUwcNlY63r5ERm/gMjmtl/ktZi8Mp2zXsGMyW8HtduHM2HhBjKWFfHLDh1iifiTyXL7KGOd1fGJyWw7W3BT/tVT1rDP7EPI+ATGWJfbP3wsiesXM7UDTF6YSvZdAUTGx1pv8+RD0IBYNqyf4/ROBZNXFr1+2WlFL5dT1v3oH7Egfz+CHyGDYtmQvoF3ewI9Y1mzfjFT8+vBPzoYf3fIPbPfYXYiIiJydW6JcJr7czEB4ax1LKHtVK/h39XrM6DtIKau2M+hg/s5lBLLo9VPsjp2ZEHIiZ/Dov+coXboCBJT9rNm4TiiSWdU9DRWH/Xg4ZEJfHlwP1/OjKINmSwaPZTJtqvZjK9rYyjf9tIkFu2FNkOTOJS5n0OfjKDBjhT2XQLye25PMOrjFI7f6UfkzA0cSk8g0lZl5/i8KIYtyoQWfazrlcSEgDMsWpkJ5HL2oLVhQhR9Z6Vw2tfWbj9fLpxIRJPf2LJyiWGuVmHNqH3JdvuooiTwTuoJ8Gtv6d08Oo3nRi/me1MgA2Zu4NDB/ayZ0gf/X/ezfiuQNJh+s1LJ9Qljwor9HDq4gcSYUExH0i1X6xt7rhOiGDYvndzGduvXyYvTqbPoN9huuYw3RgbLbZAvAZdsY0zTGRU9jkV73QiJsezHQweTWDDsQUzfpvDxSmBlMttOV6dHfv1+1gwNIDctgVdfKt2XEBERESleOb8gCmq3D8Q9Lb2YK6h9CGpflW1pmcYKR76BPNzaC7Iy+Lyoi1x8A3m4tTtnd6awzf7XiqzTmr9PZsteu3Ir/+Z+7Nt7hde38Q3k4dYmTlhP7TtfPz9CejaAIl6vgA9BXQNw/9m2TsVsi+bBPNrQRLZx3QrxI6j9ObYVtY3yFfFazYN5tCH8YBu6YFC7fSitq51l57p0hzsIFMW/UxgNTNnO2/v64U8m+4zr09wP/72ZTl7fsr28zD+wepOTbWR7PfezRS6/SHmiC6JE5Hoq6wVR5T6ciohI2Sicisj1VNZwekuc1hcRERGRW4PCqYiIiIi4DIVTEREREXEZCqciIiIi4jIUTkVERETEZSicioiIiIjL0K2kRERuUzfjVlL/zTptLBKRW1T9OveV6VZSCqciIrepmxFOz507ZywSkVuU1z3VyhROdVpfRERERFyGwqmIiIiIuAyFUxERERFxGQqnIiIiIuIyFE5FRERExGUonIqIiIiIy1A4FRERERGXoXAqIiIiIi5D4VREREREXIbCqYiIiIi4DIVTEREREXEZCqciIuLCzJzec5BcY3E5Zv7pINu/TuWrr7dz8CezsTqf+dhuvvo6la/2HMV80VhrlT+v3Rz7xVh5g/2SS25u4UfRa3g95HJwz2ljYdn8cpTtmbfSkVd+VKjXyO+ysVBERG59mfv2GIuKtXfvXpo3b24sLpVz584Zi4p2OpU3XxzI5PWBzNmzkPD7jA3KmZ+2M3vEQF7dXYMHfCsDFzi65Si+4z5iybB2mPIbHiV5SA+itlnbnT/KV4SyZO40Hqpja2Pm4OIRPDkklZp9utOOdJIXn+aBBauI6+GbP6cb5zTJzzbhn3uCaVLTrvjUAb7Ka8WY6XN5McTDruJKzOT+YsLjbmP5FeyYgdfDsPanGNoZ60rrWs7rNuV1T7UKxrKSUM+piIi4nNMbR9DNbxKn2kXwgLGynMrdmcqpR5bx/Y4NrEhaxYqkDfxn51g8Jv6d2TsK2h1bOIKoX2L4T5q13efprA3dxZPjl5PfJ7hnLsMmXmDMzgzWvj2RCW9b5pU3aiCzS/ed45oxm+HPL861rpv18fW37JvUhDXh40j+yThF0U6vep6GQ+zWV24rCqciIuJyPJpF8kbmBqZGtKI0/W2uzOOhGCaEN3ZcnzoPE9bjNLuP2mLYbpIX7OLFfhHUqWhrZKLdkLE8t2oRKYctJXu+/oTtTz1DeH5PKlDncfo/tZ1Xk1Jv8Kn04tXoMoD+IYv4enspTpFfdKU1kBtN4VRERFyO6b6WtKhhLL0VZXHqENS5xxpZ/3uQ7XuCadm44CQ/ACZfWj6Syle7LSE275fd8AfHJoCl7OPtHDSWuwCTm1vBk9OpzB7Sg25tm9Chx1OMmrvdOq74IIn9ejD4zXTYNo3B4T3oFf4UszPMkLmIqH6LDOt2kMR+L5BkDe3O5bIn6R1G9etBBz/L672adNAQ4HPZ/vYL9Lq/Cf73R1iWx8k439Nfv8Ow8M78yS+QXv1GMD/NPnCb2R7Xg8kbj3IwaRxRDwfQa4Flac3HUkgc/wK9Hg7Aq21neg15h+2l6Em+3SicioiI3CTmtNUsPxXDQ0HWMPrfoyTTlJqFgrknHjXJvzCqsV8kpKTjeAb/KAd316DGachzKL+5Tq+fx/z9A3ighXUdjy1n8IOTOBYykQ+++Ddr3x5Co2/+TqeJqZhpzONvLmTqM4HQ7nmmLlhIwoK36d/cBL+cJnnVacPFcbmcXrWIY8UFvczVzN/jwSOj57I27d+sfTsS3u7OjK9t8TSXjSP+zNNpvry4+N/867N36Hff5wx79XOH2RxLGkjHiUd5YPxHbErbQNxzTdge9SCT7eZzbHcqG6e9wJTjf+aluV+y5KnGQC5ffbiG3HYDiFv2Jd9/8RETWv+bbs8t4pjDK4iNwqmIiMjNkLud2a8uovHUZ3jA0FFamAceNSHPfMHy7KEBjGEcT/d7h+SvU/nq6zXM7jeC0z1G8GfjpDfQv98cSK/wHgWP+5vQcVIWfZdN4qF7AMx89eHLfNVnLBPCW1LDwwOPOu3oP2k6D8SNY/4eMHl44Hk3ULEynh4eeHh4YMof4lAGfpHEjY/kgUY18PDwwKNOKGFhp9m451tL/eHVzF/QijGTYnigjgceHjVo/MhYXgqz61s1p/LR2FT6jptEeAvLfOq0HcAb04N5c+xchy8Je1o/z5xh3WlRx7bcHjw07i2ee6QldTws82/R5VHCNu7mYClGOtxOFE5FRERutF+282bE3/mq60fM6mHXTVoRCnWaAnCaUz+Am6my5ampJS+uyOCNoKMkvTmDNz8+SJ0Rc3mxcR5HjZPeQH9+ZhoJCxaSsGAhcaMfp/E9noSOGEt/W68pWRzLOM3jDwTa3Z0AuKclDzyym92HrtMlUL8cZY81xCe+/Q5J22HPL5bwaT56kI0h3XmgnuMkLdqFFjz571F2nI7ggXaO3yI8WgQTtmcX+UOGgbB2rRzXDSx3H/huO199ncrGpHnMnv85RzlF7s2+/ZeLUjgVERG5kX45SOLwv5MSaryFFHBfYx5gF8cKne+9QO5pu7GpAHf78tDAaSQkrWLF2zGE+XmQe/IoeyIaczNuJgXA3Z6W3kkPD+q0jWRq3POc6jeCxPwxobnk/gQmN2N8qwwVC4YtXEu5G0fwp7YjWH4sF/CgTuuWNLK7LVleXh7cbQ399iralZ3PJQcThRa7IoD5Csu9m/k9WvLkW+mczgNTzca0aOmLp7GZ5FM4FRERuWGOkjS8O4kNPmLJcEMwBajRkgceWsNXewznew+nkrwlknb5PZDOHGXjsnn0DQsuovf1JqgXwXNDdjH5Q9sdBHxp3A527DdcsmU+wO5VNWjZwLLkprtrwsUSjJ3971F2G8scnOarpHm0nDCNCX2688D9wTxwfyCN7TK+Ry1fWnyWzkFDL+ax/akFT+o04c9sZ/d39i3AfHAXyTVa0bi4e/BmpDDz60gmvP084Q8FW5ah5U37+lAuKJyKiIjruWi2/sKQZYxlnu3XhortoXJ1lpvrDz47gjeiGoP9LynlByNfHn/2eVKGDyfR9utEP+0mMXYSueMGEHqPpejg3M50G7WcPbZfmPrpIMkTBzL45ET6P+JKN98y8cAzr/Pntycxfw+ABw/0HUvetGkF60cu29+exOyHxhIeYCmxBMZlpNiHwUYt6c9qUr62TnfxNBvnv8+/7ZpQpzHhrCYlzTZetAY1G9Tg3/sLfmXM/N0iFrxtN02L7vR/aB4zZ6Zw2nZ8HVvOzLcOFLTxCKbvuAvMnLmoYJxo7nZmT3mHh0Y/TouCloXV8OXP7LYLtrls/HAeXzm2EjsKpyIi4mLMbBzfkob169Lw/hdIZg3D7q9Lw/p1afNO8f1kLu27FBYsPgrrR9CpsWV98h9tZ+RfVGMKGcunk7xJ6lUXr3uq4dX4KZJrvsOcYS3ze1obR33E6FqfM/h+b2ubCBIvPcPWFc8XH5SuGxMe9+D8wqX7HuelSfBqYgpmwBQQw5w3vUmOrIv//YH86Z4/M+xgBJvejyT/tq0tBjJrqhuz21fD655q+MftBo9QnksMZsdA63ZpP5yjPccyoEZLTLYNU6Mz0dN8SXrEG697BpJ8Gto9+wkvHRtBw7ad6dWjM09/6Ev4+JbUqGibyJe+szcQdngE/jUD6HB/E/40Pof+05+hRgsTlhtgmWgxbC6zaq7hyfpN6HB/AF7tn+fbx79kzlO2XtAitsF9jzMhsQmfPdqEDj160O3hIRwNGUJ/TIXbCujnS0VEbl8u//Olgjk3Fzw8Cp/+t1OSNjfERdsYzCI4qTfn5sLdxVyNf9FM7i/g4WG/dmYsq2wtczJfzLnk4oHjZE7KjIxtnM3b+Pr2nLYvYM41YypuuW8x+vlSERGRW4ypBKGzJG1uiCsFLSf1pivdJqqiyUkINJQ5m97kJIQ6KzMytnE2b+Pr23PavkB+MOXKbW9nCqciIiIi4jIUTkVERETEZSicioiIiIjLUDgVEREREZehcCoiIiIiLkPhVERERERchsKpiIiIiLiMcn8Tfv9OYTRwNxSas9m5Lp3jhuLroXb7UFrfdYLVmzKNVSIiLk034ReR66msN+Ev5+F0IhsOhtPQWAxwyczxrXN4bsB77DPWXUNT1+8nomoqwzoMZrWxUkTEhSmcisj1VNZwekuc1j+bNo36jZsVPHoNZsambGoED2X2rGBj82vPZKKGsewqPTonlUOZSYwxVoiIiIjcwm6JcFrI3lTio/ux6hDUbtuHR4315UCNu0xwpwnjiAURERGRW9mtGU4BOMH3p88V9Gp2GsG78SMIwY+ImFgSVyQRF2Vr60PQgLG8uzCJDSsSeHdcFEG+DjOzaB5OTGwCa5KTSIwdSoSTs1sR4+bw7khjb20wY+JnMaaTobh5ODGT5rA8OZnl8yYSE+4Hvn0YExvLX2pUAtxpGBtLXGwsU6ML5ukfPpSp8xazIXkxCyY5Xw77ea9ZOIsJAwKpbWwjIiIi4mJu4XAaSPN7q4LZzGmA0Ad5ODSUMcmLmTogFP9qtnbBTE1eQ+LIPgTVNkGlWgT1GUFiUhIT7MJk7QFzSF8ykejuzXDHhFe7Pkz4KJk2dxW0AWjTIZiHO4U6FhJKSGgoIXbFtQckkP7JRKLDmuEOuDfuTPSUxWyYFEybZs1oUM0EVKV2s2Y0a9aMNs38AB8GJKSyZsogejR2B9zxDxvE1CWpLBjgUzDzThPZsGQi0aH1cQdMNVoTEZPAmoT8NC4iIiLikm7JcOrfqQ8TFk7jYV/4PjXB7kIlH2pXTGFYl9YEdAxnWAIEzRxLROPf2BbbmYCOYXQO60zAEwnsq+hH5MiJBAEQzoSoYLzM6UzuEsiDYWF07hjI44vN1Pa2e+ESG8SbzwfidSKZYT2C6RwWRufgQB586S0WJQzm8bAwFn17DjjJ5rAwS330exAdS0yH6hxfORi/YEt5YI+RfH6mOiGDJzLAOvcBT3emoTmdyYGdLdN2CcbviXFMTkoxLIeIiIiIa7klwql7+xEcOrg//7Fmzlgi25k4vnIS/Uen27U8xzcfj2T1UdvzQJ5q7QMn03hn3omCZnunMTftDNRvTQ9foEMwDbzg+NY5zMufFvbFJrAtu+B5iQ19EP+7zHyTbL8scDw5gUWb7Bs6innQD9OvGawemVpQeDSZZzdkgnszOlo7Rs2XgIru1LA/3b83iWXJdusoIiIi4oJuiXB6NiOBYSNH5j+efaoz9f0C6TxyseFep9kcT7B/3gz3qnD2eAbb7IuB1T+fBbyo3Qlo7I4H5ziRYR90AZI5XZa7oni7YyKb7B3GiuJ5uZsg6wdmGCuyznKWqng1tjxdtGgN+y76MWDFfjJ3pLJhyRyNORUREZFy4ZYIp+SdYfXK5PzH52ml6yE0uRVzTfxF238qYSqmWel54F7fWFYCJnfrUAMnLln/3TSJ7m0703foLJZt2s9Z79ZEjtSYUxEREXF9t0Y4LbME9p0EU+NAoh3KfRjTpBb8+gP/WgQk7Of4JRP+7Qc5tMJ3BP7OxpwaA+TQBo69luknyKYqPm2NV/UXMNuCpp1/HTkDtfz4WwfH8pC2DXDnBPvX2ZeeYNu693h15GAe7xjI5LRzuLcIzh+XKiIiIuKKbvNwCpNXpnP2rgAGLhtrvSWTH5HxC4hsbiI7LYl4AJawavs5TH/qx/Jx4fgDNO/Du/P64G+4Wv+bE2egVnueH2o5je4fPpE1kQGY7ButnMSqTDO1O00icXSYJbg2D2fCwmSWTwoEYNGOHzBTn6B4y22t/NsHsnPRl3xv9uHh8bMY0N4H8OHR0YuJC62OOTOFGVsBwohblczySXa3w2o+iI5NqsLP2df117JERERErtYt8fOlpnVRPDjUOB7UYFIyhyJgWeMwRhmqQkYmMKFPILVtQdPpT58GM2HFNCKbV80vyf5PAtvuiuJR9xT6dhxqGbfqG8WCD14gpJY1jl46x77FaZgiQ2FZMzqPtU7sG8aEN8c5zI+fM1k0OpxXN2G5N+qSSQz4U3Vr5SGWNQ4jvk8s84eG0TD/Vlhwdu9iXnlxUv7FVYXWBzCfTGfRxCgmF3PBlYjcXvTzpSJyPZX150vLeTiF2u0DcU9LL0GPoA/+zWHf3qLHo/p3CqOBKZud69INF1LZ8Q3k4dbunN2ZwrajludBVdPZttexWe32obT2NvPDylT2FbucfoT0bADfJ7PFMA9w8npWxvk71TyYRxu6c7aoeYvIbU3hVESup9s2nIqISNkonIrI9VTWcHrbjzkVEREREdehcCoiIiIiLkPhVERERERchsKpiIiIiLgMhVMRERERcRkKpyIiIiLiMhRORURERMRlKJyKiIiIiMtQOBURERERl6FwKiIiIiIuQ+FURERERFyGwqmIiIiIuAyFUxERERFxGQqnIiIiIuIyKtRr5HfZWCgiIre+zH17jEXF2rt3L82bNzcWl8p/s04bi0TkFlW/zn0VjGUloXAqInKbuhnhVERuH26VKpYpnOq0voiIiIi4DIVTEREREXEZCqciIiIi4jIUTkVERETEZSicioiIiIjLUDgVEREREZehcCoiIiIiLkPhVERERERchsKpiIiIiLgMhVMRERERcRkKpyIiIiLiMhRORUTEJeWdySR9y2a2bEnjwJk8Y3W5VdL1yjuawZYtm9my6zB5F421VucPk7FlM1u2bCb92xyKntuNVbCOm8k4WvrlytmXwami1tkq72gGR3KMpTdX3tE0DpwxlhbhTCYZR4vYMudzyMlx8jhvbGjlcBxkFTpeSrZceRzZdbjU++p6qFCvkd9lY6GIiNz6MvftMRYVa+/evTRv3txYfO2dSSNuSCSjMmoSUq8ycIEjG49Qd+JyVv6zPW7G9uVFidfrMCsHdqb319Z2546wha6s/Ogtuvja2uSRER9J7xczqPmPx3isKRxY+SkfnOnI0vXv0zO/3Q12ZjNT+z3D+PUQ+FBdKgMXDm8mnceI+2gug//kaZzCiTSmVrofvrrIqEBjnU0WS5/0YWXPEyz9m7ex8qZJf70iD/I1eS+3N1bZyeHAx68wKHI26a86a2tZt38e6IjfvYaqP73E0oldyd+K5zP5YEQEr87/mWohfnhXBH7MZMtPfgx7+32m9qgH1uWKyFrDrrftpjXI2ziSJt0O88bhT+hdy1hbNm6VKlYwlpWEek5FRMSl5OzYRFbP1WRlfs36tSmsX/s1B757Dc9xjxOXbmxdfpR0vY7Mf4He50dzYI+13Vd7+LLLN/QctYRTtkb7FjD0RRj13Xd8OTeWYTGxzPnqOzKG/UjvIQs4UjC7G+fMOoa1CWVdq7c4+ut3fLk2hfVrU/gy8zxH32zNlpXbcLGOzhsvL4M5jzXn4aXedO1vrHQUNGqR9Tixe9gHUzKI69qCV/Ne5PPTJ8jYYG2z8wRZa54kb+lmDtjN79R745iTXlS/aAZzJswsOL5uMoVTERFxKZ5dxjD1b36OPTy+3egZnkXGkSz70nKlZOuVwco5Oxk1qA91K9oauREYM5FhSQtY94Ol5NSBbaSH96KroYe0aZc+9FyfdVNCRsaH45jTYREfTuxKzfxlB3CjZpcxjj1+tyu3uoSM+opdn46ho4+xsnRyVs1mVN4Ylr3dj6aGDevZqh9xS/rR1K4spMu9vBv3qdNjI2fVbN6s1pUQY8VNonAqIiLlQBZZ30Pde261eGNYr5OZpO3qSEBTw+AFt7oE9NjMlgxLiK3ZsDUB3//Ij46tyPtuJ9tauWEylF9/GayflcHgv3elrrGqkBwyPp7JsCdDCajjQ0DnJxj1cWbhsY4Xc0if8QxdWvvg2zqUwTPSStDzmseBVZMZ3LkFvnVa0GXgTLYU830mb+tkuoxbx5FvlzDqyftp2nl2fm9jztbZDHvyfppWasSDT45k6T7Dq59JI26gdR0ee4E5W6+8dOBJ08B61yCkZ7Fl5QIC/t6LwCrGOuc8+77MG4zgzY2GLZ2XxpxJPzLhpT7XYLmuDYVTERFxeXlbV7D01Bi63F9uR5w6VWi9ThxmJX7cW2gYZTU8vSm40KXVc8zquYLeT85k5a7D5OQcJmPVZHoP2cmz7zxHgGHq6+5kJhlZAdT1KUG82beCORme9By/iC2797Jlbj+YHsrULY6had2ogaxr+CIfbt7LrpVjqPv147QavblwiM2XR8YbD/HwSm8GL97O0WPbWToA4jq+wPoiLgbKPbGTLetfZ/D4w7QftYi0Fc/RFDiVFEmrUVl0mbqRA799x+fjg0gbHEbcLuuEZ9YxrM3jbGk4hpW797Ll3WfxXj+QkesNL3A1Dixm1KONcKtUEbdKjeg5egkH8i+IOsKBRGjf8MpfBQrUpfeol9jy1mKHYR9HPn6dlT1fpncju8KbTOFURERcW04acaMW0PTN5wi5lbJpqdbLk2rekJd3wfrcjSYhvQjYO5JRzz9D7z7P8PSQV8hq/yRdmlxxZtdJPbyrG8uc8O/HnCn9CGnijaenJ56+XXmsZxbrd9mPkARzz5cZ38OPmp6eePp2ZNT012g9YyZLrUMbCjn5KVPHNWPWtH4EVHcD3PAMfInxA/7FB18U0326qw3D5o6hZ6t6eFYBSCPhxUxefOc1uvhatqVbk8cYP7wZbyanAXDks9nMCXiNuH92pK6nJ57efvSc+DKPFZ2cS23b1hzaT9tOzm8XyfnufdofGMHDQxxPy3tXL8GXAXut+jHedwpxn1l7ec9vZs7Ueowf5FoXGiqcioiI6zqfxtTuj7MlbDlzwgt1J5ZfRa1XRahp3y5fFj9+D25ulQHI+89kegzL4umUixz4ynIhTMax8yx9aDM9us8kwzj59XanG258ypETxooi5N/66FM+mDGTJemQcd4x2fW839D/26ANIa3WUdSw47zMnax8yBv2Wm6pZHscOV+Nld8Xc4lYeBCt7U+N/7CfLVltcPvZcT4ZWXBq72FOkceRA+sI6dHRMIQhgKAwh4Iy8qbL2K/5csVr9GziiRvgZgvnibOt447dwJsyjMH2pMuw0RwZP5v0PMiYP45tg/vRpSRfKm4ghVMREXFN5zP5YMjjrOtivNVSOVfcetXyoyM7OXzUvhDgAjmnCsam7lr/CpUHP0sXh7zuRt2+0USlL2aL7fTzjeJdj4BWsGXvYWNNITnrX6BpsxdYejQH8KTun1rTtES3LvLA0wvyLjjvnswzOy/3fHAMX/69FAMdzuc4H9va5EnWj+1KTfLIOw+ezg5IhwvBys7Tvz11jWNJGzSjPZvJOgNQl4AesDLDyVjdK2nQh9E9V/Bm/Ew+mPMXJvQvxba5QRRORUTEBR1m6ZBQEhouZ9XLt1AwvdJ6eQcQ0uVTtmQY4tEPm1m5sR/tAwqmyDmf69Dk5gqg5/Nd2TIngfSibhR/EcuFPB/PJmDKW0z9x2OEhHQkJCSo0NXmAGkHDEH3TAZpGwPw9iq01QDw9KlLwMY8PNt3tM634BFoPT1fIr5+tOcwbrULzyfE3xPwxLthACt3HDAEw8NkbnUouLbO/MgROlqHTngSEj6GmjNms7LQFxmrIn/EwI3Ap2Ng9EiOjHqWEGMIdgH5N+FvH/hnY52IiLiwtPR/G4tKxWVvwm+7Cf2ZF0mba39LJaCip3VcYHlUsvXK2ziSJv1+ZMK6t3na3xPOZPDBiDASmibz+T8DcAPy0icT8kQmg9e8zdOtrMnuYg7psyJ5cGVH0r566cZfFMVhlkY9wD9P9mHCxGctYzjd8sg5msHKd8bx6pnn+HfCYxx53YeI83PZNcVya6m8b2fzdIsXWJl/Q3rLTfjfbdCPN9a/T29f4GIW6yc8Ts9d/Tiwuh91gYw3fGifMY0DS560nl7PYmVUW970mcuyV223s8rj1JbFrKvci6cDCyfgUx8/ge/KXhxd8qTdcArLhVU9DvTj8zcLbtOUs+tTlp4IYPAj9eCHBfT0W0DA6uWMt3ZfH0l8hi6jF3BkkLMb6xfIy7H8YlbajOr0ZA1ZMUGW8bG2rtgznzL4gcXUnfoyUX8NoGYVyDuTwdIRYbzK2/w74THrsuaR/vpDPPjRvUx98zWevN/P0jYrky2JrzBsVmuWHhtDgPUm/G82dPzBgpx9meBvd2uzk0voXW8FPV3gJvz6hSgRkduUy4bTb2fTpcULbDGWA3i/Rpr1D265U+L1yuPAx68wbITtNkj16BLzFnFTHG/TlLN1JsOen8nSfbZxh940/dtLvPfmSwTetDGEOaTHv8KUd2az3nbhkrcfXfqOYeo/n7QEvfMZzBn4BMMyahJSG9xavczT3uMYenEeR/8ZYLm5fLsw8qYk4zn/CaYccKPyvkwIj+XDt+3W7eQ6RkUNJG5LFjUn7rBMez6Tpa+PZPyMdeDvx4V9P1OtmG2S89kLeC/vyNH8wJdfQ/qMIQyatYSf7/GzvH6Xlxg/7TV6Wy84y9k6k8EDRrISP5r+kkfTf37C4PNhjHJLJm1oEUdokcfAkyw9toie1uyYs28JU8dOZslnmdYLoOrRJeY1pr78JE0dvpzlcWDVTKaOn213HNQj8B/PMmHiS4RY55f+ekXebXqCD4obt52zjmE11tHl9Ft0KZzjy0ThVERESsVlw6nky8vJAU/LRTFFysshJw/crtTuRjufQ85Fux5Bo7wccvB0Pnbzot34zeLaAXk5ebgVqswjJyevZNvE/rWcyMvJgSqeuBXRpkT7qMxKsR55OeTkFbG9r7CO+UraroQUTkVEpFQUTkXkeiprONUFUSIiIiLiMhRORURERMRlKJyKiIiIiMtQOBURERERl6FwKiIiIiIuQ+FURERERFyGwqmIiIiIuAyFUxERERFxGQqnIiIiIuIyFE5FRERExGUonIqIiIiIy1A4FRERERGXoXAqIiIiIi5D4VREREREXIbCqYiIiIi4DIVTEREREXEZCqciIiIi4jIUTkVERETEZSicioiIiIjLUDgVEREREZehcCoiIiIiLkPhVERERERchsKpiIiIiLgMhVMRERERcRkKpyIiIiLiMhRORURERMRlKJyKiIiIiMu4pcJp7fahPDpoLHGThhLZMxh/Y4NbRfNgQpobC0VERETKvwr1GvldNhaWN7XDRjA1pg9BtUyOFZfMHN++mFefmsYWx5pyrA+J6WMJujOdGW2jiDdWi4iUUOa+PcaiYu3du5fmzfXNWERKxq1SxQrGspIo/z2nnSYyf0oUQdWz2fLeOPqGNqN+42Y8+NQ44jedxKN9FGPGGycqxugkDh1MZUFPY4WrSGVzWib7tqay2lglIiIiUs6V857TQOJSEnjU+xDLhoYxapOxHmo394O9mRw3VhRlSjKHwr3YNiWQvgnGShGRW4d6TkXkeiprz2n5Dqc955AeGwyp4wgckGSsdcKHoIhwenQIwL+BF+asNNbP+4B5aSeAYKInhdGocXseDajK96kp7P8/4EwGM2IXW8OtH5HjBtOldQPcz//ANylzeHVRpuNLNA8n5qkwQpq5c/aHnayfO4nv289iYON0Xh1pmw+WZRnwNE8Ft6ZBlbP8sDOVhQsT2Ha0oD4ydix/ypjEjEOhDBgQStCdO3k1ahqm6Il0IYVR8an5c/PvNIiILq3xb+aD6f/2s2VVAjOSnCxb71CCAnww/d8PfJO6mHnz0kse3EXklqJwKiLXU1nDafk+rR/ogxfn+D6tJME0kLiUDSROGkSX1l6YAK8WfRizMInEKAA/mgc0o5l3VcBEDd9mNGvWjGat/WgN0GkEy7cmMaGHH+7nT3C2ih89xiSRnhBFbesr1B4wh/QlE4nu3gx3THi17M6EJck83609IZ1CeTh/WYKZmryGxJF9CKptgkq1COozgsSkJCZ0srUJpUunYEKemsPyhBFEBPjkT92lezgR3UPzn0cvTGfNnKFEPFgfd8BUN5ToKYvZMCkwvw2dJrJhyUSiQ61tarQmIiaBNQlRBW1EREREbrJyHU4H1PICzJjPGGucSWfunEmM6tWMgOAwOoeF8WDgOLZkV6VN16HAezwbFkbnrSeBc+xbbGnT+clxrCaQqSOjaPNbCsPCO9P9qcH07dWZ7jPSMXWIYkI4QDgTooLx+jWdyV0CeTAsjM4dA3lwVjb+zas6LEnQzLFENP6NbbGdCegYRuewzgQ8kcC+in5EjpxIkF1b9/pefP9OOH5tg+kcNY1tdnU2q5fFMuqpzvgFdrYsc3B3FmWaaNihT/68BjzdmYbmdCbb2nQJxu+JcUxOSjHMTUREROTmKdfh1HwJwITJMfsVaV/SYpbttS9J4vQ5MLlXty8srEMfgurDvk3TWJ1/2h2Oz0tl39nqNAgOhJ6h+HvB8S/HMc+hzRy2nSx4DoE81doHTqbxzrwTBcV7pzE37QzUb00PX7vmhzYwKt5wet7geHISy9Ls5sUJjueeg6ru+bfTMl8CKrpTw/6M3N4kliXbTyciIiJyc5XrcLroZDZQCdMfjTXO1Q4bwYIVG8jI2Emm9eEQBIvS2B0PwD9iTf50lscLtLkbPNwbQDUTJs5xItMY9tL5z/Fzds+b4V4Vzh7PKNQLuvrns4AXtfNP7cPZ04euPCa0eR/iliSTvqNg2WLaOSb2RYvWsO+iHwNW7CdzRyoblsxhwoDA/CEJIiIiIq6gfF8Q1WEWXyaEUuM/s/B78j1jraMOE9kwJ5zaJ5N5Z04q+75PZstemLp+PxEkUb/LOEs7Z1frRyWQMboZ+2ID6TvPfqZ2IhPIGBfI6WXN6DzWvsKHuJQNPFotnclto5hHFIk7RtDm0Hv4Rcyyb1jw2hMD6bvI0s5//zQCnnK8bYDjMkeRmD6CoIvpLJqTxL++y+DztBMMWJjOmGb7ra9p40NQ10fo0rE1/u1a06ZWVc5unUZAlG5LIHI7uhkXRP0367SxSERuUfXr3FemC6LKdzjFhzGr1jDA7ze2xYbT1/40uZV/eDgNdiSxupM1YDrcIiqcBVsnEnLOLpxOSuZQhPFWUiNYkxlFja3F3RVgEMszhtImO5l+oSMLbvrfKZYv48Oo/YstnMKYVfsZ4JvBjIA+djfR92HMijUMqJ9pLS9pOJ3IhoPhkNSMzqML5jVh1QYiaxW8pjPOA6yI3C5uRjg9d87+TJKI3Mq87qlWpnBark/rwwkmx37ANz9XJSgmiQ3zxhLdM4xHe4bx6KCJJK5PZ82UsQz8G3Awm1yq4t95kHUcph+R8YMI8jLMct1+jlMV/+5jiWgOtdsH4s80VqWdwyt4JMvHhVun9yEoYiyJm9NZPhLgPd5Zdwizbxjvbl7Mu7GxxM1azJczH4Qsxw/jySvTOXtXAAOXWV7DsiwLiGxuIjstqZS/+nSCs79Cw7axPOoL4MOjo2Pp0ti+TRhxq5JZPimKINswhuaD6NikKvyczT77piIiIiI3UTnvObXy7UPcm4N52K86pjvtyn8+xJaVc3h1SjLHgZBxScT18cPd2sZ8MInPL4Xz6J1J1A+z9pziQ+SsBYzp6oPlx1DPWU+z+xEdP42BnernT88lM2d/SGFG9EgWWS+C8o+MZerAB2noXgnz2UNsmTuWvaEfFOqhDBmZwIQ+gdS+q2Bex7fO4bkB71nDouVnSv33TyIgarG1kcXUZGvPqXWZaw+Yw0fPB1vmdQn4v3QWZTYgssUPvBoYxSJnrweYT6azaGIUk538eIGI3PrUcyoi11NZe05vjXBqx79TGA3czWTvTLG7ob09H4K6BmA6bhlzim8gQVXT2eZwFT+AHyE9G4B1bKo9/05hNDBls3NdSW5gbx1zWjGFvh2HFroIqth5NffDf29miXs2/TuF4fOrZcwp+BHU/hzbHK7iB5oH82hDd846WS8Rub0onIrI9aRw6gIGzEsmgjTmxU2y3rLKcor9tagAcpOjePCldOMkIiI3jcKpiFxPZQ2n5XzMqWv5/uAJCOjD1BX7ObRnJ5mZG4iLCoC9i3lVwVRERETkitRzeh3Ubh9Ka2/LiFVzlu00u4iIa1HPqYhcT2XtOVU4FRG5TSmcisj1VNZwqtP6IiIiIuIyFE5FRERExGUonIqIiIiIy1A4FRERERGXoQuiRERuU65+QZT5p4Pszswij8rU9GtJ43ssd0Ep70q6XuZju/n3sRzw8OXPfr6YKtpX5pKbZ/fcgRseHs7neV39kkvuRWMhuHl4WH9xsQi5R9nzf560qOdhrAHAfGw7R+9uR+N7jDX2zBzbk0XNFr5Fv5bTbVb0tjLn5lK4uQdFNHfevsj5m8n9bje7T10AN29atmhc5Hyd+ukge37xpUWdIia6aOZYZjpHc8GzTmDR7eyWw61mK1o2cr6vij0W8xvlcnDPLk7lFRzXZb0gSuFUROQ25bLh9KftzB4xkFd31+AB38rABY5uOYrvuI9YMqyd0z+e5UKJ1+soyUN6ELXN2u78Ub4ilCVzp/FQHUuL3I2TiHp3e8G8bU4d4KvMZ1j7UwztjHXX1WmSn23CP/cE06SmXfGpA3yV14ox0+fyYoiz8Gnmq4kt6bU4ghU7JvLA3cZ62D69Gk+fWsa/poXibA4A5i3jaBN+lNf2LCT8PmMtzpfvYhbffn0Q/B4neurrPHd/DbvmaxjsN5w99zelpi2InTrAV5nQOHwIUyc9zwN2zZ22B07tTyWv5VjiZsfwgDVc56a9w7Dnx7H7nmB8q2DZv8d8GbNoGS+2vdLRncvBpEkMe2Ye20dvIHu4k718bA3Dej3FV9b55x1NhYeWMWdqKNbDx9ouhVeHPM/yn5patsmpA3yV9zBxS6bRt5FtOa58LAKYd8zgycj3OdXYsv6n9h+gzgufsHHsgwqnIiJScq4aTnM3zmBmbndeCm9cEEaOLSeq9cu0/PxbXmzr2L68cL5ei4hqPclhvY4tjOBPW7rzn/cjqVMRwMz26d3ptv8Z9i14HPtM5CiX5CF1mdn4SzYNaWmsvM5Ok9SvCcmPfEtCuOMSnl4/jt59c3np4FuEGXs/Dy/iyW678Q1bzdHWG1jSx9fQwBJOu01pyZjPNxQR3nYz++EHeXVHd+YUE06dL5+Z01+/w9CB7+MxaQNzwq2v/9/lRLVYTZhxfubTfPXu8wx+z4PXPp9LuC2gFdX+4mk2TnqCJ38azvdvd8eDXDZOn07uI8MJ9yuI2seWPcWfXm3F2sxivlSYdzO/3xPM5BkG1JjE5FrOwulREv8WwMYeGSTYtuUv23mzV2d2P2O37ubdvPnoE3zbfwNzIgq2eW7GPGYeDGWCtaxEx+IvqbzadhymuasZc791nY4tZ/DDb5N0eneZwqnGnIqIiEvxeCiGCfYBDqBOMGE9TrP76Gn70nLF+Xo9bFiv3SQv2MWL/SKsYQDARLshY3lu1SJSDhdMamTeMY+ZGwcwps+NDqbFq9FlAP1DFvH19lxjFXuS53HquUimPjWEU++voaivSw88VJN5s9fgbO/nfjaPeM9QHjBWlIiJGvfH8EFCJAefGUFiMdsXAFMNHhi2iA+eOsjgEYs4Zqw3qliDh/4xgAcWp2JZfQ8eGj7RIZgC1Ln/UcJO7+LYfx2KHZl8eeDFDfwrMYb7axkrrfasYf7uGPrZQjbA3e14bvTzJC/+PH95TydPZ3Lj6bxhF0wBPAIG5AfTkh6LuV+tYXbLAfzdFkwB6jzOmNGeBc9LSeFURERcn/kA325rSbvGRfcblk9ZnDoEde6x/mH/70G27wmmZWNDD6HJl5aPpPLVbmfxDMtp69mTcHshkoeMvZMuwuTm5lhgTmXN7Jr0D2sJLbrTv+bbrPna7NjGyiNiBK/xMvFbDPXm7SyYlsWYIRFFnvIvCVP7SPqHpLBx+1FjlRMm2vUewAMbU9h+xXRq44bJsPr2zIcO8O8Wf6ax015fGw8at/Utdj1PH/w3e0Ja0cR4+NRvRdiWVCyHTy6709YQ/lBgsfMq6bF4cO88agS1chwyANRpbOzVLTmFUxERcU2/5JKbe5qDO9bwZr8X2DFoOv1bGBuVb+a01Sw/FcNDQdYA8N+jJNOUmoUyuCceNcHs5IIjAPOORcRvG8BLEa7Vawpwev085u8fwAMtHENO7sblvPlQJGH1AHwJe+ph3nx7WRG9kb6EvziEr951rD+WNI01YSN4vL5dYZn40rgtJB8rKvwb1GtKW9ZwxeYXT7Pxw3l82y+YloaMZ87NJff0QbZ/NoOnh21nwPSBXO3hffTwGmjgXXjoh4cHNTFbj5+jHNwOTWp5cDBpHL38quF1TzX87x/I7DS73u0SHYunObYf/lzb29gI7lbPqYiI3FJy2TjzKaL6DWTUy+OY/I0vLWoX289T/uRuZ/ari2g89RkecDaU0oEHHjUhz3zBWAEcZfm0SdQc/fxN7zX995sD6RXeo+BxfxM6Tsqi77JJhmXbTeK0z3nxb53ze+88HopkzKl5JBd1br9FJGPqzGD2emuA+iWV+TN9GRN1jS6S+4OxoHiVjQWkM/NZu3UP70GHFg/w6n8jWTrecDFXbgoz+j1F1LMjePXVSeyu1ZI61/Pw9vCkJnnkmQHMmPfA0Y/HMuV4KHMyfib7VBafjvYk+ZEnmF3U9s9X3LFo5x4ngbWEFE5FRMQFefDQuFWsSFrFis8zyP46Bs/3u/OqLZiUd79s582Iv/NV14+Y1cOua6oihXu9ADjNqR/AzVQ4Epm3zGPy7ud5zn6c4U3y52emkbBgIQkLFhI3+nEa3+NJ6Iix9Df0mpq/Xk08Q+h+v125qR3hz9QkfmUqRZzc56HnYjg6dR7bzbBn4SS2979WwxjM5J03lhXDfIEcYxmBPDfVsu4JC95idHhjat7zMKPHDqCF8S4EHqGMSbIc32t3/My/Rngy/9GxbPzJ0K6U3Co6P3o4ncW3uOFmAjBBDUg81ITRw4KpYQIqmmj8yCRGDztK/Be7LdOU8Fg0FfXN4HRJhkg4p3AqIiKu755gwvsHMv+Lf1Pu4+kvB0kc/ndSQo23kALua8wD7OJYoXPbF8g9bTc2Nd9Rlr/7Di3HDXB6G6Yb7m5PPDw88PDwoE7bSKbGPc+pfsYLjXJJ+XgGp/eMo9M9llPKtsefhqRwOm4eyUVdGFQvgpfCVjP7/XdInB/I6Keu1TCGb9mzBfo3b2yscO7gbr5iAC0aORa7Wdfdw8OXdn2mEfdMFlEluHDK4/7H6d9uHhudXDRWGjXrBcPuo4Vf75ccTuNLjXsAvGkUAgS1wnFtTTRpFsjpb49aLjwr0bFYA98mNUg+WDiImnMKx/eSUjgVEZFyIfenwn8Ay5+jJA3vTmKDj1gy3Mnp6BoteeChNXy1xxBSDqeSvCWSdsYeyC3zmLw7xiV6TZ2qF8FzQ3Yx+UO73tA9i5i98XmWZB7h+0PGx7csGZJOfJK1964QE+36DIHx4zj60rUL5MeWTefVUzE80tEY/p05StKb4zg1rDsPXKF5nfDneW73JOYbL+QqJJdThUJg6dVoGcxDn6Wy29ADe2zbGr7q82fruNcatHwgFLYdKBRijx5Op0YTX0uPaQmPxcZtI6nxebrhTgtm/v3VMoeS0lA4FRERF5JL8pAm9Bq7iP9v7+7ja67/P44/dsFWZPN1sYmMkiwXTdH4MTZfRE0UCX2VqwqRuZgQIcpKmBSKUHKRkrkowtdmUyZ9v81VE4qJbCvfNhc5Yxe/P87Zds5n52xnQgfP++12bt/veb9f53M+n3M+2vO8P+/P57P7eKYl0GSRuW8p776dSv9/Plj8GcYuzXxB84FnInmjb13IzCQz/3E+vyaAboOGsGXUKJYlW0LB6b0se3MqmRMG0M4wb/ODae/w4FRn5qz+XbwIee41HpwzlQ/2AWSREDMH0+AnaFs1f5TR+lGVtl2Hwtx1JDjKc7d3I3rHLubbuSZqic5nFH7mmZmkH45n2fjOdJyYybilkUU+R5P1d5SZzqEdS5nYuT2vnB7PkhGtiv64MCrXihemBjN32gJzeDu9nojAzkxcvpvjmZYNzMpk30dzeDdtAG2bFr93Z+WvywXgQv62WH1QtbszeOhXvDR+KYcsu0/mvqW8PiWDcf0L5/fW7BzJuHNTef2jvQV39UrfOpWJ0+5jXOf80Wjn9kWvlr0Z5zeBl6ZsIT0bIIv0rdOZtryVZTmlp3AqIiIuxIfwqevp57ubiY/XokalilSp5E+dvuvxm7qeyR2K/+Pt0g5vYdHyFNgUSZu6tahzp9WjyYyCkSev0PGsmerP6sdrmQ93132aDX7vMD+ikW0YStrCu1njGRxuf2bgteWFTyXs39by9m6MmAoTl20h63w8X0TfZ758lCMNO9G/0Qy+sEqnxuX6BBquF1vOBz/88HE4kuqFT9WqbBgebPO5dxwyg92+A1iTuNb2Av/lfPCrup6IltbfU3siZu3G97n1fLN2JE2t36ucD354FVlPgKpdRzGZCSzbmgWVOjH58wH47nyZx+70N3+/t9eizxf+vLrOeNKYweGF9LSsS89oILq7Zb2GsKHgqgFehESu59VKn/HYneapEnX6rsdv1gKGB1lvX1OGL/+YRnFPU8fPXBc2KYWu/17AU7ULy5zbFwN4au5mwo9GUt/P/O81bFIKXVe9U7igUtIdokREblKueocoG+czycSnmNBxY8vKzITi7k2fbT5xxSWUtC75/SXVGTlb72zd1VLc+zvoy8rMhHI+dkPtX5adReZ58PFxuPeYZWWSafIusa7EfRHLsrIL/71WqVRRd4gSEZEbTLmbN5gCeJUUBq5GqLlcJa1Lfn9JdUbO1jtbd7UU9/4O+rx8rlIwBfD0KjFwAuDl41RdifsilmVdgX+vCqciIiIi4jIUTkVERETEZSicioiIiIjLUDgVEREREZehcCoiIiIiLkPhVERERERchsKpiIiIiLgMhVMRERERcRkKpyIiIiLiMhRORURERMRlKJyKiIiIiMtQOBURERERl6FwKiIiIiIuQ+FURERERFyGwqmIiIiIuIzrPJzWoHnHdjQPMLYXdUezdjzaJtDYLCIiIiIu5DoPp88zefZsFr0dyR3GLhtdmTxjNtFThvGosUtEREREXMZ1Hk7NvAI7MbmrsbVQ82l9Ca0CeHlR1dgpIiIiIi7jhgin5FQm9NkpNDe2A/A8IzveSVaWsV1EREREXM0NEU6PfB3Pb3eGM/IFYw+Ezu7K/SQR9/1ZYxc0aMULE95k0YoNbP58MdEju1Lfur9NJPPejSSUQLqPfJNln68mum9hd/2uw4hauJzNG5azaOowujewem1AMN1HTmHeR6vN/RP6Fp0bGxDMgAmzWfb5BjavmE+U8f1FREREbjI3RDjlt6msSoL7u80m1Lo9IJKRbWrwy7bZ/Me6HeCFxSR9Pp+R3Vtz123ArXfx0IApfLbBagS2XWseateOcRuWEzWgHfUr5nfUYMDieNZPe57OdSsAFajf4XmiVmwgqgXQ4k22b1pM1ID23F/VC6jM/b0iWbZqMQPyFxHQl2WrFjOua2OqlAVuu5MOxvcXERERucncGOGUE8yYH88v1VsxcmyNgtbuYztRP2sXS0fssqkGYMNqXh/fl9YNg2kdHk77Dq1ovzwZr7rBPN3CurAGd3huIaJDY4LCuhKxGHjhTUa2qMwvMaNp3yqc9uHhBDdpT8Ts5Wz6Gvh6Me++PoFOgcEEdwinfXh7gsbH81vFIDoMsyx2YFeaV/yZVZ1b0T7cUtNhNBMXL2en9duLiIiI3ERukHAKbBvG0sSL1A8fT3eAgPH0bl2ZA2snsNBYC5CygVWrdvGLVdMvJ85wBh8q1LVq5Cz//WQ061IKW0a2DsTrzyTWjd5g9foTrFu4nDgAklm1dDUHCl8Cq38jEy8q+Fue5wBUwKdhYZgmZQOrVicXPhcRERG5ydw44RRYOGE9B/7RigHTghkwpRP1/xfP0iknjGUWgfR+czmb43eRnPS9+TEimArGMn7jl8W2LVUqeMEfv/GNbbOVGjw6dj7rY62WnRROHeuSBauJO3kbD83cTHLSLrbbm/MqIiIicpO5ocIpKVNZuv136rR7myHNyvLfVVNZZayxGLB4CZM71eC3LbN5aexA2gc1JnDmLs4YCx25tYJt2LTSfOp83ugbjNfuRbw0aRjdghoTGLSBI9ZFKYvpF9aYTgOnsnBDIifK2pnzKiIiInKTubHCKbBq2mr+63kbFU7G885sR6OmUKfabZCynaemLGfdRvPh/TtqVLAzclrUN8d+h4rV+b82xh6z+jWr4HUmiVWj32NdTLz58H7XKvgYC4ED25YzY/wwngpvRfv1J/Cq25jOxiIRERGRm8QNF05Jmc3wgcPoN3SYZf6nfb/8kQUBwUSHm+d83hEeyawOzt3edN209RzIqkHopMWMs7y+ftfxLNu0nKgWcOD3TKhwLx1esCyvQS/mDQymitUyXvhoM5vftbr8VEA4IxtVgT/P2MyDFREREbmZ3BjhNMf26S+JW4jbb9sGwNkzBScpvTvmbeJSq/DozM38nPwD26d3ImtTPL8BZFuKDMstkDKdwWOXc8QrmAEzN/PzoR9YP60X9f/8gU1fw84RU1m6H+4ftpqfk3/g508jueu7LRzIKVzmuk1J0OR5oj7/gZ8P/cDPW97k0conWffmaN41vp+IiIjITcKt9t2BecbG68kdDQJhf3LJo40BwTS/bRc7jaG1QSsevSOL7y2H9us3C+ZMYv5Z/DWo3wAO7Hc8PYAGrXi0DvyUf/jeWkAwDzX24oSl745mwVRI3GVbFxDMQ42rQGoSXyUW8z4iIldY8oF9xqZi7d+/nwYNrO82Unpnz9q5IYqI3JCqVKroZmxz5GhAgPet4OuXkpJ63YdTERG5PAqnInI1ORNOT9Wo0SAvL+958vL+hZvbpttPnux5YxzWFxEREZHrwu81alQ/Wb36s79Wr74mNzf3P8AQ3Nx8yctr+Uv16o0UTkVERETkqjtZrVrIr7ffPi0rN/dLN3gf6OLm5la2oMDNrYYndFQ4FREREZGrIg88f6levdvJ22/f6ObuHo+b2xg3N7dGxjoA8vJO5Lq5nVY4FREREZErKnffXk5Wrz459fbbv/GAT93c3DoYazCH17N58AnwTF5eXuPqJ04s1AlRIiI3KZ0QJSJXUt65c+TFx5O3I8H8yMgwlhTKy9sDfJmXl/dl9VOndlh3KZyKiNykFE5F5ErIS04m7+sd5CbEk/f998buQnl5WcCX7u7uX16EjTVPnDhpLEHhVETk5vV3hNNfU9ONTSJyPcrKwmPnN7jv/Br3r7/G7fTvxooCeZDsDl/m5OVtrPHrr/829hspnIqI3KT+jnAqIte3nMOHuBQby8W4WLJ37jR2F3Jzg9zcL3Jho0dOzpfV0tKOGkscUTgVEblJKZyKiFNycwsC6aXYWHJPOr6jpUfNADzDwigbGsZt7duWeBF+exRORURuUgqnIlKc3JRjXIyN5VLsNi7Fxxu7bXi2bEnZ0DDKhIXhceddAHiX9VQ4FRER5ymciog9l+LjuRQXy6W4OHKO/mzsLuDmX42yYeZAWjasDXh62vQrnIqISKkonIpIvtxfT3IxNpbsuDguxsVCdraxpIDngw9SJqwNZcPa4HHPPcbuAgqnIiJSKgqnInIpMZHs7XFc3PZvcg4dMnYXcKtcueCwvWfrUNzLlTOWFKFwKiIipaJwKnJzyk1PNwfS2FguxcWSd+GCsaSAZ+PGlAkNo0xoGJ6N7N911BGFUxERKRWFU5GbS85//2s5434b2fv3G7sLuFeoQJmwNpQJDcUzNAx3X19jiVMUTkVEpFQUTkVufHmZmeZrkm7bxsW4WPLOnDGWFPBs0KBwlPSBB4zdpaZwKiIipaJwKnLjyt63j0ux5kCaU8wtRd1uuYUyrUMLzrh3q1LFWHLZFE5FRKRUFE5Fbix5f/7JpbhY81n32+PI/e03Y0kBj7vvpkybf1I2NAzPZs2M3VeEwqmIiJSKwqnIjSH7xx/NF8qPiyV71y5jdyEPD8qEhhVcm9T99urGiitK4VRERErlugqnvyeTlB1IkL+x4/pj+j2ZPftTucAt+DcIol5lb2MJAKaUJBKP/gEVa9Gsfm28ba9vXujcUZK+O0YGFanVJIha5Y0F18i5DDLsXBrT29cX+1tokXGUpNMVCbrL/kk3ppREjpVrRr3Kxh5rJo7tOYX/fbUdv5cpgwyTsdEbX1/7rzBlZFC03BcH5fbrHS7fRMaPSSSdugC3+BN0X6DD5dr1ezJJZ+7g3p++4VJcnPmWoqd+NVYV8KhVmzJh5rmkZVq1suopXI9bqjXmvnvsf1dO7YumDA7u+Z7UC4X7tcKpiIiUynUTTk1JRLVrwqQOOzC9fHUOP14TvycSPbQ3Y5L8CK19C3CBY1uPUWvKZ8S81MwqFBwl5tn29NhhqTt7jDg6EvPx23QIsF6giaR3e9NjeBJ+bWtxS/7yXl7Kyolh2I96V0sqMX1rMCwpjMBqVs2nkokzNWbSnKWMaWtvjUzETahDhw97semHNwm1E6x3veZJ99T17JnT0eE2mbaO5p6Hj/LG0U/pYXcw0M76ZaeSHJcM9XsyfNZ0IkKtfvmkrqFPzaEkhQbinx/ETiUTdwDqPTmC6OkjsC63Ww+k7o/FFPQq8xeNI9QSrjO+nsnAAaNJqhxGrdswf78ptZj06XrGBNuLhtYyOPzOCNa+8jl17g2h1cm9xgIbe8vdyu6Lp/hP69lELXiGWtadKRsZ8+yzrPgt0PyZnEomzvQw82Peps89+evh3L5o2vU6XZ6YS2o98/an7k+m1sgNbIpsclnh1N3YICIi4jpM7JoxhEnFHKm8XmR8t43ULutITd7Bpi+3sOnLHRw8/Cq+E7oRbbV9xz54kR7nxnJwn6UuYR/bO/yXLmNWkGa1vLTVz9J5ZWM+TD/M9vzl/ZnAQM/vScqwKrxGTCZoPmapZdssj+9PkPJWIDEPjybmd+MrgJ+WE/3h4wzsvJzo1UeNvQXS3pvA/F1FxyXNkpg/eabNZ2NPkfXbvI+Ui+f4dlYgcU83oc8nVu+fY8JEc8Ystt0W05nviG4QyzMP9mZlitXC7dV/uYWkn08QXf9zOoxdg/krySAxLpUun/3OwQRLXcJhDk7zZdITMyluN7+0dRHfNm3In3N208/Hx2Ew/bNsDglNO1N+4QeE7tlP5H83EXSwP2M+SS0sMiUR9a9nSX0mgZTvC7cv9eMgDn53qqDMqX3xXCyTnvicZh/tJ2mzZbsTpuM7Y0DBckpL4VRERFyWaddMRu/qx/yXjT3XH98O44h6MtB29C/gYbp0TSXpWH5wSCJm/veMeb4XtQpG4LwJHjmFiNWL2PhTflsii4cnM/ydcQRbL9CzNl1eHkGooyHGv4HfI4MY2HYRcbuKJuakmLmkDutH9IARpL6zhiRjgUVoh2rMi15jN4BmrJ3LrIodCTV2OMUbv9BxrFzRj4O9X2RJwefrgLc/oS99yqr+yfQZuohjxn4jT386DBhM6IexJGYA+NLh5TfpUd/2C6oV+jhdUr/n6EmbZnJP/ELW0o84278vZ597lTq/u3PHRfuXgirTvDm3PNOSkabH8fnobcr+sy14eED5ZkRMHEHMh18WrG/a2teYVG8O0U/VtlmG7wODiSpoc25fzNi+huigwfSx3ukCejJpYsXC56WkcCoiIq7pXCJRQ75n0Jx+BNqb43ZDSCX1CNSqZPnDfjKZxD1hBNUzHN71rkVQ51jikiwhds83xPA4offZlrkyby/DNpliiZldjYFdguC+xxhYbSYxcfZHR32fepk3iGTWVkO/KZH5U08xeUQvh4f8neHdoi8D225kU6Lj0dtC3gT/azChmzaSaD16WixvvIs5Ym86nMzO+5pTzzIlIfubb/jz9dc427cv51+ZwKVt2yCv6CxM96pVKdv9ScrPm0/5RUs4E3iRtW3CCDTuPnc3psvWWMy7Twbf71hDjw7Ni//MnNwXf0yai1+L+22nDAC16jU3tDhP4VRERFyQ+XD+wYg36WEzz/LGYvr6c1amjaNDS0sAOHGUGAKpVuTEr4r4+oPJcsJRxoljJLWoje/viUT3vBvvsp54l72bLmNXcPCc8bV/r7Qv5jF//2BCg2xDTsZXK4h6qB9d7gKoTZf+DxM1c7mD0cha9Bgzgri3bfuPffIaMV1epsfdVo2XpTaBwRBzzN7YrB133Usz1lAw4O1IdiqbFs4l+fkwDJuPKSODjNRkdq19nR6DdjJqSjcCP1nJueef42y/PpgWvE/OkcO2L7K44HeRN5o8SflFSyj/xpuU7dARN29vjh1ZA3Wq4Wd8gY8v/pgw5QAc42Ai1Kvhy8FPRtOhpifeZT0JaNyb6K+tRred2hdTObofmtcqUgTli42+xVI4FRERl2Pa+grPHBtpdYjxBpSRSPSYRdSbNZjQYkbVzHyp6A8mk/ke6FnnTkH2TqKHLsd/zG5MF7PJ+HUpoQcjeWjsRsv8xmtvZ1RvOjzcrvDRuAYPjj9Fn/Vv0sHmbPsklkz9kjFPFZ7k5PtQPyadmkvMHus6K/f1Y1LANKK/sGzduVjmR9Vm0vPWJ5P9BaUcnS/6njuJ6mu17Q+3I+jOJow50Y+10wwnc2VsJKrXE/To9yKLR0+l5S0ePPrWc5wf8xIXN39FXlaWdTUAbr6+lO3yGOVmv82pDqeZHfQ4nvXrG8vs861oDqcmABOmPXDs49FMOtaRDw9lY/rzHF9NqsiasHCiHX3+BWz3RYcqW58ZVzoKpyIi4lp+38iYoaeYNKlnkUOFN4xziUR16kZc+GfM72o16uRJ0VEvAFI5dQS8vW8xP/X0hrVz4Zk36XGfOfZ4V25GxFuv0vi95cSVNKJ3lTQf8jYrl3/KyuWfMn9iT+pVqUjH8a8y8D7bKGeK+5xZjKCLdSr3bkaPIdWY9VmsnUsyYZ6vGTGWY5PmsssESR9MYOfAfobQe7lMXCjNiLPpgp0fAM2JmGXe9pXL32fyk4H4V3qYSVMHE2S4CkFebjBjBwxkdZ16TPO6k35/JHPbT8m2RRaeDRtyy7AIKiz+kPKzovF6tDM5ZXKNZQB4edoZwQRIPcXBgqkF3uAPS36qx6SXwvDzNu9P9Tq/yeSXjjFrk2Xmr5P7osPpCqnOTJGwT+FURERcSAabJj/L/Dtu4dhnM4meYX6s2AXsWk70jLnEOT3Pz0WdS2bJ0G5s7GC8hBRQPZAwvudokW28QEZa4dxUv1qB+PEYzRoaksFd99KMWA4aTqy5ZspXxNfXF19fX2oF9yN63nBSexpPNMpg07LXSdszmmZlzYeU8x/1nt1I2htziXG0/nf1YmyXz5n17kyWzP8/JvcPMlZcpoMkbYWBQfWMHfb9+D1xDCboHttmb8u2+/rWJviZt5k/5BQ9rE6curRnDxeiZ3G2Xx/OjxxB1vp15J09a7sQwK1cObweCaf8WzMov2gJt0QMxyOo5G2tVicMko4WnRpx/g9SqY1/JQB/6v0TaHE/tlvrTWCD5qQdPGo+8cypfdGfWvX8iTlY5B0x/VE0vjtL4VRERFyIN/4tRxD1UD07h03NTNn2x9WuD0dZObQdi+t8xtqX7RyO9g8itMMa4ozXgvoplpit/WiWP3GxfnP6+q8hKdnwWZw8ShJhBSfW/O3u6kXEyO+ZuNBqNHTPImZ9NYKY47+Tmm58nCBm5E6iVzo6b9+b4D4jYexojo0ZZPe6qJfj2LLXGJM2ji7/dGae5FFWRo3m1EuPlXhVhFpPjmB00itsn/Y550aO4Fy/PlyYHU32HvvHztOr1+WWQYO5bdESyr3zLmW7dsO9svNDw35BYXRYG0uS4bJdx3asIe6Z5pZ5r/4EhXaEr38oEmKPHdmJX73a5hFTJ/fFesH98NvwjeFKCyYSty+3aSkNhVMREXEh3gQ9OYKIkbaPnsFAcC8iRg6mw11FIt11wnxB8z4Z45j9fD3IyCAj/1FwSLk2PV4cwcahQ1lywBIKfk9iydRX+GPK4MJD2N5h9JnekxWTX2fTSUvsy0hmyfhIdo7sRwcHR3evPW9Ch0yn+YwJzN8DYCLus5lkDetFB//8UUbrhz8deoyA2Z/j4MR9qN6T+d/vY8kzlzEf+dwfhZ95RgZpP8ayJLIdrcdmMOnTcUXm/pqsv6OMVA7GLWJM+xBeOv0qq14KK/rjwkpOcjIXPvqBYXf50un94Vz8fDV5//ufsQy3MmW4cE9lpuYG8ev7H3HL6JfwfPBBYxlYrc8fJsCUvy1WH9RdvYgY+SXDIhdx0LL7ZOxZxKQJfzBpYOG811pdX2bS2VeY9EFSwV290ja9wujJjZncLX+E1rl90Tu0L5OrjWbYhI2kZQOYSNv0OhM/DLMsp/QUTkVExOV5efrj51lcFLgO/LiR+R8ehS9epNntlfGvavW49/WCkSfvtq/y1fRqrOxY2Xy4+/YniPFfwIcvBdmEoVpPLuCrISaim5c311V9lBj/OWyfUnxoujq88a2M/dtaVu/JmOkwZslGTOdiiXmjsfnyUY7c9xgDg163uayUcbm+9Q3Xiy3niz/V8C1n3WjNG19/f2IGNbT53FsPeJ1E38F8tXeL7d2Zyvni77+GgY2tv6cQnn8zEd8XtrBn8ziCrUdty/nijze35l7k4uavOD/mJc70eYYL09/E7VjRw/YAKdnZvH/uHN1PneKfZf/Jg5s/oc29xZxE9ONculjWpcsbwBudLOv1LDEFc4y9CX15C29UXsFDVc1TJfx7rMF/3lLGPGC1feWbMWbNZwRtfQL/W811D449Ss+dS+lzV2GZc/tibfos2sFjR14k4FZPvMuWNy9r/YLCBZWSbl8qInKTum5uX3oTM2VkQEn3ps+vK+9bJMRdU9klnPGe319SnZGz9c7WXQU5Rw5z6d+xXIyPJfubb4zdNsqEhlImNIyybdpw8bYKV+97yzaRcQ58fUvYe0wZZJi8S6xzal80ZZCR7YuvJbh7l/W8rNuXKpyKiNykFE5F/oK8PC7FxnIxLpbsuDhyfjlurCjgXuMOyrRpQ9nQMMqEXf7h7uuNwqmIiJSKwqlI6eUcT+HStm1c2h7Hpbg4Y7cNzxYtCgKpx111jN03vJs0nNagecdA+GELO4tc6sDWHc3a0fjWE6zbZv86YqVVv004Nf5M4qvEE8Yuh+5o1o57SS7Va0RErhaFUxHnXUpIMAfS2Fhyfra5NpYNdz9/yoSFUaZNG8q0DsWtbFljyU3jJg2nU9h8qCt3JC+mfefp/GLsLtCVRV9PIZR4IloMZJ2xu9T6suy7SJqfXMydnacbOx2K2vQD3VnNnR0mGLtERK45hVOR4uWe+pVLceZAejF2G2RbTm23w/PBBykbGoZnaBiegYHG7pvS5YbTG+Jsfa/ATkzuamwt1HxaX0KrAF5eVDV2/hVeFYwtIiIicp3L/vZbLrwRxdm+fTg/biwXt2y2G0zdKlXCq2s3ys15h9s+WIz3oMEKplfADRFOyalM6LNTaG5sB+B5Rna8Ezu3qRUREREBIO/337n42aece2EwZ/s+w4X588j58UdjGQCeQUF4D4swXyz/rRl4hXfCrfwVuiOA3Bjh9MjX8fx2ZzgjXzD2QOjsrtxPEnHf27vOWA2aDxjPvI9Ws/nzxcyb0JfmAcYauKNZXyYvXM7mDctZ5KDGLJDeE2az7PMNrP9oNpN7O/nrKSCYAdavGxDMHcYa63XdsJxFU4fRXUfXRERE/pKc77/nwqyZnO3Xh3ORo7j45Rfk/fmnsQz3226jbKdHKT9zFrctWsKtEcPxbNTIWCZXwA0RTvltKquS4P5uswm1bg+IZGSbGvyybTb/sW4HoBVRG9azbHQvmt/hBWWr07xXJMtWr2Zym8Kq0AmrWf9RJL2b1AAqUKPdiyxa3pUa1osCaBPJZ1+vZnLnQCqcO8GZ8oF0HreaXYv72gmaVtpMYfOGxYzr1YwaZcHrjmb0Hr2Y9WvHW21LDQZ8tJplI7tyf1UvoAJ3tXueqBUbiGphszQREREpQd6ZM2StW8v5iGGc7deHC2/PJnuf/TnYHvfeyy0vDKH8oiWUf3sOZR97HLeKFY1lcgXdGOGUE8yYH88v1VsxcmxhbOw+thP1s3axdMQum2qA5jPH073uRXa+2Z6gsHDah7cn6InFHPAMpPdoyxSBgEhGdg+kQsoG+gW1on14OO1bdeKlpLLcYTPdNJio0X25/+IWIrq2p9PTA3nq8fZ0mrELrxZ9i5kPG0z02K7UydrF6x2CaR0eTvuwYDotTMYrsBfjpgVb6p6ne7PbOBLTieAO4bQPD6d1cHsipixm6deGRYqIiIhd2fv3c2HO25zt14fzw14ka20MuRmGe8djPkel7EMdKBf1BhUWf8gtoyLxbNLEWCVXyQ0SToFtw1iaeJH64ePpDhAwnt6tK3Ng7QQWGmsJ5unGNeBkIu8stLqs0/7pLEj8He5sTOcAoEtj6nhl8d8Noym8ktkJ1r2whQM5hS+jRS+a3wkHtk1nndUlrX5ZGM+BM5W5q1V+yDRo0YvGAfDL1/NZaPW6A28uZudvUKdxuM2oq0+FIKvnJ1i3ajUHrPpFRETEVt6FC2Rt/JLzL402j5LOnEH2f4oeTwXwuLsu3s89T4XFH1J+/nt4PdkDt6pX9FRqccKNE06BhRPWc+AfrRgwLZgBUzpR/3/xLJ1i75qi91LhNjjzSxI7DT3r/jgDVOGONoB/Bbw4yZHZhiJ+58x5q6d1K+AD1O++nuSk760eL3J/OfCpYHWjWmt1K+DDWU4kGUd2N5B+Fqhcg4cAeI9V205Qod2bbN/3PUmxq1n2puacioiIOJJ96BCm9+abR0kHDyJr1Sfk/fabsQzc3Sn7z39SbspUyi9axK1jx+HZ3P4p1nJt3FDhlJSpLN3+O3Xavc2QZmX576qprDLWWPHyLuZSUAVXjCiLj1PzOs+yc3ZjAoMMj8B7Ceq73FhspazjK1LlgPkiAydYOLA9gY8PZOKSDez8xYs67TXnVERExFpedjaX/r2V8+Nf5lzfPvwZNY3sxERjGQAeAbXw7tOX2xYtofzCRXj9qzceNYo9S0SukRsrnAKrpq3mv563UeFkPO/MtjdqCrCYAyfBq24wtif412DcPdXhz5/4Zimw6wS/UYN7uxoOy7cJoo51oFz8A7/k3EadZg4nlxbyqlB4yavFP/BLjhf1mz1vWxMQSX1/yPo5kaXW7fvjWTpjAoOeDie48wZ+8bqT+8OtC0RERG4+uceOYlq8iHP9+3J2QH+yln1M7q8njWUAlGnVilsnvEL5xYu5deIkyrRubSyRv9kNF05Jmc3wgcPoN3SY1TzRol6P2cWZW4N4dtV4y+HxQHq/u4jeDbz4LXE17wLELGdnCtzRbgrzLJd3uiM8ks+mtaOKzdKmszbxLFVajeazCV2pD+ZLP3Ufz7LYXXw22lx1JP0sVG/MswWXmDK/zuuBfoWva9CLeQt7Uf/W39n52XvmshcWs33DbEZ2zX9dDR594V6qksUZR/lbRETkBncpPp4/J0/iTJ8+/PnqZC7FxxtLAHC/vTpevZ6i/IKF5ovl9+uPR+07jWXiIm6I25ey6l7ajzf22Rrw0S7G3ZHIU2HDCuaZho5ezORewdxxq6UhJ4tfvp7P4AHvFZ5oFNCXRUteJLS6V0HNkc3LOdGkL81Pvkdg9/wJqYG88O50nm1zJxU8Cpd35qctzHhhNEtTgBaRfDa7L/dXAPiZVXXDGUMrxn00nt5Na+CV/7o/TxC3YBj93k02Pw/oRfS7w3i07m2WAiDnLEfWz6b/6OXF3LZVRMQx3b5Urke5J0+YbycaF0t2XBx5OdZnKNvyDA6mTGgYZdv8E4+6dY3dcpVd7u1Lr/NwCnc0CIT9ySUHtIBgmt+2i537jR1Qv004d3n9xvcbdzleToNWPFoHfoqJNwfXBsE0P7uLnVZn2ecrfnk1aN4xiAp/JPFVovWwZyChXe7CK9XYbs382io4WraIiPMUTuV6kr1zpzmQxm4j+/BhY3cBtypVzIE0LIwyoWG43XKLsUSukZs2nIqIyOVROBVXl5uezqXYbVyKi+NSXCx5JpOxpIDH/fdTNjSMMmFt8NR+6hIUTkVEpFQUTsVVZX/3HZe2x3EpdhvZBxxf0dvdx4cyoWF4tmlDmdahuPv4GEvkb6RwKiIipaJwKq4k748/LIE0loux28g7e9ZYUsCzYUPKhrXBs3Uonvffb+wWF6FwKiIipaJwKq4ge98+Lm37NxfjYslJSjJ2F3C79VbKhobhGRpK2dAw3KrYXjdHXI/CqYiIlIrCqfxd8s6f51JcLBdjY81zSU+fNpYU8LznHjxDw8wjpcEObgcuLknhVERESkXhVK61nIMHuRi7jUtxsWR/+62xu4BbmTJ4tg41n3EfFoZ7tduNJXIdUDgVEZFSUTiVa+LSJXMgjY3lUlwcuamnjBUF3GvfWXAJqDIhIcZuuc4onIqISKkonMrVlPPTES7GxpK9PY5LO3YYu22Uad2aMmFtKBsWhnvNAGO3XKcUTkVEpFQUTuVqyA+kF7dtI/eX48buAu417qBMWFjBSU5u7jfeHdVvdgqnIiJSKgqncqXk/HKcbMstRS/Fxhq7bZT5v/8zH7YPDcXjbt1S9EamcCoiIqWicCp/VfbXXxcE0pyfjhi7C7hX9aOM5eSmMqFhuHl5GUvkBqRwKiIipaJwKpcjLy3VfAkoy8XyuXTJWFLAs2lTyrQONd9S9N57jd1yg1M4FRGRUlE4ldLI/vZby7VJt5Fz8KCxu4DbP/5hCaTm+aRut91mLJGbhMKpiIiUisKplCTv9OmCi+Vnb48j99w5Y0kBz0aNKNPmn+Z73d93n7FbbkIKpyIiUioKp+JITlISF+NiyY7dxqW9e43dBdzKl6dMaFjBtUnd/vEPY4ncxBRORUSkVBROxVru2bNcit3Gpbg48y1F//jDWFLAIzCQsmFtzKOkTZsau0VA4VREREpL4VQAsg8c4FKc+R732d99Z+wu4Fa2rPkSUG3aUCY0FHc/f2OJiA2FUxERKRWF05tXnsnEpe1xBWfc56WnG0sKeNS5m7JhYXi2DqVMixbGbhGHFE5FRKRUFE5vPjmHD5kDaVws2Tt3GrsLubkVBNKyYWG431HTWCFSIoVTEREpFYXTm0RubkEgvRQbS+7JE8aKAh41A/C0XAKqTGiosVukVBRORUSkVBROb2y5KccsF8vfxqX4eGO3Dc+WLc2BNCwMjzvvMnaLXBaFUxERKZW/I5z+mup4bqNcGe67EvH45mvcE7/B7fhxY3eB3KpVyWvegpz/a0FeixbkeXgaS0T+kjtr3q5wKiIizvs7wunZs2eNTXIF5J06RW5CAuxIIG9HAnnZ2caSAm4PPIBbSCs8QlrB3Xcbu0WumCqVKiqcioiI8xROr3+53+2GHTvIjd9O3pEjxu5C/6iEW0gIHiEh0DIEt1tvNVaIXHEKpyIiUioKp9envNOnISGenIQE8hLiwWQylhRwb9QIt5BWuLVsiVv9v/bdiZSWwqmIiJSKwun1JW/PHnIT4slLSCAv+QdjdwG3227DrVUr3FqE4BYSgpuPj7FE5Jq47sNpn0tZxiYRESmlD8t44ex/1BVOrwNnzpCbkEBewnbznNJiPj+3wHtxa9kS95BWuAUFGbtFrrnrOpy6ATv+PGNsFhGRUmp1awVyjI0OKJy6rrwfDpCXkGAeKd2719hdyNsbt5YhuIeE4N6qNVSqZKwQ+dsonIqIiMLp9ezCBfIsc0nZsYO8078bKwq43XUXbq1a4x4SgluTpsZuEZegcCoiIgqn16G8w4fJTYiHHQnkfvedsbuQhwduISG4t2xlnktarZqxQsSl3HDhdEkZL5vnIiJS1DOXsrD+r7/C6fUhLzubvIR48nbsMP9vaqqxpFDNAPMIaUgI7v/Xwtgr4rJuqHCaB7S8tYJNjYiIFBX/5xk8rJ4rnLq2vGNHLYE0gdyd3xi7bbj9Xws8WrWCli1xqxlg7BZxeQqnIiI3IYXT60Pe11+TG7+d3B0J8Msvxu4CbrffjntICLQwn+SEh/W3K3J9UTgVEbkJKZy6sJMnyU1IIHeH+dqk5Dn+c+ve9EFo2RL3Vq1xu+suY7fIdUnhVETkJnSjhtOszEzs3vfI2wcfFz8lIe/bXZZrk8aT9/PPxu4Clyr4YGoZSsW2obiFtAIv2w3LOr6Xb49ngE8ADwYG4OVp0w3nM8nMNrQBePrgU87YeA04WB9vHx+K/coyU9j3P18a1rZ/s4Cs47tJKdeUusVeJSuL4/tS8WsY4Pi9sjLJLLJTeePjYIeyuw8Ws//ZrXe4/CwyD+9lb9oF8PanUcO6Dpdr1+lD7DsfQMOaDl50PoV936eQAfjWDHZQZ7UO+BLQuBE1Hew3Je6LmD/fQ/v2kGa6Bb/ARtSt5KVwKiJyM7oxw+luZlVqz8dNWhFQ3rbHp/N0Fj9d17bRFfz2m/mapPHx5kP3Fy8aKwrsdi/LzxXL899yHmzf+SsBEz5mRURTq1CVwoahnem7syohAbfAuRQSaMeKBdNpWzO/Jp3V/e7hlUOtuMev4IVmQUNYPKEd9qPe1ZLOhkH38NI+w/qkHSTBdB/j3lrA8FB7a5RFwpRGPL68O59/N4UQO+Fo91sV6ZO2im+mO96mrLgJ3N81hVf3fUTX24292F+/7FR+3HEIArvxQtRrDG5Z1ap8PQMDR7GvZT388oNY2kESkqFu16FETR1CiFW53Xog7Yd4TI3GEz13JCGWcJ2Z+A4RQyawt5Jl/z6XQsLxAMYtXcXwJvZCpLVMDq2eSsRzC9k9djO/jTJcRuz8IVZPi+SV1ancc68/5K9D249YM6cTBbvP8S1MHDqEz07fR6dHWlHhf/F8sWEPfs9fzr4IWd/NoGfv90mra97+tB8OUvPFT9k6vrXCqYjIzeZGDqd89QfDmxj7XEvef/9LXkI8uV/vIO/gQWN3IR8fsutUZn3Ao3QY9SQVyltS9/Gl9G08lUZf/Viwrcc/6s4DcZ34z/u9qekJkMXutzrx8A/PcWBRN8yZyBxONzzyI4u7Wqekv4vj9UnfNIEeT2Uy4tDbhBtHP48upefDewkIX0dK482s6FX0xK/db1Xk4WmNGPfVZgfhbS9zH2rNxO86Mb+YcGp//bJI3/EOw559H5+pm5nf1fL+v35G34brCDcuLyudhHlDGPieD69+tYCu+QHNUX12OlunPkHP06M4MqcTPmSy9a23yHxkFF0DC6P28VVP88DE+/gyeSQOr1qbtZcP+j3BTJ5jQNWpvF7dTjhNXsqYrQGMGNSKqvkhOTOe1zt35vDQ/G3PZOuYB3ndZwFrxrYqDPyZW5jYbAheC/YyrqX5c3ZqXzwfz8QmE/BasI5xLS1LO/4ZAx+aw+r0vZcVTt2NDSIiIlKMP/4gZ/06cl6KJGfIYHI+WOgwmLrdWx/3gYPwnDuPWxavpfuk/oXBFKDmQ4R3TmdvSrqlYS8bFu1heL/uljAA4EXToeMZvHYpW44WvvR6UbXDAPqHLmXH7kxjF/s2LCRtcG+inh5K2vvrcfRzKaStHwvnrif/U7KW+cVC3vVtR4ixwyleVG05kiWLe3PouUiWlfT5elUlJGIpS54+xMDIpRw39ht5VqXtMwMIWR6PefN9aDtqik0wBajZ8lHC0/dw/FebZlteAYQM38w3y0bSsrqx0yKwN1FDrYIpgE8r2oXDhqMploYU9q1Np1M7q2AK4NOO8KfTOZyW/z05ty9mJqxnbqMB/Cs/mALU7Ma4sb6Fz0tJ4VRERMQJufv3kTtvLtkvDCb35XHkbtxI3rlzxjK49VbcHuqAx9TX8Jg7F4/BL+DWsJGxyiKVtJ+hZiXLH/ZfD7F7Xysa1TWMEHoF0OiReBL22otn1wcvb2/bhqx41s/1o394I2jYif5+c1i/I8u2xsKneySv8jLvxhn6s3azaHoq44Z2d3jI3xlezXrTP3QLW3fnB7jieNG0xwBCtm5hd4npNJ83XobNt5b180G+bfggde2O+ubzoW6TgMvYzkwy0yCkav6IcQANwyGlIITmS+FQEviVs+x7Tu6Lh/YvpGrz+wqnDFjUrOtwDLhECqciIuKS0nYuZGDLe6hSqSJVAoMZOGc3xj+nV1veuXPkbdpIzsvjyHlhMDnz5pK33/74nlvdunj074/nu/PwnP4W7o92xu0fxuPYtrIS1/FZ2kjaNs8PBClsoB5+RY7U++LjB1nGE44OrWLik0Hmz6hSED0nfcah84aav1n6poV88MMAQhrahpzMrZ8xq21vwmsDBBD+9EPMmrPKwWhkAF2HDyVhnm3/8dXTWR8eSbc7rRovSwB1m8CG406G/9r1aMJ6SizPTmfrhwv5sV8rGhkyXlZmJpnph9j9xQz6ROxmwFvP0tC25Mo4voVli9rRNSR/yoQPbYcuwDTxaSYuj+dQeibph+NZNuZZZlb9iMEd8n8oObMvpnP8B3jwDvP8VhvlNHIqIiI3mC2HoP/yvfx2OpUjqyLx3dCentF7sT+2doX9+CM5HywkZ8hgskdHkrt+Hfzxh7EKtzJlcG/zTzxemYjHu/NwHzYctwceMJbZl7mbuROXUjfqOULsTaW04YOPH5iyLti0fpuYQdOp2zlx+g9OfP82Dx5+mcdG2T/8fS18O+tZHu/aufDR8h7Cpqby1KqptLXJ6XtZNv0rhj/ZvmAk0Kdtb8alLWSD/ewPDXszruYM5m6y/EQ5H88HMwMY19f6BJ6/oIyxoXi3GBvYxcxBVtvetTMtGoYw8dferJxkOJkrcwsz+j1N30GRTJw4lb3VG1Gz9EOiJctOYfW0l0mbMJ5uta3aKzUivAPMnRLJmEFPM3DIi0Qs8CW8c6MiI6BF2d8Xi6hkJ7A6SeFURERcTCO6frWLbXMG0LSmF+CFT8NuTJ4wkpQpn/LtVUqnbhcvkrvt3+RMmsilwQPJnR1N3n//aywDwK12bdx7P437u3PxiJ6Ne7cncPMznjZfjPO7mdX9XyR0/JjZna2GpjyxnPBklE7aT+DtlR+JqtI2cjMbl48n/G7zpZq8arZi+NTxNFq18G+bm/rgc9NZvOgjFi/6iOix3ahbyZd2kePpbxg1zdqxjncZSifLiTcAeDWl63N+vBsT7+AHiA9tB48kJWohu7Ng30dT2d2/tyH0Xq4sTHZmaDiUdYEMYxvBDI4yb/viRW8ztmtd/Co9xNjxA2hovAqBTzvGrV7L56vX8uV3f/BNpC8fPDqeracNdX9JCquHtud1z7eYH9HIKsCns2FUJ1bfOZ0jybv4fPVaPv8qid8ODcF3envG5Id/J/dFwxXQCqU7M0XCPoVTERFxMV7UbFK3yNw6rzvr8SAppF/RP+CQ9/PP5H64hEuDB5ETMYzcz1fDb78ZywBwa9kS97Hj8Hx3Hh6Ro3Fv1txYUrLzh1g26l9saWe8bA9we11C2MPxIse2L5CZbjU3FfAJbFr0upS16/Eg8Vf8M3JaOV98fHzw8fGhZpPeREUPIa2f8USjTLZ8MoP0fRNoU6miZUqC+fHA0C2kRy9kg6MTg2p3Z0T4Oua+/w7LPghm7NOO5vKW1o/si4P+DZy8TNmhvSQwgIZ32zZ7W7bdxyeApr2mE/1cKn2dOHHKp2U3+jddyFY7J41dnkwSpjzLK7xmewkpgF/jWb2qO/2eMvwbq9SKrv2D+eDf35qnzzi1L1Yl4J6qbDhUNIhmZRSN785SOBURkevD6VRSCKDqlRgpy8sjLz6enNenms+4n/EWed/uMlaZVa+Oe4+e5rmkc+fj0bMX1KhhrHJSCqtHdWLZXR+zYpSdw9FVGxHSdj0J+wwh5Wg8G+J609QwAlnE6VRSaHVlPqMroXZ3Bg/dw+sfWo2G7lvK3K1DWJF8jCM/Gx8/smLoLt5dvdd2OQW8aNprKEyaQMqIAXavi3o5jq96i4lpI3kkzPiTyJ4UVs+aQFpEJ0JKKK/ZdQiD907lA+OJXEVkklYkBF6uLHa/9QQDf32OjXO6OThMbyKr6B0DbDm5L9Zt0puqX+0yXGkhi28TVtm0lIbCqYiIuJakd2jR+UU+2JFCpuVvetbxLbw+agLeE57gwRLyWXHyfvmF3BXLyXlhENlDBpO7ciV5J04YywBwC26Gx6hIcyAd9zJuIZd3saJC5guaDzwTyRt960JmJpn5j4KTmALoNmgIW0aNYlmyJRSc3suyN6eSOWEA7fJD5+n1RDR5mllf7CXd8tqs03tZNn4UW7oPoJ31/MK/lRchz73Gg3Om8sE+gCwSYuZgGvwEbavmjzJaP6rStutQmLuOBEd57vZuRO/YxXw710Qt0fmMws8803Ii0PjOdJyYybilkUXm/pqsv6PMdA7tWMrEzu155fR4loxoVfTHhVG5VrwwNZi50xaYw9vp9UQEdmbi8t0cL9i5M9n30RzeTRtA26bFp92s/HW5AFzI3xbrDyqL3dHd6fNZMLPHtsPnvPX6W+pub0V454XMfHsL6VYvzTq6nrlzd9H/nw9aRlSd2xe9WvZmnN8EXpqyhfRsgCzSt05n2vJWhQsvJYVTERFxLUFDWBNZl31TOlPndvPh3hoPjed4+GZW2Mydc17uzm/Imf6m+Yz7aa+Tu2OHscSsalXcu3bDY/bbeL47F/enn8Gt9hVKeoe3sGh5CmyKpE3dWtS50+rRZEbByJNX6HjWTPVn9eO1zIe76z7NBr93bOcNVurE5KWPkrH8WcJqWj6juk+zwe811rzVycFcwavJC59K2L+t5e3dGDEVJi7bQtb5eL6Ivs98+ShHGnaif6MZfGGVTo3L9Qk0HJIu54MffsXcttULn6pV2TA82OZz7zhkBrt9B7Amca3tBf7L+eBXdT0RLa2/p/ZEzNqN73Pr+WbtSJpav1c5H/zwKrKeAFW7jmIyE1i2Ncv8vX0+AN+dL/PYnf7m7/f2WvT5wp9X1xlPGjM4vJCelnXpGQ1Ed7es1xA25J8Bdz6eDe/Fk374HXo2NuxjBXVV6TpnF/1zFtDR8u+rSqWK1HhiKV5D1zM5/2x9Z/dFAnhq7mbCj0ZS368iVSr5EzYpha6r3imoKC3dIUpE5Dp2Y94hykp2FpnncXB/8uLlpaaStyOBvIQEchPiIdt4HaZCbg88gHvLVri1bInbPfcYu/82WZmZUNK96ckiM9NU8j3sr7Zs80k0DuX3l1Rn5Gy9s3VXS3Hv76AvKzMTyvnYDbXXSlZmJiZPn2KCvZlT+2JWJpnZhcuqUqniZd0hSuFUROQ6dsOH08uQ95//kJcQT05CPBw+bOwu9I9/4NEyBFq2xD2kFZQr4a+ziJSKwqmIyE1I4dTif6fJS0ggJyGBvIR4uOD4GozuDRuZA2mrVrjV/2vbIyKOKZyKiNyEbvZwmrd3L7kJ8eQlJJD3wwFjdwG38uUhJAT3kFa4tQzBzffy714jIs5ROBURuQndlOH07FlyExLIS9hO3o4d5GUWc23IevVwb2kJpY0bG3tF5Cq63HCqs/VFROSKyzt/FW7wfvo0OR98wKXu3cgZM5rcL75wGEzdmjTF443plPl4OR4vDlMwFbmOKJyKiMgVlXf+PGd79SD3xC/GrsuS+91uckaO4FK7f5I7exacPGksAcDttttw/1dvPNeux3PRYtw7doSyZY1lIuLiFE5FROTKyc7m3AuDyN67l6zly429zvvjD3KWLCa7cydy+vUld8tmh5eCcm/UCI8pU/GM3Y7H6Jeu3HVJReRvoXAqIiJXRN7Fi/wZNY1L27cDcCl+O3kO7lFvT152NnlxceRMfZXsHt3JnTmDvKM2N2Uv4HZHTdx7PYXnvPfw+Hg57p27aJRU5AahcCoiIleEad5cTB8sLHiefeAAF2O32dTYdTyF3GUfkzvkBbJfHELuqlXknTplrALA/f9a4DH6JTzmzsVjzFjcWrQwlojIdU7hVERE/jLTksWY3ptvbOZSbKyxqUDeN1+TEzWNS4MGkfNGFLnffG0sAcCtWjXcn+iOx9tz8HjnXdz/1Ru3gFrGMhG5QSiciojIX3Lx89WY5s0jz86F7y9tjyM7MbHged6vv5L7ySdkD32BnBcGk7t8Gfxy3OY1+dyaNME9Yjge787DY8IruIeGgeffeJ9HEbkmFE5FROSy5Rw6xPlXJpCbnmbsAiDvwgUuxW4j56cj/DnlVXKe6ErOa1PI276dvBw7V2T19MS9XXs83l+A56IlePTrj1udOsYqEbmBKZyKiMhlyU09xZl/9SrxmqamD5eQ2fafmBZ9QJ6ji/BXr477sOGU2fJvPGbMxL1Zc2OFiNwkFE5FRKTUcn78kfPjxjp1Nn5eVpaxCQC3ChVwf+QRPKLexPOTT/Ho3x8qVTKWichNRuFURERKJffUr1yY+26xJzsVx+3e+rg/PxD3d+fhMe0N3B9+GLcKumW1iJgpnIqISKlcmDaNi+vWGptL5Nm0KR4zZuL58TI8XhiC+333GUtERBRORUTEeRdmvEXW+nXGZqd4NmiIe7v2OuNeRIqlcCoiIk4p//lqLsyba2x22qW4OPjlF2OziIgNhVMRESlR1icrKf/Zp2Dv8k9Oyjn6M7k7EozNIiI2FE5FRKRYWRu/xDRvHu6OLgNVCrkJ8cYmEREbCqciIuJQ9tdfkzV/Hjkpx4xdlyVvxw5yEzR6KiKOKZyKiIhDub+l41H3Hsq2f4ishg1xr3EHbv/4h7GsdLZf3iWoROTm4Fb77sA8Y+O15gbs+PNMwfM8oOWtuuadiEhJ4v88g4fV81a3VsDZWaHJB/YZm4q1f/9+GjRoUPA877ffyD2TSe5vv5P7x//g/HlyT5yACxfI/d//yE09Rd758+T+9jt5f/yv8E5St95KmW1xcOuthQsXkRtOlUoV3YxtzlA4FRG5jv2d4bTUsrM5e+SI+Ram1avjdtttxgoRuYFcbjjVYX0REbk2PD3NobRePQVTEXFI4VREREREXIbCqYiIiIi4DIVTEREREXEZCqciIiIi4jIUTkVERETEZSicioiIiIjLUDgVEREREZehcCoiIiIiLkPhVERERERchsKpiIiIiLgMhVMRERERcRkKpyIiIiLiMtxq3x2YZ2y81tyAHX+eKXieB7S8tYJNjYiIFBX/5xk8rJ63urUCOVbPi5N8YJ+xqVj79++nQYMGxuZS+TU13dgkIjeoO2ve7mZsc4bCqYjIdex6C6cicvPwLut5WeFUh/VFRERExGUonIqIiIiIy1A4FRERERGXoXAqIiIiIi5D4VREREREXIbCqYiIiIi4DIVTEREREXEZCqciIiIi4jIUTkVERETEZSicioiIiIjLUDgVEREREZfhVvvuwDxj47XmBuz480zB8zyg5a0VbGpERKSo+D/P4GH1vNWtFcixel6c5AP7jE3F2r9/Pw0aNDA2X1Wm35PZsz+VC7f4E3RfIL7exorrT8E2cQv+DYKoV9n+RplSkkg8+gdUrEWz+rXx9jRWGJw7SlJaRYLu8jX2XBvnMsjINjaCt68v9rfwGjBlkGEyNnrj62BHMmVkULTc1+F+Z7fe4fJNZPyYRNKpC3A5+/PvySSdr01QgIMXnTtK0nfHyAB8azd3UOfkOji1LGsZHNz1B7WCa9t8195lPd2snjrNJcMpwIIyXjbPRUSkqAGXsrD+r/+NE06PsinyOZ7/JJXABv6QnUpynImOC9YR/Uzg3xd2/orfE4ke2psxSX6E1r4FuMCxrceoNeUzYl5qZrVNR4l5tj09dljqzh4jjo7EfPw2HQJslmgllZi+Tehhmk7Kip74GbuvulRi+tZgWFIYgdWsmk8lE2dqzKQ5SxnT9lqHZjvrlJ1Kclwy1O/J8FnTiQj1typfQ5+aQ0kKDcQ//4fAqWTiDkC9J0cQPX0E1uV264HU/bGYgl5l/qJxhFY2t2V8PZOBA0aTVDmMWrdh/k5TajHp0/WMCS5pb87g4Cev8HzvueyauAPTy81su88ls3Lyi7yU/28lfx0e+pRNCx6jlqXMqXVwcllFnFxBj9rv0mz3DiLuK2y+4cKpiIiU3o0RTk0kvdGWzgdfYPuCntTK/8OfkcT8N5LpMK2n4z+SLixj0+tEZT7GmCcDKYhpKYvocfcrBCWcYEywuenYB52ot/UxDi7tZ9l2E7tea0vr/S84DJ7HPulN694rSOu61GHN1ZXKyp41iOlygpVPWic4SPtiNJ0fy2DMr+/TxRLWrg1H62QiLW4mzz89F9/pCSx5sra5+eQKetT+nC5HP6VHdevyVOJmP8sz7/ryRsJSeuT/QHBUn53KpgnhdPn9ZVIXPIYvGWx67XUyuoyjR/3CgH5s2RPUG9uY7cfHYfnqizIlMb9nONMYzCD/V5hUw044PbCIiE21GTssDL/8fyvnEpkU1pKDo/K33cl1cGpZdpxcQY/avYkx7H+XG04151RERFzLyTVETbiX2dOtgimAbxADr9NgCuDbYRxR1sEUIOBhunRNJelYqqUhiZj53zPm+V5W2+5N8MgpRKxexMafCl9aIGUFkyZVY/Kcx4w9LsHvkUEMbLuIuF0Zxq6/iTd+oeNYuaIfB3u/yBJ7n6k1b39CX/qUVf2T6TN0EceM/Uae/nQYMJjQD2NJzADwpcPLb9qEQoBaoY/TJfV7jp60abblXYvQMQnsWTOOsBrGTov6/YgeaRUmAco3o2MXiDmSv7ZOroNTy3KkIx3Oz2DxrqITHUpL4VRERFxKRtJOYp7qSPNrOsr2d0kl9QjUqmQJDSeTSdwTRlA9w6Fe71oEdY4lLik/xOY7ysoxM6i18FU6Xuuj5qXk7ZW/TRkkfTKTiJ7tCKpZg6D2TzDmk2SruZupxAx9giV7Mtg14zlaB9YgqP1zzN9jMh92HvuEbdtl8m7Rl4FtN7Ip8aixyw5vgv81mNBNG0lMMfY54o13MUfsTYeT2Xlfc+pZj7oW4Uu94Nq2P2iccpTkXTAwqJ6xw4Zz6+DcsqA5ES8/Tsxry0sO8CVwicP6AM9eyjI2iYhIKS0s44Wz/1F31cP6SbOb0OzcO2R0O8qkoZFEx6WCfyA9hi0gemSzy/hD7bpMX79CaE+IOvQqod7ArtfxDoHtF42HejPYNLQyS1raHlo9tuwJehwZSdzEZmR+8gQBMY+75mH9QSYm/fdtOlQ2Hzoe+DH06PMwQX7ekLmTqG7P4j39CJNCvYFEosq2ZGPoCHpOGUSPeyqS+sVQHhoLHR+6hWZDXqVLgLelrTYf5n92RThep3y7JnvS2tNyqNzRYfoCiUwq2xLvhGzzFAxH9ZbD+s+fm8KeOR1t9ldTRgYm0yl+3LWGaWNiabbEmTmnZrte86Q1dg7r57Oc/JWRspO4Ja8RdW6k3XmiTq2Dk8sqcHIFPWofZfjFwZx6tgGJTx4hqq33ZR/Wd5lwKiIi15arhtNdr3nS+thgBp7zp8tbIwit7o3pxzWMGfAE33f7ju3DgowvuT5lJBLVqRsHI75jSVdLeHIYTs2fy7Qah4l5xjJH8qdFdOmTytiN4wguD2kuEE5fOlj0hKhkwhi7ZAED73Mcwna95smw8t+ROCyoIJzGzTvMpv6WbbUEw6QFVttPIpPKdsN75wnGPGC1sAJOhFPrwOcobBYwrxc24TSSg0VOiEqG1uNYMm8wQeWtXp6xkUm9ZpIIXDgay7E7RvDGnFfpcY/jz8VaSeH04AdPELE6o+DkwebTljLf+GPOyXVwalnWCsLpOIL3zKT1EJidMIJmlxlOdVhfRERcipenP3yYTL1J4witbv6j6X3PY0RNGcexGV+SZHzB9eicOZjGhX/G/PxgCuCJg2CZyqkj4O19i+V5EtF9FtHsrREEWwegv1nzIW+zcvmnrFz+KfMn9qRelYp0HP9q0WB67ihJcbHExa1hyYyZrNgFSedsD9GHNsgPoWbeQLN6xrZUsHP5KueYuHDO2FYM0wWKzpptTsQs8/auXP4+k58MxL/Sw0yaagimAL4dmfTlFjZ9uYXtydnsGefLvHaj2fS7oe4y1ev/KZu+3MKmzftIObOZLvu70Xm24V+Lk+vg1LIcuW8wk1vOJOoT4xQU5ymcioiIS6lWJwwIo/E9tu3edwfSPDWZgnOHrlfnklkytBsbOxgvIQVUDySM7zlaZF7jBTLSCuemJs0ewpiMamTsmEv0jJlEz5jJvE1H4ciXzJsxk5V/YS7mX1K+Ir6+vvj6+lIruB/R84aT2tP2pKOMTS9S794XWZmSAfhS64HGJcx5vFoOkrTVmbmUFj9+TxyDCTLul5bt9fWtTfAzbzN/yCl6OHHilG9oTwYFz2XT1ThRzLs2PQb0Y9fH24r9MefUOji5rELehA6ZDm/NNXY4TeFURERcil9QGB2IJdl4FvWJo+z0D6SW/SO014mjrBzajsV1PmPty4ZgCuAfRGiHNcQlGcLCT7HEbO1HsyDzK6rd14uoPs1x9FGYTH9TODW6qxcRI79n4sJYywlPqcR9MpegaW8T9cxjhIaGERranHoOjxdfPceWvcaYtHF0+aczb36UlVGjOfXSY4SWUF7ryRFEJL3C/K0lfQeZpJaUYP+CjIxiAmcB59bBuWVZqf4Yw7t8aWx1msKpiIi4lrt6MXbiBSZOXURS/uHG1I1MGvUKjSf25PqdcWq+uH6fjHHMfr4eZGSQkf8oOLxcmx4vjmDj0KEsOWAJBL8nsWTqK/wxZbD5hCLAL3QwESNH2DwGdagNdR5m0MgR9AkuIUFdM+ZRtOYzJjB/D4A/1er4s3P/wYJD5KYfFzF/hu2rrqhzfxR+zhkZpP0Yy5LIdrQem8GkT8cVOZnKZP29ZKRyMG4RY9qH8NLpV1n1UljRHxRG5cMYPr050ZPnmkcaf1/DwJrtGPNhIsfyb1dlyiDpgxnMShtMhxK+q/z1+cMEmPK3pTD4Js24m3o9Z7Lpx1RMlikOppSNREfNJfhfbcz/XpxcB6eW5RRvgod9amx0msKpiIi4GG+CX97AqgYb6XG7J95lPfF+cDTHenzHkoITZK5DP25k/odH4YsXaXZ7ZfyrWj3ufb3gkKl321f5ano1VnasbN72258gxn8BH74UVHww8vSm2GsXXVXe+FbG/i1Wq/dkzHQYs2QjJiB42AbGHnsR/8CWdGjfkh4La9NjWhB+nvnr7od/W8My8Mb7Pn+wWb43+BvbrHnj6+9PzKCGNp916wGvk+g7mK/2brE9S72cL/7+axjY2Pq7CeH5NxPxfWELezabTzyzqccbb+v7B1v4PfkyUYxmySYTVH6MqI2D8d0xig5Vy5u/0wqV6bG2Gm9sebPgB4ddP86li2VdurwBvNHJsl7PEmOZ3hI0LIH5LY8xv0cTfG81/3vxDRnNsS47WJt/8qCT6+DUshzxB5t7e5a//H+rOltfROQm5apn69sykZFh+nvvz/43MmVkQGm2Pdt8UtXfoqT3NvabMsjAwX3rjbWlabuWint/B32mjAwo72s/yP9VpgwyTN742v1QCzm1Dk4uq4Cd7b3cS0lp5FRERFyYN76lCWc3mFKH8uLCxtVW0nsb+70dBFPs1Jam7Voq7v0d9Hn7lhAK/wpvX6fCpFPr4OSyCpS0vFJQOBURERERl6FwKiIiIiIuQ+FURERERFyGwqmIiIiIuAyFUxERERFxGQqnIiIiIuIyFE5FRERExGUonIqIiIiIy1A4FRERERGXoXAqIiIiIi5D4VREREREXIbCqYiIiIi4DIVTEREREXEZCqciIiIi4jIUTkVERETEZSicioiIiIjLUDgVEREREZehcCoiIiIiLkPhVERERERchsKpiIiIiLgMhVMRERERcRkKpyIiIiLiMhRORURERMRlKJyKiIiIiMtQOBURERERl6FwKiIiIiIuQ+FURERERFyGwqmIiIiIuAyFUxERERFxGQqnIiIiIuIyFE5FRERExGUonIqIiIiIy1A4FRERERGXoXAqIiIiIi5D4VREREREXIbCqYiIiIi4DIVTEREREXEZbrXvDswzNoqIyI0v+cA+Y1Ox9u/fT4MGDYzNpfJrarqxSURuUHfWvN3N2OYMhVMRkZvU3xFOz549a2wSkRtUlUoVLyuc6rC+iIiIiLgMhVMRERERcRkKpyIiIiLiMhRORURERMRlKJyKiIiIiMtQOBURERERl6FwKiIiIiIuQ+FURERERFyGwqmIiIiIuAyFUxERERFxGQqnIiIiIuIy3GrfHZhnbBQRkRtf8oF9xqZi7d+/nwYNGhibS+Xs2bPGpqLOZ5KZbWzM542Pj5ex8bqSdfoQe5NTMXELfoGNqFvJ/vZkHd/Lt8czwCeABwMD8PI0VgDnU9j3fQoZgG/NYBrWtL+sa8LB9+bt48PftlZZmWSajI2O96GszEyKlvvgoNx+vcPlZ5F5eC970y6Atz+NGtZ1uFy7Th9i3/kAx9+xU/uCk+vg1LKsZXLouwwCmgTYfNdVKlV0s3rqNIVTEZGblKuG00MfPc2YtZnGZkwp8exutIADi7pR1dh5PTi9m7mRzzJxb1VCAm4BLpASl0LAhI9ZEdHU6o96ChuGdqbvTkvduRQSaMeKBdNpW9NScv4Qq6dF8srqVO651x+AtB/iMbX9iDVzOpFfdu2ks2HQPby0rxX3+Fk1px0kwXQf495awPBQH6uOa8HOOmWn8uOOQxDYjReiXmNwS6s9KX09AwNHsa9lPfzyfwikHSQhGep2HUrU1CGEWO949urzv4dG44meO5KQSua2zMR3iBgygb2VWhFQHvN3ejyAcUtXMbyJE8Fv9VQinlvI7rGb+W1UU9tuJ/cFp9bByWUV8etn9G34Pk3jNjO4YWGzwqmIiJSKq4ZT+/YyN7Q1hyKPEf3ItQ45V0bm1hnMzOzEiK51KdiC40vp23gqjb76keFNLE0fdeeBuE785/3e1PQEyGL3W514+IfnCoN58lLGbA1gxKBWVM0PRud38/oj7Tk89EcWd73W8T2d1f3uYcMjRd87fdMEejyVyYhDbxNuCWvXhqN1yiJ9xzsMe/Z9fKZuZn7XAHPzr5/Rt+E6wvd9RNfbrcvTSZg3hIHv+fDqVwvomp/QHNVnp7N16hP0PD2KI3M64UMmW996i8xHRtE1sHDfPb7qaR6YeB9fJo/EEDcLZe3lg35PMJPnGFB1Kq9XtxNOndoXnFwHp5Zlx6+f0bfhs2zobPvj8XLDqeacioiIy0tf/RYTvabQ/zoNpgA+bUcy2TqYAtR8iPDO6exNSbc07GXDoj0M79fdEkwBvGg6dDyD1y5ly1FLU2BvooZaBQiAck1pFw4bjqZYNf79qnYYQP/QpezYXXQ0/O/hRdWWI1myuDeHnotkWf5n6ohXVUIilrLk6UMMjFzKcWO/kWdV2j4zgJDl8Zg32Ye2o6bYhEKAmi0fJTx9D8d/tWm25RVAyPDNfLNsJC2rGzstnNoXnFwHp5blSDvanp/Dsu+yjB2lpnAqIiKuLWs3y+bsov/w3lgdMbxBpJL2M9SsZAkNvx5i975WNKprONTrFUCjR+JJ2JsfYu1J4dBu6N+grrHDJXh5e1v+Xyb7Vr/DmH6daRF4Dy06P83E1YcojDTpbIh8mmX7Mtk950UebnIPLTq/yAf7ssyHnSc9bdt2mbya9aZ/6Ba27i4pdGH+gdBjACFbt7C7xHSazxuv/E22I+vng3zb8EHqWo+6FuFD3SYBtj9onOLcvuDcOji3LAhmcOSjrJ++quQAXwKFUxERcWnpG+bwutdQnupQ+j/Rri4rcR2fpY2kbXNLGP01hQ3Uw6/I0VNffPwgy3jCUVYmmZmZHN+3hWVjnmVm1Y8Y7GKfU/qmhXzwwwBCGlq2MXkdH+zz4ZGxC/gy8Vu+nNMb5nRixo78oJnC4UXrWTb+LfY2H8mKf3/L4qcuMLP7ECLGvIOp61tWbdNJuOx8GkDdJrDheHGB30rtejRhPSWWZ6ez9cOF/NivFY0MvzGyMjPJTD/E7i9m0CdiNwPeevbK/eBycl9wah2cXJaRd5MBjKg6lQ/iLvtLAYVTERFxaVnxLBy/i8Fj7fwBvd5l7mbuxKXUjXqOkJLOicEHHz8wZV2waT30yVD69nuaiPHjeX1BOo3q+l/GKNuV8+2sZ3m8a+fCR8t7CJuaylOrptI2f75pYG+iJ/Um5O6q+Pj44FOzHeHh6Wzd96PNsry7DqB/kwB8fHyo2/05nkr/jLTmI3mqofl15ralfJds87LSKWNsKN4txgZ2MXOQ1fZ27UyLhiFM/LU3Kye1s/0uMrcwo9/T9B0UycSJU9lbvRE1r+CX5dS+4OQ6OLUsu3wIf24ou6ctoHQz2m0pnIqIiMs6/sk7zGo0nv6hJaa368v53czq/i8SOn7M7M5Ww6SeOLgSQTppP4G3l208qvv0R3y+ei2fr93FgV/XEv7Dv+g5b69NzbX04HPTWbzoIxYv+ojosd2oW8mXdpHj6Z8/aprvfAr7dsSTsGM9y+a8w+rdsO+87WhbyL2WE5UsbgEerGtsSwfjaLLTsjCdM7YVI+sCGcY2ghkcZd7exYveZmzXuvhVeoix4wfQsJyh1Kcd41av5fPVa/nyuz/4JtKXDx4dz9bThrrL5NS+4OQ6OLUsRxo+y9jmc5i5uqQhZscUTkVExDWdj+eDaXsYPrS740vYXI/OH2LZqH+xpZ3xElLA7XUJYQ/Hi0zau0BmutXcVHu8Auj6TG92fxL/l0at/pJyvubRUB8fajbpTVT0ENL62Z50lLk1kgeaRPLZ8UzAh5qNG3F3sXMer5Yf2RfnzFxKi0N7SWAADe+2bfa2bK+PTwBNe00n+rlU+jpx4pRPy270b7qQrVfjRDEn9wWn1sHJZRXyIuS512DO+8YOpymcioiISzq++h3mNhrPv1reSKOmKawe1Ylld33MilGGYApQtREhbdeTsM8QFo7GsyGuN02NI5AGmRnFhIy/Q+3uDB66h9c/jLec8JROwuqFNJo8ncm9OhHSshUhLYOpW0zmvlqOr3qLiWkjeSTMmTdPYfWsCaRFdCKkhPKaXYcweK8z8y4zSSspwf4Fzu0Lzq2Dc8uycnsnBodvMbY6TeFURERcz+ktzJ2WxrjIG2nU1Hxx/YFnInmjb13INJ90kpmZSeb5/JoAug0awpZRo1iWbAkEp/ey7M2pZE4YQDvLvM19c4J4oN87bD2cXnCSVNbxLbw7ayFNn2zlQvNzzaNoD86Zygf7AKrid1dVvv3hEPlxJ+vwUhbNsX3VFXU+o/Bzzswk/XA8y8Z3puPETMYtjSwy39dk/b1kpnNox1Imdm7PK6fHs2REq6I/KIzKteKFqcHMzZ93eXo9EYGdmbh8N8czLYE1K5N9H83h3bQBtG1afNrNyl+XC8CF/G0pDL5O7QtOroNTy3KKF00HfWRsdJrCqYiIuJz0Hav4oPlQnirx7jnXkcNbWLQ8BTZF0qZuLercafVoMqPgkKlX6HjWTPVn9eO1qFKpIlXqPs0Gv3eYH9GoIBg1HLSZ6OYpfNA3hBp+FalSqSI1HhrP8fDNrBjUyOpNrxUvfCph/xart3djxFSYuGwLWUDTQZ8y4ngkdZq05/HO7enzYQBdJzWiqmf+1lWlaqhhGXjh1bAq2CzfC6oa26x54VO1KhuGB9t81h2HzGC37wDWJK61vTtTOR/8qq4noqX1d9OeiFm78X1uPd+sHUlT63mk5Xzww8vuNlftOorJTGDZ1iyo1InJnw/Ad+fLPHanv/k7vb0Wfb7w59V1VieK2XN4IT0t69IzGojublmvIWywTOl0al9wch2cWpYjVcHmylnlbOcHl4buECUicpO6vu4QdXPKysyEku5Nn5VJpsnR/dyvoWzzCV0OGfuzMsnEwX3rjbWlabuWint/B31ZmZlQzsduqP3LnNwXnFoHJ5dVwM726g5RIiIiNxivkoIpgJeP8wHiaiou6GCn38tBMMVObWnarqXi3t9Bn5dPCaHwr3ByX3BqHZxcVoGSllcKCqciIiIi4jIUTkVERETEZSicioiIiIjLUDgVEREREZehcCoiIiIiLkPhVERERERchsKpiIiIiLgMhVMRERERcRkKpyIiIiLiMhRORURERMRlKJyKiIiIiMtQOBURERERl6FwKiIiIiIuQ+FURERERFyGwqmIiIiIuAyFUxERERFxGQqnIiIiIuIyFE5FRERExGUonIqIiIiIy1A4FRERERGXoXAqIiIiIi5D4VREREREXIbCqYiIiIi4DIVTEREREXEZCqciIiIi4jIUTkVERETEZSicioiIiIjLUDgVEREREZehcCoiIiIiLkPhVERERERchsKpiIiIiLgMhVMRERERcRkKpyIiIiLiMhRORURERMRlKJyKiIiIiMtQOBURERERl+FW++7APGOjiIjc+JIP7DM2FWv//v00aNDA2Fwqv6amG5tE5AZ1Z83b3YxtzlA4FRG5Sf0d4VREbh7eZT0vK5zqsL6IiIiIuAyFUxERERFxGQqnIiIiIuIyFE5FRERExGUonIqIiIiIy1A4FRERERGXoXAqIiIiIi5D4VREREREXIbCqYiIiIi4DIVTEREREXEZCqciIiIi4jLcat8dmGdsFBGRG1/ygX3GpmLt37+fBg0aGJuvGtPvyezZn8oFwLd2c4ICvI0l16XC7boF/wZB1Ktsf7tMKUkkHv0DKtaiWf3aeHsaK4BzR0n67hgZrvAZncsgI9vYCN6+vhS7VhlHSTpdkaC7fI09AJhSEjlWrhn1Kht7rJk4tucU/vfVdvxepgwyTMZGb3x97b/ClJFB0XJfHJTbry9m+dYyDiSRdU8Qfva+Y2vZJo4d2MmxPyh+v7B27ihJafY/34J98RZ/gu4LdLxtzuyLdniX9XQztjlD4VRE5CbluuH0KJsin+P5T1Jp3PkxQitnEBfzOd9XGcyqz8cRXN5Yf534PZHoob0Zk+RHaO1bgAsc23qMWlM+I+alZlah6igxz7anxw5L3dljxNGRmI/fpkOApeRcMisnv8hLn6QS2MAfgNT9sZge+pRNCx6jVsGyrpVUYvrWYFhSGIHVrJpPJRNnasykOUsZ07ZoOAITcRPq0OHDXmz64U1C7Xy3u17zpHvqevbM6Yi9JQCYto7mnoeP8sbRT+lR3diL/fXLTiU5Lhnq92T4rOlEhJo/R3P5GvrUHEpSaCD++UHsVDJxB6DekyOInj4C63K79fnfSdCrzF80jlAH4dr0n9d5qPkrdEzIZkywsTefiYOfvEJE5HJS61ne41QycaaHWbnpfbrk7xdFpBLTtwk9TNNJWdETv4J2E7ve6ET3dy37T3YqyQdrMXz9p0TcZ51QndgXi3G54VSH9UVExKVkbJrF83HN+XDvPmLmvErExLeJ+X4/7z0wl+5vxNoZnbo+ZHy3jdQu60hN3sGmL7ew6csdHDz8Kr4TuhG9q7Du2Acv0uPcWA7us9Ql7GN7h//SZcwK0vKLUnaS6D+Ob3/eZ1nWFpL2bqFH0hOM+SS1cGHXkMkEzccsLVifTV9uYdP3J0h5K5CYh0cT87vxFcBPy4n+8HEGdl5O9Oqjxt4Cae9NYP4uR998EvMnzyz8bBwosn6b95Fy8Rzfzgok7ukm9PnE6v1zTJhozpjFtttiOvMd0Q1ieebB3qxMsVq4vfovt5D08wmi639Oh7FryLAqL3AukeiIV7D6+h04SuIOf8Z8e4Kkzfnrs59NPf5LD+v9wuDYJ5EMW1Z0fzBtfYXun5n/jeV/Ftun+zJrwEysP2an9sWrQOFURERcyrE9n5PW5WFCbYbJfOkQ3o+0I6lkWjdfR3w7jCPqyUDb0b+Ah+nSNZWkY/kBIomY+d8z5vle1CoYgfMmeOQUIlYvYuNPlqb6/YgeGWZ7GNg3jI5dIObIMavGv5/fI4MY2HYRcbuKxrOkmLmkDutH9IARpL6zhiRjgUVoh2rMi15jNxBlrJ3LrIodCTV2OMUbv9BxrFzRj4O9X2RJ/ufriLc/oS99yqr+yfQZuogSP2lPfzoMGEzoh7EkFtl8E7tmjyKxz/uMMXYVEUifOYbRWnwJ7fA4rD5qfz1SVjBpUjUmz3nM0JFB3NqZNB7S1+bfWK0nX2VylVdYsyM/nTq5L14FCqciIuJSajV4HI6dKjLSdOzg91DZFy9D+/UtldQjUKuSJSWcTCZxTxhB9QyT/7xrEdQ5lrikoqNghTL4IxVC/QsP3roSby/DNpliiZldjYFdguC+xxhYbSYxcfZHR32fepk3iGTWVkO/KZH5U08xeUQvh4f8neHdoi8D225kU6Lj0dtC3gT/azChmzaSaD16WixvvI2b//XrDNv/AtH973U8T7YEGb+nQlt/q8P1+Y6ycswMai18lY5FPpiDJL3nT7MGtQ3ttQkMhhX/OWh++pf2RfOo8OVSOBUREZfi+8hwlmSPpkfkIuJ+TCUjNZm4D1/kmbeqsXKU43mH1yPT15+zMm0cHVpaAsCJo8QQSDWbETKAivj6g8nOCUcFUjay5L2O9Ag1ho6/V9oX85i/fzChQbYhJ+OrFUQ91I8udwHUpkv/h4maudz+KCC16DFmBHFv2/Yf++Q1Yrq8TI+7rRovizmYxRyzNzZrx1330ow1FAx4O5KdyqaFc0l+PgybzT+XSFREMhFRPf/C/OCjbPp4Lh2eDCuyjGPLRhNd7x3GtLATe08eJYnm1Cqyj4GXbxBp2ZYfAH9lX8TErhlDjI1OUzgVEREXU42g8Mdg9itEDO1Nj37PMvDZuVTs8hhBdk92uU5lJBI9ZhH1Zg0m1E6GsOVLRX8wmS4YO8yyj7JyUiSnpkyhx13GzmtnZ1RvOjzcrvDRuAYPjj9Fn/Vv0sHmhKAklkz9kjFPFf7Y8H2oH5NOzSVmj3Wdlfv6MSlgGtFfWMbUz8UyP6o2k563PpnsL3DyDPR8Rd9zJ1F9rbb94XYE3dmEMSf6sXaa9Y8qE3Gv9ebYqDfp4cRJRY4cW/YKL514lUlPGn6M/LSIiPmNmT2y9J9LNf/a4GgfK1DCvmiZ0/rMsZHGZqf9P6cIeJhukHEvAAAAAElFTkSuQmCC;" parent="1" vertex="1">
          <mxGeometry x="803" y="258.40000000000003" width="420.74" height="448" as="geometry" />
        </mxCell>
        <mxCell id="eZxm1p6L29dhZQKVZIDZ-23" value="Control de Equipos" style="text;html=1;align=center;verticalAlign=middle;whiteSpace=wrap;rounded=0;fontColor=#ffffff;" parent="1" vertex="1">
          <mxGeometry x="808" y="584" width="151" height="30" as="geometry" />
        </mxCell>
        <mxCell id="9BwLQ7M6hUQkv6m_WWgl-1" value="" style="shape=image;verticalLabelPosition=bottom;labelBackgroundColor=default;verticalAlign=top;aspect=fixed;imageAspect=0;image=data:image/png,iVBORw0KGgoAAAANSUhEUgAAAc4AAAJ4CAYAAADsnQNFAAAAAXNSR0IArs4c6QAAAARnQU1BAACxjwv8YQUAAAAJcEhZcwAADsMAAA7DAcdvqGQAAIIrSURBVHhe7d13fBTl2sbxXwSCoCCEpkTq4RUQQWpAg6CguIh6UESKQCwgNpCgWKmiWFBiwYKgSJFyAEUEiVhBYgko7SDFSAkGaQlKPEQCSd4/ts1OZpfdOEB2c30/nz2wzzM7Ww7myv3cMztROTk5BYiIiEhQzjIPiIiIiH8KThERkRAoOEVEREIQdfTo0QKAggK1OkVERE4mKjs7uyAvL4+CggIKCgrIz89XiIqIiPgRtWHVhoK0lDTSf0rn4C8Hyc3JNW8jIiIiLlEjGo0oUIUpIiISnLMUmiIiIsHTUbUiIiIhUHCKiIiEQMEpIiISAgWniIhICBScIiIiIVBwioiIhEDBKSIiEgIFp4iISAgUnCIiIiFQcIqIiIRAwSkiIhICBaeIiEgIFJwiIiIhiHq44cMhXB6lAdfPH0DHS8uRs2ElM3stJa1I4yIiIuEpxIqzBY0vLQdAuUsb06LI4yIiIuEpxOBcx5YNOQDkbNjCuiKPi4iIhKcQl2rDQ89PJhJX33csZ18GW6ctYM7sDN+JMND5/WdxtCoNeRl82/VlPkw3byEiIqdLiBVneMlJP8CBXw5wICOHcufH0mLkXdx1s3mr4q4zjRuXdv61VCyNHmxg3kBERE6jCA7OHDLmTGTiDROZ2Hk07yRnARVo0Mth3rBYixnZlDrlIWvVVrKAmKZxKDpFRM6cEJdq/R0lG+r4qeVcqs0h7bnRTHnPNXj7YJ56rAHldqQy4roFULsF14+8mri21SlX1rlJzr4Mtk6ZyZy5WcRMGMHjN1cn54eljE5YCUCDlx9nsCOGExu+4PFeyQA45j9L50tz2ProU7zzEcR0u56ew+NoEOs8KOrE4QNsevUd5szNAjoyOPV6GlTMIu0rqNshhtL/S2Np3BScz2AWQ89PHieufjZbH53D8aGDaRqbzdYnnuKdD9zbuPd5gHUPpVF95OXEVgbyTpC1NoUPE5ayFWDCCCbeXJ2cH5JZeSyOq+NjKF0KOHyAdZ7XB1x1PXeNiKNBnXLO+WM5pE0ZzZQ3vK9KRKQkC7Hi9HeUbKjjZ0DFMpTBGQTQiJ5v3UrHDtUpk53B1o/WsfW/2ZQ5P5YWj91Fz6sga+l+soBy/2rget0NuLxpDAClY2NdY5dTp3ZpOLKftI+Aq3py14SONKiaw+7kdaxL3k1O+erOfV5ufDExNGiexee9RjDCb2gClztoUB84lMFPH6Xx7SZn1RzriDNvCcTQdEwLym3fxLpVGWSfKE1M247c+qbvtmWaXs3VF+eQtnQTaTtyoHJ1Wjw2gOtrA8Rx1/iONKoPR9ZuYt1Hm0jbDxUv9NmFiEiJFmJw+jtKNtTx0yv25pt4oE8dSnOCjB++hfuupmX90pCxiRntX+adR+fwzi1P8eGqbChbnaa3d4RvvyUjA6hanca1gdotqBEL2fuyoWp1ml4OXN6AmMpw4pc0VgKdB7aketlsto57lsnD5jBn2GTmfJUFZavT4FbjAusJds+dwhf/NQxZiLu9ATFA9qafWAekfXWAbKBC6zg6mzemNPuXvMyzCTOZc/fLPDVuq3Pbpk19fmEpfTSND9u/zDuPzmTKdS/z7RagbCwN+gLUIaYqcDSLTRNnMufRmUzp8jLvvGXYgYhICRdicKaxtNdoRjQawWifZddQx0+HcjR4bCITt05k2ITLqVMZsr9NZuZzWVzeujqlgay1rmVMl9Rv95MDlKtWHUhj0/ZsIIbqfYG+sVQni7QP9pNDDDEdAEcNYjhBxg9fAJfToH5poAKNJjifd+LWiQx2OKvUcpVjDc+Uxf5XDXctxdH04gpANhmfuX7l+OgnMg4B5WNpPNS8/QEynnYttwJ8kMb+I0DVGJ+eaM6vaaR67mWxcrvzMTEXXQ58waYfc6B8LB3nP8tTnwymZ79yZOkoXhERjxCDM7w4j6rdzdaPUvniiZd56s6VGKLlpNb94AzSmMYdcbSoARkZpL6aQVYe1GjhwNEwBvL2s+tVgDJQCiCLTY/OYY7ptuCNTebdB3ZfHA2qYgrivjSqClCaOlfdhDOS/alAuXOAozlkm6cM6lQsA0DOkQNAFsm3vcyUiamk7T5OufoNiBv5ACMmNDI/TESkxIrg4HQfVTuZdx5dQPIH3vM3v3VXWS0cGCOhUasalAOyf9vtHHhvNweOQrl/taBRvdJkb99EGt+SsRtKxzagQWxp2J3BtwCsdC7tEkPs5Tms+2idz23TD6FENjg6xlIaOHHIdUqN55bNCYDGDehc2/iIGGoM9UZpzNC61CgFHMryqfTLXVjH8J4b0fSiCsAJsrenAbHEXpJF2jsLmHLdaJ4dl0Y2paneIf7M9qdFRIqREIOzAdfPf4qJWyfy1PzrDUuAoY6fYc99y6Z9zr5lwuph3PV8X+5aOJqEayrAsQx+etq9mJlM2i8noGossRVz2P/DOiCLdduzoGod6lSFA+u/8FSxSz9Kc1ao/05g9MK76Pt8XwbMGMHoL+6io+HpT6r2TTS6pDSQTdok1yk1ntscNqUDVKeBzzmdpalz1wMMe9v5nMMGO3u6u5cm+y6Rxzal74rBDHj+LoatTqBpLJCxhc/fALicvu+PZtjbfen7fF9u6htLBeDEvv1nrD8tIlLchBic/o6SDXX8TEtl5oAPWfffbI5XjqXRv1vQqHE5ju/YysphL7PU0NNLXrff+ZejB9jtOrXFfZAOZLF/qaGSfG8KU17dxIHDUOGSRrT4dwuaNq8A+/YTyvcVNXiwEbGlgPQ0VnpOO3FLI3mVc28xbTviPWb2AJtm76dc6xY0bVudcseySHvvP8x51bfSzfnhW7Yei6XpvxsRW7U0Ob+s48MHZ7p6vVlkHS5NbIcWtPh3CxrVh+z/ruPj4Ut99iEiUpJF5HmcJYv3PM7URhNZYJ5285zH6T0vVUREQhdicErxo+AUETmdQlyqFRERKdkUnCIiIiHQUq2IiEgIVHGKiIiEQMEpIiISAgWniIhICBScIiIiIVBwioiIhEDBKSIiEgIFp4iISAgUnCIiIiFQcIqIiIRAwSkiIhICBaeIiEgIFJwiIiIhUHCKiIiEICr7yJ+6OoqIDQoKCsjPz6fAecdzHyA/vwBwzbvmCgqgYsUK5t2ISDGnilPEJlFRUZ6bmXHOal5EwoeCU8QmBQXOxRv3n+Y5401EwpeCU8Qm7krSWFEax1RxikQGBaeITawqSmMVajUvIuFHwSlik0AVpSpOkcih4BSxSTA9Tn/zIhI+FJwiNgmmx2meF5Hwo+AUsYlVD1M9TpHIo+AUsUmgHqZ6nCKRQ8EpYpNAPUxVnCKRQ8EpYhOrHqa5x6mKUyT8KThFbGJVUarHKRJ5FJwiNglUUariFIkcCk4RmwTT4/Q3Xxwd+vhNXv/4kHlYpMQL+bJiCQm3s3//PvNwUGpUr86MmTPNwyIRw31ZsQKfy4cV4MxK72XFnH8W78uKHfr4TebTk/tvqGqeEinRQg5OEbHmCUTnHc99wvR6nApOCRdT+09j0KyB5uFTRku1IjYJ1MMsyT3OzW91pGPHR1l2oNAMb1iOhyvf97P5rY50fGuzeSNbZC1/lI6PLCPLPEEWyx45dc97Jv2y+he/bY69W383D/nY/FZHHl1e+NMqKgWniE0C9TB9l20Lz0e6dm3hhQ8i74d5IE3uWcnKe5qYh20R0/V5Vr7QjRjTeNby59nd3+bnzTMP+Hc8hG1DtX31Lyx9dlmx+O9HwSliE3claawojWMlteIE4KoO9Jp7H29sMk+IfbL4/cJHua+pefyfOM7mxc/y1k9HzBOFZP70Hi8s3slx84RNrnukK8f+d4wlTy894+EZcnAmJNyOw+Eo0i1hwADz7kQihlVFaaxCreZLjsu4b3Iv5j/wBv7qzqzlj5qWGJ3Ljj5hu+kNOnbs6Lq5l0UttvMZcy1feh7n/zUE3HbTG87lUeNrsFwudSr0fg4s41HPfg1Lhz7vqfCSonOp2/R63K/Fs1UWyx65ifseuMn02bhmXa/FuC/z81grQ5Mew7jsl9cDhmfmT+/x1i+XM7xHPcqYJ20SdVYUNz91E38f+fsfhqdrSX2T9/8P52exmTfMnzMY/i15/23o4CARG5mPqnUfHFQ8j6rdx5op37HHPOzy97Y09nAh/9fwbPOUSy0uG9yaC8zDJpvf6sjMOh/yfNcYNr/Vkft4w7WUuJk3Os6kzoLn6Vbd+cP9pt0DDMuMzjDY3X+ls4ra9AYdH4A3Vt5HE1z3Z9Xhwxe6gfmxhrmYA8t448fLuK9rjGefq65yvp5CAm276Q06PjAf+rhfv/O9BfV+Dizj0Z6r6OCag80sW34B3brGsPmtN+Aew3syvEff/UPW8mX83rUbTYzvz/U6X6jv3c68n6zlj3LTc9/Ta7Lxs9zNI57XczI5bJj/Mt/93/3c07Kiz4wnNHtdRDmfmdD8+OFPZB/KNg8Xkn8in+/n/ECLG5rT9REHAOPajGfMmlHmTT2M/wad/z/dx/y2j3j+fTza8wW+p5fr8zL/G3F9vj+083xeIVecImLNWF2aGStNq/mSosk9b9Br7swiHRC0OWU+7R7r7QwYgKa9eYRVfHcAYlp1oN3clZ4qYXPKfNpddZmzB1i9mysIAWK47Kp2fL/bz8EkJ9u27SN8aOgfNrn5EZ/n9WfzBy/AY48aQqoJ3VzP08QdmgBNO9KL3ew64AzxmXN78Ybh+WK6dvNu63bgO1b94LsdTXvzSNv5rDRW4X3e8C7jNu3NI22/Z/d+w3xA5bi0V+HK067QBPj7z7/NQwHl5f2Thmo7HnnY1SOufhkd2mL4t2Xx/zvQa7L3lwwFp4hNgulxmufPrPNpM/gmbvZz63LVuZx71TWFxr23k1ebhTWh92Pwwov+lzitZbFrB3z/nHspsiMdO97ECz+4fvhX78aAPu6g2MzKub0YYKgojUuUNz33vXHHhYSyLdXrUsc8Vojztde50KLCxbyEex/z3eP7d/N92zon/4wtt4uhbn3Y/Vton3JgxvDMtDU0AeJvv5wrB3UMeOtw5xUc3HGIJl2a0O2x68y7KCLnZ+X3/x8LCk4Rm1j1MNXjLCym66M8wgs8v3yXeSoA5w+3XpNXsnKl781dRTWJ78X8lM2waSXz+3T0VGbuZTr39h8+1s64Yx+hbAvAgV3sNo8VEiDEDizj0Z67GeB5P2/Qyz1Xow7tftiNn9rYK8B2oYRBcNzh+SLP2xiawSjIL+CD0R9ydsWzuXHk9Wf0F9CQgzNhwIBCB/0Ee9PBQRLJAh01W+KPqvURQ7eHH4HnXvBWV0DMhXXAsOyZtfx5XvjBO98kPvDBRTTtSK+5K3kjZT694t2xaa72svjuK39VZBDb/vAC8zzLn1kse/EFMC4f+9EkvhffP/e8YYl6M8uWZxWuFjet9H4m1S+jQ9v53Gc4wChr+bLC799iOza9wX1ze9HR1iNs3cpx6S3P8sJpDE2AT15YztnnnrnQnD/Lu0oScnDOmDmT5OTkIt30dXsSyQL1MFVxmlTvxqPmaq7pfbzRZz73uZYtn2cAj7T1nf/wsd2e+Y4dzUe1NqFjn/nM3/EIvT2BEUO3/r2Y/4D7Mc+zu76/KjKIbds+Qp0Uw1Jx/TesDzIya3ofKyfX4YWe3iXZ3RfGuPq0L3CT+/2k4K04iaHbCx/yyI77vEvHX2GxdFt4O5+DqE6FUuaBU+9fbevT7bHrzkhoAvS6Cp53fb46qlbERuajar03iuFRtYHpK/dMfI5kleLkuate4LGvHjEP28R0dHdRKk4RsWZVURqrUKt5EfnnTl1oWlNwitgkUA9TPU6RyKGlWhGbuKvJ/IIC/F0dxbtM61y+Lc5LtSJiTRWniE3claSxojSOWc2LSPhRcIrYxKqHqR6nSORRcIrYJFAPUz1Okcih4BSxibG6NFPFKRI5FJwiNrHqYZp7nKo4RcKfglPEJlYVpXqcIpFHwSlik0AVpSpOkcih4BSxSTA9Tn/zIhI+FJwiNgmmx2meF5Hwo+AUsYlVD1M9TpHIo+AUsUmgHqZ6nCKRQ8EpYpNAPUxVnCKRQ8EpYhOrHqa5x6mKUyT86eooIjYpcF/5xHnHcx/D1VG8V0YpoKAAqlXTRaJFwo0qThGbBKooVXGKRA4Fp4hNgulx+psXkfCh4BSxSTA9TvO8iIQfBaeITayOmjVWmVbzIhJ+FJwiNgnUw1SPUyRyKDhFbBKoh6mKUyRyKDhFbGLVwzT3OFVxioQ/BaeITawqSvU4RSKPglPEJoEqSlWcIpHDtuDcm5HBiEceYcQjj7A3I8M8LRLxgulx+psXkfBhS3D+vHkzicOH0+mqTnS6qhOJw4fz8+bN5s1EIlowPU7zvIiEn3/8XbUpKSm8/PLLjBw5iksvbQbAhg0befrp8QwbNoz4+HjzQ0QiUoG+q1akRPhHFee8efN46603eemlFz2hCXDppc146aUXeeutN5k3b57PY06FLdMcjF6RZR62djCZ0Y5RfHrQPOHr8IpROEYmc9g8IeJHoB6mepwikaNIFWd+fj6TJk3i1x2/MuGZCVSuXNm8CQCHDx/miSef4F/1/8Xw4cM566x/lNN+bZnmYG7tOTzVJcY8JXLauCvJ/IICVZwiEaxISfbCC89z5MgRXk5K8huaAJUrV+blpCSO/PknL0580TwtElGsepjmHqcqTpHwV6Tg/Oab1YwaNYqyZc82TxVStuzZjBw1im9Wf2OeOkW2MNUxik83JzPa4cDhcOBwTGWLed6wVLtlmns7w7abp5qWarP4dKRxu5Mv90rJ4q0kdR6nSCQrUnDm5eVRpkwZ87Bf0dHRHD9+3Dx8Cq0haS4kJieTnDyHxNaLSJzmjU6jLdMcJJJEcnIyycnJzB1ey7yJKzT7klTXu13yS7VJ6m8MZCnpAlWUqjhFIkeRgtPKx0s+Zvbs2cyePZulHy81T59mbUh80IFzETmGa/v0gF27Cx/oczCZuQt7kDSwsWeochcH3nsuB1NJWeu7HU16kNh6Eat11o24GKtLM2OlaTUvIuHDluBctWoVHy35yHN/8UeL+e7bb322KZYO7CG1dS3ON4+bWW4XQ+26sCcjyKN5JeIF0+M0z4tI+LElONPT07nyyivp168f/fr148orr+TXHTvMmxU/1WsRt3YP+8zjZgG2qxWrI3nFyaqHqR6nSOSxJTjDVrU44k39z8Mrkgv3LS22Y/NUEhf2oH0T44ZSkgXqYarHKRI5SnZwEsO1T88hcVei52jZPquwWLotvJ3jIUhKHlS4HyolVqAepipOkchRpC9A6P7vfzN9+nQqxziXKd959x0qnFOBW3vdCsDChQvY+/vvDB0yFIDc3Fx69OjBxx9/7LMfkUjj/sq9Ap8vOijAmZXeL0Bw/qkvQBAJR0UKztdee41PP/2UEydOAFA5JobXXn2VqlWdPwR27tzJk08+SVaW98CZ2267jf79+3vui0QaTyA673juo28OEokoRQpOEbFmrjjdwamKUyRylPAep4h9gulx+psXkfCh4BSxidV5miX9PM5Nk9vRrl07Xt1gGMzexfbd2YaB0+hMPrdEDAWniE2MBwMZx8xzxbri3DKdm9s5w+7F73LNszbYxvQBvRnQqxtT/mueO9XO5HNLJFFwitgk0Hma4XIe56YvprPX9feFy1OwvzarRuzFFaBSPPWqm+dOtTP53BJJFJwiNgnUwwyLijN3LZ9+kAuNr+LKxsCKFXz3h3mjfyqGLs98xvfJz9LltIfXmXxuiSQKThGbWPUwzT3O4lxx5q7/miVH4aLrBnPPdQ2Br/gy1f6aUyTcKThFbGJVUYZPjzOXtSsXkktDboyrS924G7gI+Hr512SatjQe8JP543SG39iBdu3acU2vx5n+48kuepDFksR2tGs3nCUHDMN52Wxf8SqPDbiODu3a0a5dB7oNeJFv3bl9YC0LJz7OANdztet0HYMmfsyuo4Z9nHQ//p47i02LXuSBXtc4993uGnoPfZEl231/aTC+770rXmTQjR2c+x/8Il//7rMpkMuuFa/ymHufjt48MPFjfHbpfq3G5330Y89SuRRfCk4RmwSqKIt9xfnHVyxZBDS+gdZ1gDqtubEx8N1HfPWbeWOnv1a8yE1PpnBup9u4pX0Mx3Z/xZT77+PVDSEeVJS3lxWjb2bA6Dl8/Ru07nEHd9x5I03J5q8c5yab/vMAr35zjGbX38Ydd97BLZccZ9OiZxjw3FfePmwQ+ykkby9LHu3OoIkL2ZjTlFvuvIO+XeuQmbqQCQNuZsLKwhX3rlnDSZidTdPrb6HLRZC5YSGPDZvO9jz3FrlsmjyA3qMXsrfhDdxx5x3c0bkq2xY9w4CB3u22zx7EgNFz+Lbs5fS98w7u6H05FTbsLPSLihQ/Ck4RmwTT4/Q3f6Zlp37N18BF17WmLgB1aX1dQ+C/fPqDdQ20ZFtNZi6bxlPDBvPwi58wb+TlRLOLOe99GtIP/+yvp/D0F9lwyWBmLv2ESSMGM/juh3lu5jhPL7Jm1xks+3ASD989mMF3D+bhpGfpC+Su+JofXdkWzH7M9i4ezYTVuUS3f5J5rv0PHTONZVP6Updslry80BCITt/mXcWM6eMYevdQnpo+lcEXALs/JuVX53zuhrcYM3sXlz82j5lPDWXw3YMZPGIyr99dE3ZPYUlqLpDF1vW7gNY8/Pw4ht49mMHDxjF1wR009H06KYYUnCI2CabHaZ4vHrL4avlX4FqmdXMv125a+i27fLZ36tLnBuqW8t6v2eUWbgT4bmcIy43Z/LjyU3KpyeCH7uCi8uZ5pyp1a5L548fMeftFHrsjgd7dHmAOANkcyXH+Gcx+fGXx3+/+C9TkjrtvoKbhvURfegt9WwG/ewPR7ZZbr/VuW6ohTTsC7CXbVdVu+2Ehe4Fvn7vZtQTrvA142/mp7M38CziXmhdGA2t57dlXWbJhL7l5QIUKRHueSYorBaeITax6mGHR4/ztSz7+DmAbL/by/qBv1+tFtgNsmcNX280PgqpVK/gORFcswg/94xzJBqhLlSrmOZe8vSx5tBu9h07k/R+zqXnZDdz51FCu9NkoiP1Y+DsP52MqmWdqUq8xPoHoFl3e912WLe1zF3KdS9VXDpvM5FcL3+5odS4QTet7Z/JEj0sgdQ4TBt9Mh24DeXFF8L9yyJmj4BSxSaAeZnHuce79IZlNQHT1hlzU2HSrHg3s5ePV28wPA+c1HrwO7HRWpuXLmiaCsYtMP6e+5KbOYcLqXLj+OT6cMo6hd99Cl7hm1DRvCAH345/VY/aycwtAQ2oWCtUgxTSkdVzrQremF7iCt3xdbhwxjc9WfcDMp+6gae5/WTj6gdB7xHLaKThFbBKoh1l8K85dfLvUtVz54gxmTjfdXhvKRcDej78t1OtbOPdj9hoPiPnP+3wLRHdrFUKfLobW7S8B9jL9beP+vLIzXVXYudGeijZ3w5d8a9woiP0U5v8xuRsWMudHoM6VNLvQ+JiTq9v4WgC+fmc6m4xH/eZls+mLta7+bxZ73QddRdfkoi6DGXe/87Xs2vOX4UFSHCk4RWxi1cM09ziLXcW5/SvmbAEuuIH4i8yThqNrf59Osulr6hr+8REJg8fw6ttTePHh7tw/exeUv5yR/VuHtGRbs+sw7rgomtzVz3Bzt948NnEKU95+kccGjGHFAajS2HXA0rzHeWDiFKa8PIaBL/nGZjD7sVLzhmEMdj2m903DefHtKbw6biDdBs9hV/mG3PHEbVxk6H0Go8KVg3mifTTsnsOgmwcy+mXn6xh+UzcGLXWft7KXhbdcw6BxrzLlbed7euz1/wKXcHlT53WOpfhScIrYxKqiLO49zu2rnecN1ux+OVa5CXW5/PpLgFwWfr4W4yJi03uTmHRlNp/Om87C1cep2XEwk+dN8nsEq1/lL2Hw9MVMvvsqLorey9eLpjN93pfsvaAuF5QD/tWXSc/cQtPqx1i76H2W/FaXoS8/zOWh7sdK9CXcMX0xkx+4loasZeG705mzci91uw5l8rwZDL40lF8BXErV5Mbn3a9jOyvmOV/Hoca38NS9V+Jswdakdb/WHPtxIdPfnc70JWugTV+eev8Nbqlj3qEUN7oep4iNSsL1ODdNbseg2dB3yvcMvdQ8KxL5VHGK2CSYHqe/eREJHwpOEZsE0+M0z4tI+FFwitjEqodZ3HucIhI69ThFbFQSepwiJZ0qThGbBOphquIUiRwKThGbWPUwzT3OYncep4iETMEpYhOrilI9TpHIo+AUsUmgilIVp0jksDU477vvXvOQSIkRTI/T37yIhA9bg3PHjp3mIZESI5gep3leRMKPrcEpUpJZ9TDV4xSJPBEVnFumOXA4DLdpW8ybiJwygXqY6nGKRI4ICc4tTHU4SCSJ5ORkzy2J1Sg65XQJ1MNUxSkSOSIgOLP4dGQie4bPIXlgY5+ZxgMH4TsicupY9TDNPU5VnCLhL/yD82AqKWt70KdLoIu/bmGqYxSfrpjqu4S72XXf4cDhGMWnB72POLxilM+y79TN7pksPh3pYOqKZEY7HDhGJnsfJCWaVUWpHqdI5An5u2oTBgxg/wE/l1MPoEb16syYOdM8/M9tnopjbi3mPu2gsnnOYwtTHYksuiXJW5VunorjIUhKdlWlPvvJ4tNpqcQNdO7z8IpR9FkV750b2Zckhp3kOaUk0nfVikS+kIMzEIfDQXLyaa7Agg7OOdSeNZ5rq7lGpjmYW3sOT3kq1Sw+HZkED3q38TiYzOj+e+iTPIjGruBM75PMoCam7aREc1eT+QUF4P67Kzjz8wsA75hzWwWnSDgK/6Xa6rWIW7uHfebxgLJI3wWpk/oalmP7krR2DenuYtq4jNv/ZVJNexAxC6bHaZ4XkfAT/sFZLY741otY7elBBiOG2nWhx0veI3Ddt0FNDFWse3zWMOLMuxAxsephqscpEnnCPziJ4do+PVj0kIPRK7J8ZrZMm+r3dJTGl/Vg0UPW84cz0qFuHc/S7+F1Kao45aQCHTWro2pFIkcEBCfQZBDJyUnU8ll6dTC3dg//p6M0GcTc4ekkGr8wYWQyh4HKXfrSY2GiZzwpvbYqTjkpY3VppopTJHKE/8FBIsWI+aha7w0dVSsSIWytOM855xzzkEiJYVVRGqtQq3kRCT+2VpwiJZ254tR5nCKRx9aKU6QkM1aXZsZK02peRMKHKk4RG5krTu+NsKg4FeoiJ6fgFLGJJxCdd3yWat3fHOT91iBnmBaX4DRXw+Y/RcRLwSliI3PFWdx7nMaALCgoICoqilKlSnNWqVKcdZY6OSJW9F+GiE0CVWneKrP4HFXrfh35+fnk5+dTunQZyp5djtJlyig0RQLQfx0iNrH6Llrzd9UWl28OModmmeiylC5TxryZiFhQcIrYxKqiNC+FmufPJE9olommdOnS5mkR8UPBKWKTQBVlcao4zQFeJjravImIBKDgFLGJsbo0MwaV1fzpVuA6QKl0aS3PioRKwSlik2B6nOb5081Ybebl5VFKS7QiIVNwitjEvATqHjPPFYeK093fLFWqlHlKRE5CwSlik0A9zOLc4xSR0Cg4RWxirC7NilvFiZ/XKSInp+AUsYlVD9Pc41TFKRL+FJwiNrEKJGMVajUvIuFHwSlik0AVZXGqOEXkn1FwitjEWF2aGStNq3kRCR8KThGbBNPjNM+LSPhRcIrYxKqHqR6nSORRcIrYJFAPUz1Okcih4BSxSaAepipOkcih4BSxiVUP09zjVMUpEv4UnCI2saoo1eMUiTwKThGbBKooVXGKRA4Fp4hNgulx+psXkfARlX3kz5D+K54+fTrz5883D1O1alV63dqLE3knWLRoEYcOHTJvwm233Ub//v3NwyIRIz8/nwKgID/ftDwL4Lx4dIHrItIFBVCtWlXzLk6pAtd1OE+cOEFubi5VqlYzbyIiJxFycN5www3MnDGDyjExPuN//PEHDzzwAGdFRfHa5Mmcd955PvOHs7K4/Y47+Oijj3zGRSKFJxCddzz3AfLzC3yC0x2mCk6R8BPyUu3x48cLhSZApUqVuOqqTlzVqVOh0ASoHBPDsWPHzMO22DLNwegVWeZhkdMqUA9TPU6RyBFycAZStmw0ZcqUMQ+LlAiBepi+y7aF50UkfNganCIlmbuSNFaUxjFVnCKRIfKDc/NUHA6H6zaKTw/6mzMu92bx6UgHU1ckM9rhwDEymcPusc1bmOpvf1KiWVWUxirUal5Ewk9kB+fmqTgegqTkZJKTk0l+qTZJryRz2DW95TvjXA9SJy1ii+Hhi1ZBYnIyyU87qOwee2g17V2PSbpljc/+pGQLVFGq4hSJHBEdnFu+W0Tc8B40dg806UEiKaS6qsTGAwcZ5trTg3TSDRVkjz7ewPSMveR9TON/DyNu7R72mbaRkimYHqe/eREJHxEcnFmk74LUSX0Ny7F9SVq7hvQDrk0OupZiHQ4cjkQWmfYgEopgepzmeREJPxEcnDHUrgs9XnItxRpug5q4QrP/Hvp4xpPoYd6FSAisepjqcYpEnggOTmh8WQ8WPTTVp2/pcWAPqa1rcb77/ubVqjjlHwnUw1SPUyTM5G7kjZtbcNngxWQAsJGkli1oNWSxvcF5LPcYucdzzcOnhe+SrOsI2SaDmDs8nUTDuPMIWXe/82X6uMe/QxWn/COBepiqOMPXxlda0Kpl4dvQJZnmTeVUy8tk45JJjOhzNZe5/n+4rGsfRixxRpvdypaNpmylspxtGg/5K/e6//vfTJ8+vdC3Bx3OyuKBIUM466yzeP31yVSs6PvtQbm5ufTo0YOPP/7YZ1wkkui7aiPPxldacMeMWOJ7d6VRBe941csGcGtzw4CcWnu/YPwDD7N4F0TXaEanq+OILQ/ZaatZ0+hxFg5qZn6EzTaS1DKB2fFjQg/O1157jU8//ZQTJ074jLu/5B1g7ry5ZGUV/go8fcm7RDJPIDrveO6j76oNa87gbM+o5a/RvYZ5Vk6LvK2807MPb+yqx60vT+XRDlXMW5wG3uAMeal2yJAhLF26tNABN7Nnz+aGG2/ghhtvYM6cOYXmk5OTFZoS0QL1MNXjjFyZS4bQqmULktZk8OWzCVzZsgWtOiWQlJIJR3ey2DD2/GeGJcX1k1xLvhlkJD/HHZ1a0KplW7oMm8Ya0ypw5vfTGHFzB9fSZALPL9mJsymWyeIhhZeRW7VswWVvbgQgd+9qZo9KoEt75/iVNz/MO8YncL+O95cze5hzCTRpvXfaLPP7ad6l0vZX0/eF1WS7J/enFnqupGT3a8WnT7gzbTHPJzjf05UJz/HlXs9GhWR/OZM3dkH8yNdOHprZW0l+5WFu6eReyk3gyRmpZOa5N3B/ZpNYk73R855bdTJ+rvi8VvOifMjBKSLWgulx+puX8Jfy7FOkNBjEM493p2HuRmYPGcvQJwaRXLU3EycMpFnuRv7z6BP8Z4/v4w4teoIRn8XSa8JrjEpoTu6q17ln0DS2uX7QZywZwvX3zSS76+O89cYUxtwIi8f25uFlmUAF2tw9hbfecN1eewxHFaB8L15McC5dZq9dzOry1zH8xSm89fJjdOYL3hg8vNDrSHlpKgdv+5DvflpHYnPfOadcNk7tw/X3vc6ayleTOGEKb41MoF5etjNs9i5maI/BJKWcTddHXuOtl8fw7/NTmf1Ebx429yB3zuTJ8Ruod9cERt3WjGOb5jPi8fmug3AK27pxOdCV7tfEmqd8Hd1IUkIfnlyQQcOECbz1xgTub5HLl68MZvDkjYZQBNjAGw+/xMFOY3l1wnAcNbbyn7G9GfeZ59cAvxScIjaxOk/TOGY1L+FiNeO7Giu6ISze77tFdI/HGNWzPfE9x/DMA42A1aypOYFXB3WljeN+XnykPbCRDVt9fzBvO783U17qj6Nde7o/OIUp98bCrsWsTgNyU5n9wmqq3fs2bw3qSpt2cTjuHUvixbmkzP2cnUQT2zSONu3iaNOuOWXXzic5sx79Jg8nvrxz/1W6vchbj/fC0S6ONh168ehDvSxfBz2Hc3+bAD3bPR+S9OZW6DCG9197jFsdcbRx9OeZx7tShVzWzH6WlKPNePTdKSTe2J42HbqT+Nrb3Fczl5QX5rPRU/EBf8Rx/5tjuLVDe7o/NIlH44FNG9hmmVmZZOwCqErVAC8PIGPZS8zeFc2tz8/gmYSutGnXlX4T3mbMNbBzxlQ+8fn/LJP2D85wvlZHf555cyydyCX5q1RvBe2HglPEJsaDgYxj5jlVnOEolvjeA7lrkPvWnvquYHJr06Se5+8Vyzt7193jmxPtGqtS2zmfneNb98THx2HMg4bNOwEZbEjLhG1rWHwUMt7sYwjtm3n+Z+DnDJ8f8LlrJjNyxk6aPfISic3dzwoc3UnKgtd5/qE+9O1zNR2HzAer19Gksee1WsneuoGNQPee1xFbyjy7lTVLcqHNTcTXNQyXakSba5yvYcchw3iLRjTyfH5VqN8AIJsjRw3beERTsQJALtkBT9rIZFPKRqAXndoZ30kF2sS3B1az83fDMJ1oc7HhbqVmxLcBVm1lp2HYioJTxCaBepjqcYa7enRKuJ/77nXfetHsJNUPQPQ5gaLIWvYfzoSJrVQB8o6RC7R5ZC5ff7nKdHsAz3GkexfzcOIsDnYYw9M9vQFO7kbeSLiZoXN3EntNIomjZrDiZedBnKHKzXHGdHR06O/pn6lAvWaNgA/5ZOXJasF/IpvMDKBuVZ9fZKwoOEVsEqiHqYpT/FmzeYuh95bLxrVfAM2oVzsa/nUpDmBNylaOVKhAhUrGmyvA8jJY/Ow4UujKM2O7+1aDP3/OO7sg/vbH6eeIo83FseT+4a+TGFiVhpcSC/zn89WmXiFAPRp1ANZ8wRrjQT55O9m4Bqh5KY3/wQHk9RwDcZTPJXncE/zHej0XqEK9ZrHAl6z+yfgKc9n602qgM42N1TAb2LrLcHfXBlbvhehm9ThJJ1XBKWIXqx6mucepijNc7eTLGa/zxpuG21dFC6BClj3B4JcWk/L9cmY/kcDDC3KJ7jmI7rWAClfQa1A9SBnHbUMmsXhVKmu+X85/nh3CO5twBu3kIYxPgWa9O1Nhayprvnfd0rKhXEVigTVzZ7D4+1RSFoxj3Nwivu6GvRjmiCZ3wRC63Od8LSlLXufJZ5eTSQU6JQynYfnVjO83mKQlq1mzajFJQxJI+rkC3R/qRcNCy7shqNSZMZP7U+/oap7v04Erb36Y5998nTfenMST9/XhlqnOI4gb3pxI90oZzE5M4MkZy1nj/kyXRNPwwYE4Khl3upWkxx9mdnIqKUsmcc+dz7GRZiTeGhdwyRoFp4h9rCpK9TgjRQYp86bxzlTDbaP5JIWiaTN8MvdV/IJxDz9B0qqDtLl3Cksfae/64R1Ns7tnMP3xrtTbOZ/xwwZzz8MvsfhQPRpVB7bNZOQMZ0du47sPc899g723ZTuh4QBeebwrsftnMf6+h5mW1p5Hh7c3vYJgVaDT+E9460Hva3n4zdXk1q7nXNps2J/33ptAvxYH+WjsEO4Z9izL/25P4pQPGXXVyRY/Ty66+XAWLp9CYrc4qv7xBf+ZOo13pi5m25FY4i921YiVOjNqwRQSr4pmzdQnuOe+J5i2NZZbJ8zjvYRGpj324sXx7cmY+zBDx85ia61ejJo7mVt9qlJrIX8Bgoj4Z/7mIPcXIOibg6SQ9ZNodecs4sd+zqs3nuTcRLFRJouHXM34lP5M/2m4t08cAlWcIjYxVpdmxkrTal5EwoeCU8QmwfQ4zfMiEn4UnCI2sephqscpEnnU4xSxkXqcIpFPFaeITQL1MFVxikQOBaeITax6mOYep87jFAl/Ck4Rm1hVlMYq1GpeRMKPglPEJoEqSlWcIpFDwSlik2B6nP7mRSR8KDhFbBJMj9M8LyLhR6ejiNikwH2aifOO5z5Afn6Bz+kozlvJOx1lywdb+PXLHWTvyyb36HHzdFBKlSlF5dqVaHJLE+p2rGOeFjnlFJwiNtJ5nNb+/uNvlj+ygj9++9M89Y80vPYiLh/aFlTEy2mk4BSxibuSzC8oUMVpcOLvEyx+4BP+3PsnBUDp6DLUbhNLhRrnUlAAxpXrAnwzcO/GfRxMc17Yudq/qnLBpecTBez4Zhd/HfyLAiD+3rY0vuEiw6NETq2o7CN/FqQkfcvmD3+myU0XE594uXkbEQmSueI0hmRJrTi/eu5b0lbtAKBmswvo9Fg85Sqdbd7M0tyExfx18C8qnl+BXu/+2zN+7Egui4ct58i+bMqdV45+c3v4PE7kVDoLYPOHP2P8U0RCZwxK45h5zjgf6X7fdICtq3ZwArjg0pp0e65z0KH529rf+ePgX5wAmnRv7DNXtmI0l/a6hBNA9p857Fm712de5FTSUbUiNgl0nmZJPY9z9dvrKCCKMueW5ZqRoV1AefvXuykgilLRZWjUpb55mn9dUYcCoiggil9WpZunRU6ZUxac6SnpzLl1Hp8MX86JYyfM0yIRx1hdmhkrTav5SLQ7dS/7fj1EHlG0uKUJZc+JNm8SUFrqb+QBF7aoSemzS5unKVO+NBe2iCWPKNK+/43jf5+KnzOZLB7SgqT15nHY+EoLhi7JNA+fIf5fZyHrJ9FqyGKKwyvPXDKEVq9sNA8Xe0UKzp9mrGNap3d5u8M0n9v7PeaS/Xs26SnpfPrkZ/y17y9+W5vBJw8nc+KU/KMWOT22r/iF7St+MQ/7sDpPsySfx7l20VbyiaJ8THla3XqxeTqgPev2k/PXcfKJolarC8zTHhddVZd8osj56zjLnlqtX9LltChacL63jt5ze3H3qoE+t/pX1mPVC9+wYtTnFOR7f6vet2Efn4xQeEp4+nPPn3z99Eq+fnolf+7xfzqFVQ+zpPY4/zqYQ/qm/eQBl3T9P/P0SaV9/xv5QB6wcvo6Jl03h6Tr5hb685NJ35IH5FHAzvW/8+pN//HMv9b9P6yYlMrhjGzz7kX+kSIFZ35ePufWOMc8TPS50WT8uJf8E85D8I32bdjHF+O+Mg/b68C3zO0wjWVFqPwPfTKft9/c5rxz4FvmdphPygHzVnbYxrIivkY5M86pdg4ValagQs0KnFOt8L97t0A9zJLW49yQ/Ct5QD5RNL3uX+bpk9q1bp/n8X/nnCCfKM9985/5fsaP5eax8fNfeWfQUjYtdx7Ve+psJKllC1q5bj5LuOsnecZbtRzC4v3GxxltJKnlEBbvN+7LtL3PvgItFTuXbr3bTqLQjxzjvnyWbl2vY4lr3rWUmrlkiM9zG5eFN75ieK5Ay8A+r38S35jnA32OPtyflWHItATt+3qN79/3OSw/GxOf99dyUtGCs6gyfswwD9lq26KfqdinJhkprgAsquqX02dVL+Krmyfs0JBuqwbSrZl5XIqr0meXps+8XvSZ18uy1+YWqIdZ0irOLSvTyQfOb1SN8pWDO4rWLftQDgd/O+KpOC+6oi6tb25M7MU1XKEIZ0WX5v/i69D6psa0vtn69q92tT3bf/LaD2SmHzE/lW02vpLAzrGf8+NP6/jxp88ZWNs1sX4Sre6E6T+tc869W4/xTwcIFlYzvuvndDZu39X7g33jSuO++pMydob1D/3937DzGu/rGRU/i2nGEEoZR5eVV7vm1zG9wTi6+PQaVzN+p2v+wWZAJt/s7MwK1/YrxrZn9juu97F+EnekjfHO3VX4QC6w+CyW1+fLsasNG2wkqWUCvOua/2kG9caODfCLRgD7FzNubD3DZ3W1a8L5HN7/r9axYuxO7ggQ9htfacEdzDBsX9/+4Cwdbf2DJeqsKDo+2sE8bKNtpM2tSYN7/0Xs3PWnqFoU8c+qh2nucZaEivOPvX9xcO8R8oiibkv//Ul/fvkugzyiyCOK+D7NuPHxy7hyYHNyT+STTxRlK57N3e/ewL+fvJwrBzXnyoHWt5tGx3Pz6I7kEUU+UaR+8A9/oT6JlJ3uwqAKzZpXAWDjylnEj03A83ty8wRG8QXf+A2D9oxaPtx3+/hZfOGq7po9aJy7mn7sZIfVvmp0J/FG52uAKlxxTXvD6wPix7DiQe9v7816jyF+xueGEG7PqN7G3+6r0P3B7nj22LYz8Sk78OzR8PcqzZt5tjMq9FnU6M6YsYYjrdd/zuz4MQxo7h5oxoCx8OUP/iLtZAyfTfNmzud1PccYz2cDVW4cRL8UP/+f7F/MtBn9mW74rKrc2N3+4Gza+xIubB3rM3ZW6bO49tlr+FdnP7+J2GHjr2T0+RcNaUiDPtmkrzV+2JmkjJjGso3OP90HM/lfLt3GMtNS7bY3jQdCfYLzP0Hf/XnH3UzzI77lkOe1GDbb+InvgVbuJWPwvpaNzmVoy+fxebzv6z70yfwAr0+C9deB//HXgf+Zh31YVZQlsce57bu9nkqvQVvfnwXB+CX1d/KAUtGlaXtrIwBysnP5bfshZwUaX5tzY4KrYv+vXU3Ob1CVPGD3zwfN0/9YvdrOH8DNHlzHdBJMS5WZ7EiDlLFXG5b5rmZ8ymp2/m7akV9VqN/AcHf/YoZ69pXAbMOUmXF5sYtPZWehRn3qmcfMjMusXceR4h5vPpwf34U7WrYovLTs4fws3J+Xlcz0nc5K2LCM2mXsat/AD1aN7ry6vDNfdnXux72snJm+ExrUNwV7LPXi/fx/8vsOUuLrY/5XXOTg/HH6T4Vue9f9zr6N+6nWuBqlypTybFu9SXUq1ank83i7bUvZS2x8QwAaxtck+6ttOL+oyyvjgc9hhOtgpoUXc+SB4PqY296cxkqu8BwEdfNjrvdyYBt/XHWTa/wmmrTdy0+feFbYSRnxIeme+YF0vMq4V5eNn/D2A9k0Weg+yOommuz4hrme/QBks3kWXGN4npXucN34CW8/AB3dB2lNrsDmid863/uBb/nsuQqGudB7TQJHM48yp+dc5vScy9HMo+Zpj0AVZUmqONN+3EcBUZx9XjnO/7/Q/7vf+d8DFBBFrUvPp0xZ58+RX374nXzXOZsN4mqaHxJQlbrnUUAUfxz62zwVBGdw7Uw3Vz3OIDBq9qBrKe+aL+gyZDGZrsf28yw9em+JnqrqZAzPs38xQ7vuYKBnPzPoZ9rabeMrLZhWz7gceZJzaPfvYKd5zGj9JFq9U9+zHPvj8jHEG+ebD3eNd+bLrlbhaf05Zuz0BnqV2vUgwbsk6rkZqr2Q1OjOq67PiTud4Vmldj1I22GxLNueelaLIxfU962sXYocnIGcVfosmve7lFZ3tKTVHS2p8q8Ylg1fbt7MPge+5ae5NWng/nyb/YvYH/awzRSKsZMNfcvql9OyUGVqwbXvjvc6Qxmg6nWX0xDnPrpd510OaXhVBbJ3u+J64w9s5mKu8cxDw+sux/wFa9tS9lLhsasN/dQqxPc3B38FmoxwP9Y5z45MDnke39b5egCataUJxveezSH335s19G4ntgumx+lvPpKkb3VWhnUvrWGeOqntP/zO38dOkAc0bOf9PX/7GmcVGlW6FP/X1uonnH9lz4kmD8jLK3zQYjCadexPiqnXlrlkLONxLytmsvgVb4+sSm1v7dasY39m33nyg0+8VjN+nndrn+cxVz/rP/dTcZqru0y++cxUcaaMY6bn4J5MFj89DozLqCbmSi3zhy88FWfmkknezyZA5Rpbr71vT3b/YqbNMGzQ/Gr6zUgI7lxUV5XoXcbdSNKds7zT6ycZ9hNLPXfKN7+afinjGGfo9zo/485cYfXPtcYVdIqfxR2G/m/mksVFD053KBpvNVtcQM0WFxQajx92Odl7T90h4YfW7iGbvaz0LEl+QwbZbF4UeGGySp0K5qHC9v1BdttKlmv2mJZwP3jO+x4P/ZYN9asUCkpfmRzaARUvNO39/EpU+OEPi9+KzJyPz37uQ8Ny7Ids/iGbP/a5DnJaWIv0W5xz/pemJZDyVcrTd0Ef+i7oQ/kq5c3THsH0OM3zkWbH+oPk/O08CvZfrUMLOIAt32W4jpSNonF7b3Cmrd9HPlFc2CT0I/aO/i+XfNe3FxVJ8+Gug3QMS4ifdWbFa+6eXxXqY1hivBOmu+eaD3cefGJYfgx41CntGVXvc8NSZT3DvhIYZXyelfipOKvQ/a7+zL7T/Zxj2dnAVHHGj6HeSvf81YxvMINXDX0/syo3DqLfDNdSdMsWjNtZz1NxVqmN4bNJgHdfo7tFCFW58TXfz+JpGOhTCTcjcfkYdnped4sAS79V6D5yDHiWwT+n87v9vdMX1Dfs52q+vOZzV5XfjMSfZlDPsHzu+/+lWRW6v/Y5o9K8773LZ64veX+7wzTPZnevGujzMCtvd5hmud2P038CV6ia+XvMP+dcEv2jv+lI1QPfMveWP2i56joa+tlm25vT+KnOTfS5rgqHPpnPB7ubc/e9DV19xfVUWtiLeIz78WV8PK5+omcfGz/h7VmVuHmiucr0fS3mfYDrtU+EayZeTlXja3H/zDDsO/PNaaTFB3OU7jaWdfgGJgezrRRFga7HyRezfubLuf8F4Ik5/+acSqGF1Qv9l/Jn5lFqN6zK4KROAKT/nMmUh78A4Lq7WhDfI7TzQqc/vpK0DfupXqsSD07pYp4uRjaS1HIq9ZZbB48UH0WuOIuNA9tI/8GwTOtWvSG12+4lzVBlZcxy9f5whs/KuTVpaQwsK679eHqKwKFPvmVboWoxk21fGarqZv8i9oef+czQq9z2ieH5XRrG1yT7uc8NvdZMUib+DFc1PEm16tQwviYZD/g56GfjJ4YqsyqV2vpOi70C9TBLSo8z49fD5BNFhSrnhByav+/8k8OZOeQTRYNW53vGf/7e2d/MJ4pLOtTyeUww9u4+Qj5RVKtT0TwlUiRhH5zbFv1Mdp9/FaoG3T1HY1jGXgWfuZc0H8imycLCVWRhVYif6Dxgx7Mk+xVUcfUaMx5wL5F+zh/1jUu/Dem26goqGpZRV+62WLptdp3zgB7XcurbHZwHFPlUoIE0u46bH8s2LFO7j951Lvke8bw+535VbYbuRM4J5vaez9ze8zmR4//brwL1MEvKUbX7f8smH6hRP/SDgjZ/u9f1ZQZwcbx3mXbbT/vIB6pcWJHzqgV3NK1bdtbfHPnjb/KBC/5V2TwtUiRFWqqdeuU7JCzrT7TpS5v9LdX+79D/mNf7P9z1+R0+46eP9VKtSDD+3PMn829bAECv93tyXq3zzJt4lPTrcY7utYSj2bm061KfW4YVbtkE8lriV+zedojzqpRn1KxuAGQfPsa42z4GCmh/w0V0v/dS88MC+vHzdOZOSgUKGPJiZ+pcHGPeRCRkRao4L+7emJk3zDYckOK8uU9LMY/P6/2fQmEqEi7Oq3UeV47syJUjOwYMTauK0liFWs1Hmr+yj5EPRJ9TxjwVUO6xPHZuy3Se+9nCu0y76bu95FNAPtDkstBOQwHYvvEg+RRQpny0QlNsU6SKM/yo4pTTw1xxug8OKikV54PXLQSiuKxLfXoPa2Ge9mvDNxm8++z3QAF3PHYZzTs4l2rfHv0dm9fupdw5ZXhuwY3mh53UmP7L+SPzKJfE1WTQ2MvM0yJFUqSKM/xUIX6iQlNOLWN1aWasNK3mI0WFmPLkA3vT/V9FxsrPP+33fFl7o9bOQ0pzj+WxdaNz/P+ah36Y6W87/iQr8yj5QMOWoT9exJ8SEpwip57VeZol7TzOBs2qk08Uv27N4vvP9pinLWXtP8qPq53nb9ZpVJWzyzu/7zp53jaO5Tq/n/bi1t7l22CtT9nrPRq3beiPF/GnhCzVipx6niVY5x2fpdqSch7nbzuP8PT9n3vu1/2/GGrEnkvFymdDFFCAz58H9/6P/679nROuSxE2uLgqdf4vhm0bD/Dbzj88+5k4pxsVQjy95ZkHvmTPjj84/8KKjH3bfXUMkX9OwSlio5Le4wRYuWwX77++zpOPbha5GdT8hfUqMfp1qy969u/g7/9j5F0rKACuuekieg5qYt5EpMjOAmhy08UY/xSR0AXqYXqrzMg+qhagY7e6jJtyDa2vrM1Zpc9yfk8scMLPn1bz1S+s4Lnf8NLQw/2rpbs8j293dehfmnCmZC4Z4rlw9OnjvOi15woiS4ac5GsB/4H9ixnq52v0nBeeDuV7fYOz8ZVAF8Q2srg4th9R2Uf+jOz/ikVOI3PFaVyWLSkVpz+7tv/J+29t4NetmRQADzzRllbtrU8xSV60g/+8s4EC4JEJV9C4efCf07G/83g4IZn/ZedyYb1KPBVitXomZS4ZQpedg4p+RZAiyWTxkKvZeVcoV22x2f7FDJ1Xn1dPwft2Xykm0HfxOgX/lYc6OEjEJlYVpbEKtZovSepedB6J4y+j7LnR5AMrAxw89KPrmp6lzy4dUmgCLJ2/nSPZueQBnW/UpfTCQebv9RlzCkLzVFFwitgk0HfRlpTvqj2Z8ueUoXnbWPKIYtO6/Rz7O8+8CTlHT7Dl50PkE0XTVqFdYeWv7OMkL/mVPKKoUqMCHa+tbd6kCJxLme6rYwxdsthnSa/wUmDhJT/nMqR7H8EvR/o+zrucasX/tu7Xs5Gkk151xHXtTZ+lWt/3750z7s/iqi8+F912f0bWn02XOxM8V33x+Sxdr2Wj8b2dZCnb53MYspgd5g2MF+S2/BwCfU7Oz0LBKWITY3VpZqw0reZLkrYdapIPHDuRT+rq383TfP3pHvJd/cmrutY1Twf07uSN/C/nBPnAgPvsqGCcy5hfXuO9KPTAneP8XAfTWuaSIc5LV3kuKr3T5/qO/mXyzU7j49oz+x1/vceTbbua8V0/p7P74tDv1mN812ACvPD7n36Na2r95+C5SPcM+hmv8bl/MUO7fkGn5d5557VufGUuGeK8dJrnwtXOS375/IKQMo5pjHVdKHsM8QGu2Wn+rH+8awfjjdf8XD/Jedk34+fwdLCfk/ezUHCK2MTqPM2Sdh5nMJq3qc45Fc8mnyiSl+40T7NscRr5RFH1/Ao0bRn8Mu28GVv59pvfyCeKy6+qQ/M2oV+7s5D93/BlSn8GGvpjzR6c4ec6mFacF5Hud5f3eo/Oa1t+HkRoVaH7g4bHte1MfMoOMkxbOZ1s2/aMWj7ce6Hq5gmMip/FF34CyGP9DMYzhjHG93+j91qj3p5oMzonwM50Vy06bxyMHWvoFTaje6Eeo+uzedfwumjGgLHtmb3S8OnEG56/RncGGp7HV+HPmubDmZ7g3WLjylnEGy/Y3TyBUXzBN56qMsDnZPi3oOAUsYlVD1M9Tms39LyIPGD79iyeHL6aWVO3MGvaFp5+8nv2HzxKHlD+3GhmTf2ZWdO2eOb93X/4/pUsmr+NPKBm7fMYNNSOahP4fQcp8fXxXqslVBnsTMFwUekWtGqZwGx2sqPQEqEF47Ji13GkmOeNQtmWKtRvYB4rLDN9JzSo7+ciz75LuHd4KrtMdqRBvdrWj/LKYGdKe+qZVuOr1K4HaTv8VNaBWO/Py/m6UgwXsW7V8mrGp6xmZ+GFDxfD5/T7DlKYxR0ttVQrYptAPUz1OH3d2KM+TVzfMrR1axaLP/yFxR/8wrp1Bzzf9vNL2mEWf5jG4g9+8cz7u79z55/kE0X8lXV49pUrKFu2lPkpi+aC+oWrvP07KFwn+xNLvfj2jPIsWbpvJz9yk/WTaPVOfe+y4/IxxJu3cQtlW/CEyMn4DzHvkbieJVxPZecMG+uq0CiWevF+QstvWAditT/j+3S+rn6e5WXvzf/RxIbHX1Cf+PgxrPhpnYJTxC6BepiqOAt7dEwcN/dqSO36lSlVuhR5RLnO6Qztz7Lly1CnfiUeH9OOYY80ty80AWrUpx6zmGY4YGXjPN9qLrZee1I++8YTLhtfSTD0QKtwxTWY+mjBMVd7mT984beKPPm2qxk/z7v8mblkLOMZwwC/geHS/Gr6pYxjnPH9L1lMZqHqbiNfGHqJzTr2J2XsWMOBNRtZXOhcyipccU17Zt9p7LVuJOnOWfTrWJQVA2cw+vR2189gvOGDaNaxv+n5zAJ8TjWuoBPOz0LncYrYSOdxRqKNJLX0hmG/d2fAncbz/ZzVl/sHdOF555G33qVMIGGG5bmavudx+j5vfEJ/mAEDfzL2BN0Cbes6P3FsPcaPneXaoj/TPfsxncfprl5fc/cKffftfu3OA3tWe/bXL2EWO43nS66fRKs73c/nrPQSmxc+V9J3P+7tXHcKvZaTn5fp81knzGA6CT7bm5+P+DGu/Z/sc8LzWSg4RWziCUTnHc99StB31ZYMhX/4F2/h9nqLPy3VitgkUA9TPU6RyKHgFLFJMD1Of/MiEj60VCtiI3OPsyReHUUk0kVtXP+TglPEBsaK0tjnJCqKAleP0zvn/J9Lm7fw3ckppuAU+edUcYrYyFxxem+o4hSJEOpxitjEGJTGMfOccV5Ewo+CU8QmgY6a1VG1IpFDwSliE2N1aWasNK3mRSR8KDhFbOKuJI0VpXHMal5Ewo+CU8QmVj1M9TilRNm/mKEhXKjbl/MC0v6utWmWuWRI4YtnnyYKThGbBOphqscpJ/WPQicSNCMx4JVKfFW58TV+NHyHrT8bX2nB0EJfMP/PKDhFbBKoh6mKUyRyKDhFbGLVwzT3OFVxhhvnxZqT1juXEVu1bEGrVzZ6xp0XQx5iuHyW9zHeiyWb5vcvZqhnzrU0uX6S6+LTzgslG58jaYlre9eyZOaSIYZ9G5c2rbcvzPBeWrag1UmqXP/PR6F9Jf1gnAv1s3Nv77q7fhKthixmo/H5XzG8Ute893Juhvc0ZDGZrv3dMcN98WrXc7ket9i1vfP5TJ+J8bOz2F7BKWITq4pSPc7IMPvOz+n80zp+/GkG/WYk0KrlWBjpvoCz8RqOrkuMNZjhvVDyu/UY39UdTpksfnoc9TwXU55BZ4Dmw10Xn+7P9J/W+VxybPZnMOanda5lyUy+2dnZc8HqFWPb+15/stD2Zs7LYu0c+7nn9a0Yu5M7/IZsoOdz7gvPe/mcep/5XquUkD47CynjmMZY5/6XjyF+RoJ1D3T9JO5Ic15k+sef1rHirvpAFbq/5rzAdvzYz30vHp4yjp0dDRexXv+54X3MoF/KOGYan8e0vYJTxCaBKkpVnOGt37vuazI2o3MCkDDI80O4Wcf+kLbDGSb7v+HLlP5MN15rs3kCo+Jn8YXhB/HOdHdMNaPZSXp6/e4yBmAVuj/ovV+lbWfiU3aQ4Zk3b2+y/nNmx49hjOFallVuHES/lC/4xqdqdgvwfK59eS+GXYXuI8cQ73msU9CfnRXja63RnYEJxs/OxPA5VGnezP9ngHO/Phfxbj7c0Ft1vk6f5zFtr+AUsUkwPU5/8xI+Yuu1J75erHnY6fcdpMTXx3e2CvUbuH8QV6H7a5/T6bOrCy89Bmv9JO+SYtfCFV4gmek7oUF9U6jEUi9+NTt/9xn08vN81vsKLOBn9080H86P7+Jc5jYvjQfFd3nd56LjFhScIjYJpsdpnpcIc0H9QhWgW73anrqN7q+5lipJCC0810+i1Tv1PUuSzuXd4FWpXc9PhdeeeheYxwI/n+W+ft8RUpDbqvlw12vszJddQwlP5/L6zrvcS7XO5d1AFJwiNrHqYarHWcLUuIJO8bO4w3QQyx0z+tO5Oc6+oGEutl5773ZBMFd5mT98EVpQNb+afinjGGc4PSNzyVjG05kr3P0/g4DPd0F94n16gZksfmeW+85plblkkjcoa9Snnmk+sAx2phh/cdjIF6o4RU6PQD1M9ThLCudS7Ki0BO/y5p0w/Sd3ny+Weoa5Lp91ZoW7H1qjOwMTjEfVFlblxkGuA2ycjx+3s15IFafzXMkZ1BvrWip2vwbLA4lO8nw1uvPq8jHsvNO9xDkW7gqtArZLldowvqv7dSTAu94DgZr1HgPGo2oLacaAscbHfw4nqTh1WTERm7iryfyCAtzX4nRfyDrfdT1O92XFnDddVkwkHKniFLGJVQ/T3ONUxSkS/hScIjax6mGqxykSeYq0VLtnzx4mT36NzZt/5sSJE+ZpH2XKlKHJJU144P4HuPDCC83TIhElPz+fAqDAtSTrXqp1ZqV3qdb5p5ZqRcJRkYLzwQcf5Jqrr+Fax7WUKVMGh8NBcnKyzzbusePHjzNr9iw2bdxEUlKSzzYikcRdTQbqcXpDUz1OkXBVpKXaX3/9leu6XUeZMmXMU4WUKVOG2/r25ZdffjFP2WLLNAcOh9VtKlvMG3tk8elIB1M3m8fdTjYvUlgwPU7zvIiEnyIF54kTJzjrrOAfWrbs2Sdd0i2qxgOTSU5OJjl5DomtocdL7vuDaGzeWOQUsuphuv9unDPOi0j4CT79TIzVnfm+1ZhIpAt01KyOqhWJHEUOTmdV57yZ71uNnQmHV4zyCe/CS6/OJVn/826+25mXgX2Wi0cmc9gwJyWHsbo0U8UpEjmKHJzFXxap6fHMdQX33OFtWDTXN9QWPZQED7rCfdYw9jw0ik8PGjZwO5hKeoc5hiXhRcxdkeWc2zyVxF3DvM/Tp4750VJCWPUwzT1OVZwi4S+CgzOGawc6qOy6V7lFPHFr97DPsEWPl8ZzrfugwmoO+tyyhpR1rkA0quZgUJcY150Y4jq0ITXd8N1Nhv1WbtLY85xSslhVlOpxikSeCA5OZzXoWULt/zKp5nmT82u3MQ95GJdj+0xa451oMojklyDR4cDh8FOxSokQqKJUxSkSOYocnOYDf4z3rcZOu81Tccyt5VlCTZ41jDjzNib70g2BaLBlmoO5td1Ltc5lXx9NBrmeI56U/grPkiqYHqe/eREJH0UOTvOBP8b7VmOn2+GMdKhbx7NsenhdSqGK06fnuXkqiQt70MezJOuWRfouqBXrHs8idZU3YA+vmOoNymp1qOWZkZImmB6neV5Ewk+RgrN06dIcO3bMPOxXfn4+pUuXNg+fUpW79KXHwkRPxZuUXrtQxdmjAyS5q+KH0kmcZXXuZwzX9unBoofc1XMS6XW9FWflWEjq755LBGPfVEoUqx6mepwikadIX7n3wAMP0CauDX379A3qK/eWJy9nxacrmDx5ss82IpFG31UrEvmKFJzrflrH7PffZ/v2bRw/ftw87aNMmTJcdFFD+t12Gy1atjBPi0QMdzUZ6LtqdT1OkfBXpOAUEWvmitMYkqo4RSJDkXqcIlKYMSiNY+Y547yIhB8Fp4hNAp2nqfM4RSKHglPEJsbq0sxYaVrNi0j4UHCK2MTqPE2dxykSeRScIjax6mGqxykSeRScIjYJ1MNUj1Mkcig4RWwSqIepilMkcig4RWxi1cM09zhVcYqEPwWniE2sKsri3uM8ceKEeUhETkLBKWKTQBVlcao4ja8jN4SLNYiIk4JTxCbB9Dj9zZ8JUVFR5Pz9t3lYRE5CwSliE2M/02rMav5MMFaceSeO87///WXeREQCUHCK2MSqh1lce5xnnXUWZ511FqVKleLIn0f4OyfHvImI+KHgFLFJoB6mcc5q/nQxvoZSpUq5bmeRmZVJdna2eXMRsaDgFLFJoB5mcas4o6KiPBVn6dKlKV2qFEeO/Mn+fb+TfeQIx48fLxavU6Q40vU4RWxU3K/H6eZ+Dfn5+eTl5XH8+HFOnDhBXl4+efl5ztfnugi3AlTEl4JTxCaeQHTe8dwHyM8v8AlOd5ieyeDEFfTu8DTe8vMLV8cFzncmUuIpOEVsZK443cFZ3CpOTOHpfk3O0PStlkXEl4JTxCbuoMkvKPBbcXpD88xWnG7uYDQGpfv1GedFxEvBKWIjc8XpvVHsKk4jc1Ca/xQRLwWniE08gei847lPMexx+qOgFDk5BaeIjcwVZ3HucYpI0eg8ThGbBFre9FaZOuBGJNwpOEVsYvVdtMax4vDNQSLyzyk4RWxiVVEaq1CreREJPwpOEZsEqihVcYpEjlN6cNDs2bNZvnw50dHRdOrUiX79+umHhkQsdzUZTudxikjoTllwzp07lx07fqV///4AzJo1i+rVazBo0CDzpv/YlmkOEhf6jvV4KZlBTbYw1TGH2rPGc20133krW6Y5SCSJ5IGNzVMiQTEfVeu9oaNqRSKE7Uu12dnZJCcv54MPPiAh4XZq165D7dp16N+/P6tXp5g3t03c8DkkJyd7boOamLc4ucYDkxWaUmRWPUz3331D9JT8rioip4mtwXk4K4u7776btF9/JSoqqvAPiALnspVIJArUw1SPUyRy2Bqcq1encOmlzXjg/ge4qftNzJw5gz179rBzx05mzJhJ+yuuMD/ktNoyzcHoFVnGEaY6RvHpQee9wytG4Zi2xTu9eSoOh8N7M8659ueZG5nMYZ9ZKWmM1aWZKk6RyGFrcP555E8uvLAWAH369qFW7drcd9993HvfvVSrWpWBAweaH1J8bZ6K46F0Eme5l3/nkLgr0Ru8m6eSuGsYc11Lw3P71DHvQUoYdyVprCiNY6o4RSJDyMGZn5/PjJkzuP3227ntttuYO3eueROPAf0H8PHHH5OcnMw99957Sn9gpE7qa6gOp+JbG4Zuy3eLiBueaDioKIZr+/QgdVWqt7Jcu4d9rr9WbtKYyu5xKZGsKkr1OEUiT8jBOeWtKfy2Zw9PPTWOZ5+dwI4dv7JgwX8A2LlzJ+dVPM/8kNPC9+CgQfyzQ3yySN8FtWJjfIer1yLOHZZNBpH8EiQ6HDgMy71ScgWqKFVxikSOkIPzm9XfMGBAgs/RsgsWLOKVV1/hu+++I65dW/NDwlAMtevCngxjP9SldS3Od/+9ySBnUM+KJ6W/wrOkC6bH6W9eRMJHyMFZqpT1QxpedBHT33uPGtWrm6eKjfNrt/FZat0yLZFFpm3cGl/Wg9RJSYYwzOLTV16GDnFUBg6vmOqdq1YHZ2dXSrJgepzmeREJP9YpGED85fGFjpbtecstOBxdi3VoAlTukkgiL9PH1QtdfVkSPcwbuTUZRPJLtUnq7+6b9iWlwxye6uJcvq0ci2EuEV4K7ksWJHJZ9TDV4xSJPCF/c1B+fj5vvPkGSz9eSpkyZejbpy99+vYxbxaWtkxzMLe2NxxFQmX+5iBdj1Mk8oQcnJErtK/nEzFzV5OBvqvW+z21BQpOkTAV8lJt5NnCVNdy6x6f009EQmPVwzT3OHVUrUj4U8UpYhPPEqzzjipOkQililPEJoEqSlWcIpFDwSliE+MRtGbGo2mt5kUkfCg4RWwSTI/TPC8i4UfBKWITb+9S53GKRDIFp4hNAvUw1eMUiRwKThGbBOphquIUiRw6HUXERuZvDvLe8DkdJdy+Oejvv/5m69fb2L56O3s2/Ub2wWxyj+XiPPdGIlIURJeNpkK1CtRqeiEXtb+IRlc25OxzzzZveVrk5eXx559HyP4rm6NHc8jNzeXEiRPmzU4LBaeITTyB6LzjuU8Yn8e575d9rHrnG9Yv30DZc8py7K9j5k2khCh7blmO/e8YzbteSoe7ruD8//NcJ+qUysnJ4cDBgxw6lEmlSpWoWKEC5cuXJzo6mjJlSps3Py0UnCI2Mlec4fxdtUufX8YP/0kl73ieeUpKuFJlStH21jiuf7SbecpWGRl7OXjoEDVqVKdqlapnLCjNFJwiNnFXkoG+q9YbmsW34tz3yz7eHzaX7EPZ5ObkmqdFAIguF02FqhW47eU+tlefOTk57NqdTvny5ah5Qc1iE5huCk4RG5krznDrce76aTfv3TOD3L8VmBKc6LOjuf2tBOq2rGOeKpK//vofv+7YQc0LLih2/3246ahaEZsYg9I4Zp4zzhcn+37Zx3v3zOD438fNUyJ+Hf/7OO/dM4N9v+wzT4UsJyeHX3fsoNaFscU2NFFwitgn0Hma4XAe5/vD5pL7dy4FOlRWQlBAAbl/5/L+sLnmqZDt2p1OzQsuICameF8TWcEpYhNjdWlW3CvOpc8vI/tQtnlYJGjZh7JZ+vwy83DQMjL2Ur58uWJdabqpxylio3Dsce77ZR+v937TlqNnm3RuwpUDr+T8Bs6DRfal7ePLKV+y5est5k0lApUqU4r7590b8sFCOTk5bNv+C00uvrjYHQhkRRWniE2sKkpjFWo1XxyseucbW0Kz8ZWNuf3126nboi5nVzibsyucTd0WdbnzrTtp1LGReXOJQHnH81j1zjfm4ZM6cPAgNWpUL3JoFhQU8OVXXzEpKYlZs2azd+9e8ya2UnCK2CRQD7O49jj//utv1i/fYB4ukk6DO5mHPDrf09k8JBFq/fIN/P3X3+Zhv/Ly8jh0KJOqVYq2+pKXl8eVV13F4MH3sHPnTubNm8fFTS5hyZIl5k1to+AUsYmxujQzVppW82fK1q+3UfacsubhIrmg4QXmIY/q9aubhwLq+clEJm4dQU/zhNuEEUzcOpERE5x3O854iompg+lo3u6U6cjg1NP1/D0ZYXivxV3Zc8qy9ett5mG//vzzCJUqVSpytbls2TJ2705n+7atvPbqqyxbtpQXJ07kqfFPe7bZtm0bDkdXqlSthsPRle3bt/vsw7/9zOt7NtFlvbdb5+9XcIrYxV1JGitK45jV/Jm2ffV2275Gz47lXqOcIxVoOsMqijoy+GrfIF6ZMJoRcVNY6TN6+pza51/AxEYjmPiEebx4OvbXMbavDjaYIPuvbCpWqGAeDtqvO3bQrdt1Pv9dXX/D9ezYscNz/66BA7nkkkvYuGE9l1xyCXcNHOiZ8ytjHreWrcMH/95N7rG/Xbfd3PzrVwpOEbtY9TCLe49zz6bfzENFduDXA+Yhj0BzgZRr3KhwFTchjgYc4MAR84QUF6H8uzp6NIfy5cubh4NWsUJF0n5J8xlL+yWNCoYw3rTpvzz66KPExsby6KOPsmnTf322L+wHnq1/Oy1W/c1/etUwjNeg9xO9dVStiJ3MR9UW9++qHRv3lG3fEtT4ysbc+dad5mEA3rn7Hbau2moe9qvnJxNpejCVjMZxVPzct9rq+clE6q5fypGrr/fOTRjBxKuPsNRV9XWc8RTXty3nesQBUhtNZIF3Fx6+28GBD9zP1ZMRW5ty5LlNVHwsDmd9m0Pac6OZ8h6upVr/z++eb1DRteMjaa65nozY6t6fcdzl9sE89VgD3K8o54eljE7A97ksXrdzO9deXK8ldUssce5tdqQy4jrDJzBhBBNvdr8K4/tyfr5x9V1T5tcXpOizoxmbOto8bGnDxk1c3LhxkZdq09LSaNW6Da9PnozD4eCXX37hmWeeocb5NXhn2jQA2l12OQPvuotevW5l7tx5vDt9Ot9/9615V14/PEf0K3VJn9Mbq+ODVXGK2CRQD7O4Vpy5x+wJTYAtX2/h3XveZff63fz919/kHMlh10+7eGewb2hGl4umcmxln8daO8CUzw9Q/WpD7/D2wTStf4BdgZYtbx9M57bZpDYawYhGIxjxwS7zFi4daVQtg6Wu7Zb+kOP7XJSjwWN12eXZTzYNHgvQd/VwhmbslqXOxzUaQar7bJwJdeED1/4apXKgYgPi3L3L2wfz1GOxZDznnc8w7NXNGZqG99coley21/v2QCs2oClfOOefSyOnfpx3fsIIJt6M4fPJpsF9rvc9YQRxVdO8n8nnWYadBi+Uf1cnTpwocmgCNGjQgDlz3uedd9+hwf/9HwMSEqhXvx4vTpzo2WbChGd4f8771K1Xn7nz5jJhwjM++zDbt2s9XFLPMjRRcIrYx6qHae5xFrejau225estTO49mVGtRzE6bjSv932drSu9oVm3RV2e/OpJHv/8cS7rfZnPYy09sYsDFWNpdLvzbs9bG8APqZbVo68KxLgewxML/Gy/kinXeauplV9lkFOxorcaJIe05wyV6hOppB2pTt2THaQzIY4GpPGFuwIEFiS4nueJiYbqeQG7dkCFWGdUO9/bF57KDxYwxbAPp440alyOAx8YK+gFpP6QQ/Xmhkg/Ynj+96awyfg8zauTY/wMn0glDe9njOEzWPnEgpCrzTOh23XX8dWXX/LH4Sx+2b6N1159lcqVvb+cdbrqKr768ksyDx3kqy+/pNNVV/k8PlRFDs7vvvuOQYMG4XA4LG93330333yz2vwwkYhlVVEW9x5ndNlo81BIml3bjEeWP8LErRMD3q5IuIJazWox6N1BlK9UnqioKLoO70qZs8uYd2mygNQfoMGtPYGe1K2fQ8ZXJ/lR/t4URj+XQexjzucOeDSq6+jciVsnMtGwRGptJVmHzGOFdYytAIey/ASO82hc93N6lkTpSExVyM6wfpRXdSpWzOGI6diblRnZUDWmcD+4EOfzlGt7veH/n+tpULEcFS9yBvuIDyBu60Qmbn2Kwe4wDVEo/65Kly7N8eOhX5D62LFj9L2tH+dVquxz1Kvx1uzS5nzwwQcsWLCg0NyFF9bi999/N+8WgPPrNof/7sTft+8WOThfffVVhg4dSnJysuVtyAMPMHv2LPPDRCJWoIqyuFacFaoV/WhGgC5DulCtXjXzsI8lzy4h7fs07n7nbqLLeX+gHvvfMQryT/5LxMqETRyoX5fBM5pSfccmQ0UWwHtTGO1axuRmP+Hp7ku6lyyfSyPHvI0PZ+icjP8Q8/ZFPUu4ngM/naHsrgr9O8CRI66QM/Mb1kbO5zngWS723jyV8BMTXZ9HBrGPFS08Q/l3FR0dTW5u8Eu7bnPmzOXo//7H73szDEe9+t4mv/Ya459+hp49exaa63JtFxZ98IF5t05tr2LcosV8bbVW/k+C8/DhwzRt2tQ87NG0WTN2794NwLqf1pmnRSJOMD1Of/NnSq2mF5qHQnLe+eeZh3x8+sqn/PLtL9wz8x7OrnC2Zzw3J5fZibM5kRtMpbGAXTuq06AtpP3HetHVx4QRhqA8wBE/R9+aK8OOV8WaKs5yrkrXNT+jMw1IIzVQfxX38nIDOhtOpek5YzAdC1WLPanrqThhwfoDlGvb2RBUPRlc6HSclWzdkkP1m4291p6MuLk6B9YH8dm4nsf38V4dZ4zwPv97WRT124tD+XdVvnw5jh49ah4+qfz8fOrVqxfwiNx69epy4MB+8zAHDx5i9eoU2sfHm6dc2nLHTBhQ/2ye/cE4vp95E+YVPThD8drk18xDNsvi05HGpeJRfHrQvI0/W5ga0vbWDq8YhWNkMofNE1JiBNPjNM+faRe1v4iy5xb9CxB++6//0w6+fPtL1n+ynntm3EP587w/3I797xhTbp/C7vXOX6yDseA/aeQcyWBrMNXm9iNUuNm7DBm7ZanlOZDOSjbOs2TZuVq2qeLMIe1gXc/89W2zSQ3qCNMFTHQdsONZkq2WxUr3srNrCXni1rrgPdXQtUyabZiPo6LF0u3KhNEs/aGCaznVuR2eo4GD8MRE0+Mner68YWWG8fXFwQfeo22DVfbcslzU3qoktlbh3AocyQ49ortd340PPviA9PR085THpElJ3HTTTXz33fc89tjjjB//NE8+OZIOHTuSmDiM5s2bmx/icX6veeTueI91HYxLvHXY2fkfnI7icDhITk42D/twbxPMtkW3hamORHgpmUFNXEMHk/n0gINr3fcD2sJUxxxqzxrPtYFXnEQCKnCfZuK847kPkJ9f4HM6ivN25k9H+fuvv3kq/mmKeiWxui3qcu/sezmrlO/v4LvW7WLWg7MY9sEwKlT1Ltu5Q3PPpj0+2xc/7tNRQg+OEi8KRqeM5OxzvSsMgeTl5bF+w0aaNW0a8tG1M2fOYszYsTw9fjy9e/firLPOYteuXWzYsIF58//D7t27+TR5ORkZGXzw4YeUKlWKSy+9lMvataNSpUrm3QWtSBXn2rVrwRWMDoeDB4cO5ceffjJvdnoc3M0eetDeGJLVgg1NEfsE6mEW1x7n2eeeTfOul5qHg7Zr3S6m3D6FP/f96TP+/bzv6TS4k09o5hzJ4c3+b4ZBaMo/0bzrpUGHJkCpUqWoWrUKhzKDOPLKZMCA/nz91Zds2rSJyy6P57xKlenU+WpmzJhJn969+DZlNRUrVqRx48Y8+cQTPPboo3R1OP5RaFLU4Hzt1VeZOHGi50Cg/gMG8OyECaz98UfzpqdetTrUYhGrN5snDDZP9T3qd5q/SxxZLNtunlpoCXbLNOOy8FS2WG63hak+Rxq7tgPP0vLUzcZtzMvFpuVn42s+mMxow76nBnrvctoE6mEW16NqATrcdQWlypQyDwdtx5odTOg8gZlDZ7Ju2Tr++P0PdqzZwUXx3uW6o38e5a2Et8j42c/RFhIRSpUpRYe7rjAPn1T1atXYv/9AkY6urVOnDs899yypP3zPkT//YOeOX/nwww/497//fcp+SS1ScO4/cMDnwKDWrVvz9NNP8/xzz7Fp0yafbU+9xgyaNYw9D5nDyWXzVBwPpZM4y33E7xwSdyUyekXRTuzdMs1BIkmeXxrmDq9l3sSzfLxn+BzDdukkmgJ40UOrae+aT7plDUmvuOez+HRkX1I6uB/vfM3OgMzi01deptZL7veTRHvDPuXMsephmnucxa3iBDj//86n7a1xPke8hio/L59NKzYx56E5PHPVMxzee5gyZcuQ9VsWX0z5ghe7vcjeLaf2Uk/2WsDERlqmDUV0uWja3hoX8rU4AcqVK0e1qlXZ+3t4/BspUnBaadSoEaNHj2bs2LFs3Rr8V2vZopqDp5KTSX4JEk3V2ZbvFhE3PNHQv4zh2j49SF2VGvqBPAeTmbuwB0kDG3uGKndx4L3nsnk1i1oPI7FLjGeocpe+9FibQqqhquzx0iDPYxv/exhxa/c4zxs6mErK2h708Tze+ZoXfed9X3sy3MHfmMZali4WrCpKYxVqNV9cXP9oN59lVTs8c9UzPHv1syQnJZN9KPSDPyS8VKhagesf7WYeDlpsbE2OHs3h4MHQl2xPN9uCE6Bp06Y8+thjjBw5ku2//GKePvWaDDJVlFmk74Jasd4AA6B6LW9IheLAHlJb1/L7NUxuhzPSoW4dfL9UrAa1W68hPZjvuj6wh1QWOX8JcN8eWgS7dnOYGK59eg7xq/oWXsKVMypQRVmcK063217uQ/TZ0URRPF+fFE9RRBF9djS3vdzHPBWyunVqs/f338nKKtqK4Olia3ACxLVpwyOPPMIjDz8MrgOIOK3ncsYQ16ENqen7gRhq1zVWZwZBBGAhQQZu5djarpAza0PtYC5LWL0Wca2HMdf8xRJPO1xhHMO1T7uWeElUeBYTwfQ4/c0XB+f/3/nc/lZCEN/mI+JV5uwy3P5WQpGWaM3KlSvHv+rXZ89vGcW68rQ9OAHi4uJY/NFHnh/4E194gdden2zezB4Hk5nq06/MInXVGuJqOy8F0/iyHqROSjIceOPsEdIhzlQR4qkKU9a597eFqQ8t8k5XiyO+9SISDUF1eEVy4b5qk/b0WPsySYbXdXhFEknEExfMKS/V4ojH9/FeW5hqeP7za7fxmZUzJ5gep3m+uKnbsg73vH83VWpV+Uc9T4l80eWiqVKrCve8fzd1W9YxTxfZueeew0X/14BDmZnsTk8v0gFDp9opCU6zps2asTfjFB1NV60OTHItWzocOBzOg2qecvcHmwwi+aXaJPX3M+8jhmsfHGbY32rav9TDd/5p51Kw+/n6rMKicm3MoOQkahleV59V8cz1VIwnE8O1T/s+3nv0bA1q+zx/PHMNPVc5c6x6mOHS4zQ6///O56FlibS+udU/OtpWIlepMqVofXMrHlqWaEulaVauXDkaN2pI6VKl2fzzz/y+b1+xCtAifQFCt27dWLx4MWXKBLekk5uby0033cSyZcvMUyIRJdyux3ky+37Zx6p3vmH98g2UPacsx/46Zt5ESoiy55bl2P+O0bzrpXS464pTEphWcnJyOHDwIIcOZVKpUiUqVqhA+fLliY6ODvkLE+xSpOB84IH76dixIz173mqesvT+++/z3XffMnny6+YpkYjhribzCwrC5puDgvX3X3+z9ettbF+9nT2bfiP7YLbzmosh//SQsBHlvMpJhWoVqNX0Qi5qfxGNrmwY0pcb2CkvL48//zxC9l/ZHD2aQ25uLidOnJkqtEjBue6ndcx+/322b9/G8ePHzdM+ypQpw0UXNaTfbbfRomUL87RIRDFXnMaQDMeKU0QKK1JwikhhnkB03omoilNEvE7LwUEiJUGg8zTD4TxOEQmOglPEJu6jZd1/mucCzYtI+FBwitjE6jzNcDuPU0ROTsEpYhPjwUDGMfOcKk6R8KbgFLFJoB6mepwikUPBKWKTQD1MVZwikUPBKWITqx6mucepilMk/Ck4RWxiVVGqxykSeRScIjYJVFGq4hSJHApOEZsE0+P0Ny8i4UPBKWKTYHqc5nkRCT8KThGbWPUw1eMUiTwKThGbBOphqscpEjkUnCI2CdTDVMUpEjl0WTERG4X79TgV6iInp+AUsYknEJ13PPcJg+txmqtl858i4qXgFLGRueJ0B2dxrTiNAVlQUEBUVBSlSpXmrFKlOOssdXJErOi/DBGbBKrS3MHkb/5McL+O/Px88vPzKV26DGXPLkfpMmUUmiIB6L8OEZtYnadZXM/jNIdmmeiylC5TxryZiFhQcIrYxF1VGitK81Koef5M8oRmmWhKly5tnhYRPxScIjYJdJ5mcTqP0xzgZaKjzZuISAAKThGbBOphFreKs8B1gFLp0lqeFQmVglPEJlY9THOP80xXnMbwzsvLo5SWaEVCpuAUsYlVRWmsQq3mzxR3f7NUqVLmKRE5CQWniE0CVZTFpeLET8CLSPAUnCI2MVaXZsagspo/E4rL6xAJNxERnFumOXA4prLFPOG2eSoOh4Opm80TrseOTOaweUIkRMH0OM3zZ4IqTpF/JiKCEyCudTpzV2SZh4EsPp27yDzotHkqc2vPIflpB5XNcyIhsgokY5VpNS8i4SdighMgdVVq4cpx8yKS6EGP1uYJ2EJ7nuoSYx4WKZJAPczi1OMUkX+myMF54OBBDhw8WKSxU6JDXxJ5mYWm5dgt3y2iR58e1PYZzeLTkQ4SH0rE4Si8zOtc+nXdtIwrQQrUw1TFKRI5ihScWVlZJAwYQMKAAWRlOZdHgx07dWpwbZ8eLJprCLqDycxd2IP2TXy35GAq6R3mkJycTHLyHBJbL/Iu826eSuKuYcxNTiY5OZm5feqYHixizaqHae5xquIUCX9FCs5iq0l7eqxNIdVV4G756GUY3oPG5u2qORjkWaKNIa5DG1LT93vn1+5hn+uvlZs0Vv9TgmJVUarHKRJ5ihScMTExzJg5kxkzZxIT4wygYMdOrcbcMhySPtoCbGH1wjbEt7B+XuNybJ9Ja7wTTQaR/BIkOhw4HKP49DSsMktkCFRRquIUiRxFCk6A6tWqUb1atSKNnUqVu/Slx8LVfLpiDotu6cu1Fk+9ZZrDeTStezl2eBvfDZoMcs7Niielv8JTghNMj9PfvIiEjyIHZ/HVmPa3LCJpEiT+u9AiLZBF+i6oFeuuRLNIXeWtOA+vmOoNymp1qOWZEQksmB6neV5Ewk8EBic0/vcw4lrHE2dRbUKM8yCih9xLtUmk1/VWnJVjIam/ey4RXhpvWbWKmFn1MNXjFIk8UdlH/tR/xSI2yc/PpwAoyM+nwHXpLgBnVjrvu8cLCqBatarmXZxSBa6ropw4cYLc3FyqVC1ZvxVOHjiYtJhzzMMczfqDMjGVMF9k7WjWedzw3BhuOL3/N0kxp+AUsYm7mswvKAD3313BmZ9f4BOczpuC83Sb/NTn3Dz6amr6jB7k46c+oeboBFoVGn8D7lNwiq+IXKoVOROsepjmHqeOqpXQZLJ4SAtatWzLk59lm+Y2ktSyBUOXZJrG7ZO5ZAitWg5hseFsPVFwitjGqofp/rtxzjgvEpxckse9TspR83jkOJ5nHvEjD46bx04zBaeITQJVlKo45R+5uD3xlebz/Jup5JrnIkHWSl6Y9BFpJ/vF4Ohu5k96kS9O9RfRnYSCU8QmxurSzFhpWs2LBFS5M4mP9+Lg+88xbVOA6MxMZfaoBLq0dy7vdrnzORanubd3Lu22emU122YMcW7TaTCzf84l9+dZDO3allYtO3DHs1+QYa7+/tjI7GFXc1nLFlyZYLHPlxbz5dN9uMy9rHt0J4ufdb2O9ldb79MopiNPDjiH2a8HCM+ju5n/+hzKD3gYh/X32pw2Ck4RmwTT4zTPy2mWvoAXHhnOMJ/bs3ycvpJ3LcfNOzhzKsbfzzOODN4ZM5NtViF0dCNJgwbzekYcw99eyooPXqI7HzL+9odINvYoF7zOJzWGM332BG6tlErSI725fcYxBr79AW8l1GPjgieYvcYYzjuZ/cqHRN8+g6UfTKBr9nzGD5vMRuMm789kw7Vv891Pr9G9agaLn+jN+DWNGTN3FSveHkSFZQ/z4IythgdYqHE1Y/2Fpyc0H+eGGqa5M0DBKWITqx6mepzFTO2ePPLCJF72uT3ODbU7cmeh8Um8Pa04HVFbgU6PTMBx4HWeW7DTPEnmV1OZvasZiePux3FxLFXqtue+SWPpdHQ1M78ybB8/gIGOesTW7cqttzaCvWXpfu9AmtWKpU2/3sSTS8YB3wORuj4whlubx1KlblcSH+oFe+ezepthA8f9DGxTwfn3nxfz/Kpq3Pf0Y8TXqkCVi3tx/52x7Hz3C8MD/LAKz2IWmig4RewTqIepHqfYolJnhj/enq0vTGLx3r99pjLSU4FLaWT8urNKsdQEtu03BGHNWFwRR8XyVYGqRJdzDVSJpZ53S5d6VKnivRd9TjSQyzFj1VujmmefmTu3kksGb/RrQauWzlvfyRlw9JjhAQEYw/NQ8QtNFJwi9gnUw1TFKXap4niMR+NX8/wLszDWnbG144ANbN1jGPwjg71AfL1Yw2CoDpGb472XvW8vEEtFd9iaVKnXiGjqcd+7q/j6S+PtAfOm/rnD88n3il1oouAUsY9VD9Pc41TFKf9YqVi6P/QYjVatJsUwXCW+O47yG0ka8zrJP2eQuSuVd8aO5cvyXenewVAyhmwHb7zwOim7MslYP4unXvgCmvbH0dC8nUvDK+hfdyfTXp3Jxj9ygVwObVzMrHXm81BPosbVjH1jTLELTRScIvaxqijV45RTom4vRj/SzHesUmeeWTSFgZW/4Ll+19Pl5odZXmoQby2aQKdKvpuGJo5hd9Tnk3uv48Y7J7Oh2f28NakXfmvY6GbcN9X5Op68+Wqu7HQdg9/bQtWa7sXcEJQyDxQP+so9ERvpu2qLN//fVXspg6eZv3JPxJqCU8Qm7moy0HfVekOzQMF5BhzNPurnW2fKUL5CmUJf8i5iRcEpYiNzxem9oYpTJEKoxyliE2NQGsfMc8Z5EQk/Ck4RmwQ6alZH1YpEDgWniE2M1aWZKk6RyKHgFLGJzuMUKRkUnCI2saoo1eMUiTwKThGbBKooVXGKRI6ojet/0q+/IjbwqS6df3GORUVR4DqPE3Cd5wlQwKXNW/js41Qr0OkoIv+YzuMUsZHO4xSJfFqqFbGJVQ/Tpwq1mBeR8KPgFLFJoB6mepwikUPBKWITY3VppopTJHIoOEVs4q4kjRWlcUwVp0hkUHCK2MSqolSPUyTyKDhFbBKoolTFKRI5dDqKiE3c1WQ4XY8zynVuqYgET8EpYiOdxykS+bRUK2ITqx6m++++IarfVUXCmYJTxCaBepjqcYpEDgWniE2M1aWZKk6RyKHgFLGJu5I0VpTGMVWcIpFBwSliE6uKUj1Okcij4BSxSaCKUhWnSORQcIrYJJgep795EQkfCk4RmwTT4zTPi0j4KXJw7t69mxYtW1Gh4nl+b1d16symTf81P1QkIln1MNXjFIk8RQ7OlyZNIi0tzTzsY+3atfS45RaO5uSYp0QiTqAepnqcIpGjSMGZnZ3N7Nnvm4ct/f7773z5xRfmYZGIE6iHqYpTJHIUKTjPOusszj33XPOwX2eXK2cestWWaQ4cDuNtKlvMG51xWXw60vQ6RyZz2D29earv/ZB59z96RZZ5Uk4Dqx6mucepilMk/BUpOM855xzSd+8i+8iflrcf166hXbt2nHXWWZxzzjlcftll5l3YLm74HJKTk0lOTmbu8HQSi2V4Qo+XnK8xOTmZpLov06cIYXl4xSgc03zf3eEVSSTVTSI5OZmnusT4zMnpYVVRqscpEnlCDs5XXn2VGjXOL3QgkPHWqnUbdu3aRf369bn77kGUL1/evJtTqnKXRBJbp5N+0DxTvDQemESPtXvYZ54ogn3pa4irXcM8LKdRoIpSFadI5AgpOH/99VdeemkSv/yyvVCVab59920Khw8f5sGhQ827OQ32k77We+/wilE+S6SepcyDyYz2qUy3MNXhYOpm933n8qf3vnO+0H7c261IZrR5CTaQg7vZYx5z2zzV8jVvmeagz6Q1sDARh8PB1M3O505cCKmT+uJwjOJT1y8Mft+3p2pNdi3vOh/jrmS9S9/Oz8a4Hy0D+xdMj9PfvIiEj5CCc+LEF7n/vvuoWLGieaqQ1994gwED+lOlShXz1Cl3eMUcFrWOJ66a84d+n0m1SXItjyYnJ1FrUl9nGFaLI771Ila7g3HzahYBi75zR+l+0tf2oH0TXKGZCJ6l1iRqTUryhBTAolWQmJxM8tMOKnuH/dry0cuk3tKexuYJYMt3eF/zSz1InbSILUDjgcnMHd4GbnEuyw5qEsO1TyeTdIt7uXo8157sfbstTIEHkz2PcY4lsvoy11LyLYtIdDhIIrHQ65DCgulxmudFJPwEHZzp6ems+Owz7r//PvNUIV9+9RULFy4icdgw89Qp46y2nFVRn1XxzH3aQWWySF21hh4vDTKEU2NuGd7GFY4xxHVow54MZxV1OCOdHsOHEbdrt7Ni3LyaRe5g27yaRa2HcUsT434gZZ23AuvR5+SBueghbwWYSBLJA61iExoPNLzmJu3pQShLzyd73y639PUGpmcsiUGu99j4sh5AD/q4e6Yhv46SxaqHqR6nSOQJOjgnvvgiBw8e5IKasYV6msZb9RrnM23aO8ybO4fKlU8WI/YxHhzkrfj2k762DbWr+25bObY2uMKxcmxtUlelcpgsUlfVpn2XOOJJIfUgbPluET0uc0bP4Yx0WPsyfQxLn30mrSE1fb/vzk/CeHCQv9AE9zKy+7kSWWSeD+jk7zso1WsR17oW55vHxVKgHqZ6nCKRI+jgXLBgIbt37fTpY17duTOvvfqqz9iB/fuY8/5smjTxlGZnUA1qt15D+gHzOFC3jjNcm7Snx9oUUjenklK3PY2JIa4DpKzbQvoub/hUjq3tWR71uQUKv6I6mMzo/nvoY1hm7WHeJqAg3rfYLlAPUxWnSOQIOjgbXnQRq1eneO6vWbOGbdu20a/fbT7bFS/OpdhFD5kOAHrIW0lCY9rfsoaUuSnUco1VbhEPq+aQgrNPCq6AXZjo2yM8VQ7sIdVY6bl6r8EL5n2L3ax6mOYepypOkfAXdHA+/PBDPDV+vOf+008/w8MPP0zp0qV9tituKncZ7zqv07vsyUvJnj4erl5e6traroOAgGp1qLV2DXSIM1RnjRk0axh7DD1K4xGstmrSg0QMy8Lf4VNxVu7Slx6eo2oNEwbBvG+xl1VFqR6nSOSJyj7yZ9D/FbduE8eokSOJja3JgAEJbNy4odgHp8jplJ+fTwFQkJ9PQUEB+fn5ADiz0nnfPV5QANWqVTXv4pQqKCggLy+PEydOkJubS5Wq5qPDRORkQgrOTz75hHFPjadKlRhu7Xkrt9+eYN5EpMRyV5P5BQXg/rsrOPPzCwDvmHNbBadIOAp6qRbguuuuo3Xr1sTExHDbbX3N0yIlWjA9TvO8iISfkCpOEfHPU00671hWnN5qUxWnSLgKqeIUEf8CHTWro2pFIoeCU8Qm7qNlrY6a9VaZOqpWJNwpOEVsYtXDNPc4VXGKhD8Fp4hNrCpKYxVqNS8i4UfBKWKTQBWlKk6RyKHgFLFJMD1Of/MiEj4UnCI2CabHaZ4XkfCj4BSxiVUPUz1Okcij4BSxSaAepnqcIpFDwSlik0A9TFWcIpFDwSliE6seprnHqYpTJPwpOEVsYlVRqscpEnkUnCI2CVRRquIUiRwKThGbBNPj9DcvIuFDwSlik2B6nOZ5EQk/Ck4Rm1j1MNXjFIk8Ck4RmwTqYarHKRI5FJwiNgnUw1TFKRI5FJwiNrHqYZp7nKo4RcKfglPEJlYVpXqcIpFHwSlik0AVpSpOkcih4BSxSTA9Tn/zIhI+FJwiNgmmx2meF5Hwo+AUsYlVD1M9TpHIo+AUsUmgHqZ6nCKRQ8EpYpNAPUxVnCKRQ8EpYhOrHqa5x6mKUyT8KThFbGJVUarHKRJ5FJwiNglUUariFIkcCk4RmwTT4/Q3LyLhQ8EpYpNgepzmeREJPwpOEZtY9TDV4xSJPApOEZsE6mGqxykSORScIjYJ1MNUxSkSORScIjax6mGae5yqOEXCn4JTxCZWFaV6nCKRR8EpYpNAFaUqTpHIoeAUsUkwPU5/8yISPhScIjYJpsdpnheR8KPgFLGJVQ9TPU6RyKPgFLFJoB6mepwikUPBKWKTQD1MVZwikUPBKWITqx6mucepilMk/Ck4RWxiVVGqxykSeRScIjYJVFGq4hSJHApOEZsE0+P0Ny8i4UPBKWITqx6ncS7QvIiEDwWniE0CVZTqcYpEDgWniE2sKkrjmHqcIpFBwSliE6uK0liFWs2LSPhRcIrYJFBFqYpTJHIoOEVsEkyP09+8iIQPBaeITYLpcZrnRST8KDhFbGLVw1SPUyTyKDhFbBKoh6kep0jkUHCK2CRQD1MVp0jkUHCK2MSqh2nucariFAl/Ck4Rm1hVlOpxikQeBaeITQJVlKo4RSKHglPEJsH0OP3Ni0j4UHCK2CSYHqd5XkTCj4JTxCZWPUz1OEUij4JTxCaBepjqcYpEDgWniE0C9TBVcYpEDgWniE2sepjmHqcqTpHwp+AUsYlVRakep0jkUXCK2CRQRamKUyRyKDhFbBJMj9PfvIiEDwWniE2C6XGa50Uk/Cg4RWxi1cNUj1Mk8ig4RWwSqIepHqdI5FBwitgkUA9TFadI5FBwitjEqodp7nGq4hQJfwpOEZtYVZTqcYpEHgWniE0CVZSqOEUih4JTxCbB9Dj9zYtI+FBwitgkmB6neV5Ewo+CU8QmVj1M9ThFIo+CU8QmgXqY6nGKRA4Fp4hNAvUwVXGKRA4Fp4hNrHqY5h6nKk6R8KfgFLGJVUWpHqdI5FFwitgkUEWpilMkcig4RWwSTI/T37yIhA8Fp4hNgulxmudFJPwoOEVsYtXDVI9TJPIoOEVsEqiHqR6nSORQcIrYJFAPUxWnSORQcIrYxKqHae5xquIUCX8KThGbWFWU6nGKRB4Fp4hNAlWUqjhFIoeCU8QmwfQ4/c2LSPhQcIrYJJgep3leRMKPglPEJlY9TPU4RSKPglPEJoF6mOpxikQOBaeITQL1MFVxikQOBaeITax6mOYepypOkfCn4BSxiVVFqR6nSORRcIrYJFBFqYpTJHIoOEVsEkyP09+8iIQPBaeITYLpcZrnRST8KDhFbGLVw1SPUyTyKDhFbBKoh6kep0jkUHCK2CRQD1MVp0jkUHCK2MSqh2nucariFAl/Ck4Rm1hVlOpxikQeBaeITQJVlKo4RSKHglPEJsH0OP3Ni0j4UHCK2CSYHqd5XkTCj4JTxCZWPUz1OEUij4JTxCaBepjqcYpEDgWniE0C9TBVcYpEDgWniE2sepjmHqcqTpHwp+AUsYlVRakep0jkUXCK2CRQRamKUyRyKDhFbBJMj9PfvIiEDwWniE2C6XGa50Uk/Cg4RWxi1cNUj1Mk8ig4RWwSqIepHqdI5FBwitgkUA9TFadI5FBwitjEqodp7nGq4hQJfwpOEZtYVZTqcYpEHgWniE0CVZSqOEUih4JTxCbB9Dj9zYtI+FBwitgkmB6neV5Ewo+CU8QmVj1M9ThFIo+CU8QmgXqY6nGKRA4Fp4hNAvUwVXGKRA4Fp4hNrHqY5h6nKk6R8KfgFLGJVUWpHqdI5FFwitgkUEWpilMkcig4RWwSTI/T37yIhA8Fp4hNgulxmudFJPwoOEVsYtXDVI9TJPIoOEVsEqiHqR6nSORQcIrYJFAPUxWnSORQcIrYxKqHae5xquIUCX8KThGbWFWU6nGKRB4Fp4hNAlWUqjhFIoeCU8QmwfQ4/c2LSPhQcIrYJJgep3leRMKPglPEJlY9TPU4RSKPglPEJoF6mOpxikQOBaeITQL1MFVxikQOBaeITax6mOYepypOkfCn4BSxiVVFqR6nSORRcIrYJFBFqYpTJHIoOEVsEkyP09+8iIQPBaeITYLpcZrnRST8KDhFbGLVw1SPUyTyKDhFbBKoh6kep0jkUHCK2CRQD1MVp0jkUHCK2MSqh2nucariFAl/Ck4Rm1hVlOpxikQeBaeITQJVlKo4RSKHglPEJsH0OP3Ni0j4UHCK2CSYHqd5XkTCj4JTxCZWPUz1OEUij4JTxCaBepjqcYpEDgWniE0C9TBVcYpEDgWniE2sepjmHqcqTpHwp+AUsYlVRakep0jkUXCK2CRQRamKUyRy/D94Lv4rzVwfGgAAAABJRU5ErkJggg==;" vertex="1" parent="1">
          <mxGeometry x="66" y="256" width="331" height="452.8" as="geometry" />
        </mxCell>
        <mxCell id="9BwLQ7M6hUQkv6m_WWgl-2" value="&lt;div style=&quot;text-align: justify; font-size: 17px;&quot;&gt;&lt;span style=&quot;background-color: initial;&quot;&gt;&lt;font style=&quot;font-size: 17px;&quot;&gt;La manera propuesta para ambas opciones es mantener el número de serie de los equipos como identificador único y referencia para llevarnos al resto de información.&lt;/font&gt;&lt;/span&gt;&lt;/div&gt;&lt;div style=&quot;font-size: 17px;&quot;&gt;&lt;div style=&quot;text-align: justify;&quot;&gt;&lt;span style=&quot;background-color: initial;&quot;&gt;&lt;font style=&quot;font-size: 17px;&quot;&gt;El modelo de información traída sería el siguiente:&amp;nbsp;&lt;/font&gt;&lt;/span&gt;&lt;/div&gt;&lt;div style=&quot;text-align: justify;&quot;&gt;&lt;span style=&quot;background-color: initial;&quot;&gt;&lt;font style=&quot;font-size: 17px;&quot;&gt;&lt;br&gt;&lt;/font&gt;&lt;/span&gt;&lt;/div&gt;&lt;div style=&quot;text-align: justify;&quot;&gt;&lt;span style=&quot;background-color: initial;&quot;&gt;&lt;font style=&quot;font-size: 17px;&quot;&gt;&lt;br&gt;&lt;/font&gt;&lt;/span&gt;&lt;/div&gt;&lt;div style=&quot;text-align: justify;&quot;&gt;&lt;span style=&quot;background-color: initial;&quot;&gt;S/N: 5CG1196RYZ&lt;/span&gt;&lt;/div&gt;&lt;div style=&quot;text-align: justify;&quot;&gt;Fecha de Ingreso del equipo:&amp;nbsp;&lt;/div&gt;&lt;div style=&quot;text-align: justify;&quot;&gt;12-11-2024&lt;/div&gt;&lt;div style=&quot;text-align: justify;&quot;&gt;Notebook Hp 240 G8&lt;/div&gt;&lt;div style=&quot;text-align: justify;&quot;&gt;Memoria Ram: 16gb de ram&lt;/div&gt;&lt;div style=&quot;text-align: justify;&quot;&gt;Usuarios:&lt;/div&gt;&lt;div style=&quot;text-align: justify;&quot;&gt;- Damián González (*2019*)&lt;/div&gt;&lt;div style=&quot;text-align: justify;&quot;&gt;sergio uribe 2019-2024&lt;/div&gt;&lt;div style=&quot;text-align: justify;&quot;&gt;wcorre&lt;/div&gt;&lt;div style=&quot;text-align: justify;&quot;&gt;&lt;br&gt;&lt;/div&gt;&lt;div style=&quot;text-align: justify;&quot;&gt;&lt;br&gt;&lt;/div&gt;&lt;div style=&quot;text-align: justify;&quot;&gt;&lt;br&gt;&lt;/div&gt;&lt;/div&gt;" style="text;html=1;align=center;verticalAlign=middle;whiteSpace=wrap;rounded=0;" vertex="1" parent="1">
          <mxGeometry x="418" y="323" width="304" height="325" as="geometry" />
        </mxCell>
      </root>
    </mxGraphModel>
  </diagram>
</mxfile>
